<svg width="16" height="16" viewBox="0 0 16 16" fill="none" xmlns="http://www.w3.org/2000/svg">
<g clip-path="url(#clip0_1_311)">
<path d="M8.44241 15.8167C8.4426 15.8165 8.44281 15.8163 8.443 15.8161L11.693 12.5504C11.9365 12.3057 11.9356 11.91 11.6909 11.6665C11.4462 11.423 11.0505 11.4239 10.807 11.6686L8.625 13.8612L8.625 0.625C8.625 0.279812 8.34519 -1.54293e-07 8 -1.69382e-07C7.65481 -1.8447e-07 7.375 0.279812 7.375 0.625L7.375 13.8612L5.193 11.6686C4.9495 11.4239 4.55378 11.423 4.30913 11.6665C4.06441 11.91 4.06356 12.3058 4.307 12.5504L7.557 15.8162C7.55719 15.8163 7.55741 15.8165 7.5576 15.8167C7.80191 16.0615 8.19891 16.0607 8.44241 15.8167Z" fill="white"/>
</g>
<defs>
<clipPath id="clip0_1_311">
<rect width="16" height="16" fill="white" transform="translate(16) rotate(90)"/>
</clipPath>
</defs>
</svg>
