<svg width="33" height="33" viewBox="0 0 33 33" fill="none" xmlns="http://www.w3.org/2000/svg">
<circle cx="16.5" cy="16.5" r="16" fill="url(#paint0_linear_254_637)" stroke="#F29104"/>
<path d="M16.4998 20.3334C16.4066 20.3339 16.3142 20.3161 16.2279 20.2808C16.1416 20.2456 16.0631 20.1936 15.9969 20.128L11.7469 15.878C11.6135 15.7446 11.5386 15.5637 11.5386 15.3751C11.5386 15.1864 11.6135 15.0055 11.7469 14.8721C11.8803 14.7388 12.0612 14.6638 12.2498 14.6638C12.4384 14.6638 12.6193 14.7388 12.7527 14.8721L16.4998 18.6263L20.2469 14.8792C20.3824 14.7632 20.5567 14.7025 20.735 14.7094C20.9132 14.7163 21.0823 14.7902 21.2085 14.9164C21.3346 15.0425 21.4085 15.2116 21.4154 15.3899C21.4223 15.5682 21.3617 15.7425 21.2456 15.878L16.9956 20.128C16.8637 20.2588 16.6856 20.3326 16.4998 20.3334Z" fill="#F29104"/>
<defs>
<linearGradient id="paint0_linear_254_637" x1="0.471429" y1="19.8" x2="51.3252" y2="20.3767" gradientUnits="userSpaceOnUse">
<stop stop-color="#0D172C"/>
<stop offset="1" stop-color="#461837"/>
</linearGradient>
</defs>
</svg>
