<svg width="30" height="30" viewBox="0 0 30 30" fill="none" xmlns="http://www.w3.org/2000/svg">
<g clip-path="url(#clip0_29_199)">
<path d="M29.795 17.913C29.687 17.737 29.4992 17.6319 29.2927 17.6319H29.188L24.9536 8.30295H25.9449C26.6094 8.30295 27.1499 7.76237 27.1499 7.09792C27.1499 6.43346 26.6094 5.89288 25.9449 5.89288H16.3039V4.30616C16.9347 3.88405 17.351 3.16535 17.351 2.35101C17.351 1.05469 16.2963 0 15 0C13.7036 0 12.649 1.05469 12.649 2.35101C12.649 3.16535 13.0652 3.88405 13.696 4.30616V5.89282H4.05497C3.39046 5.89282 2.84993 6.43341 2.84993 7.09786C2.84993 7.76231 3.39052 8.30289 4.05497 8.30289H5.04631L0.811868 17.6318H0.70722C0.500677 17.6318 0.312885 17.7369 0.204838 17.913C0.0967914 18.089 0.0881195 18.3041 0.181694 18.4883L0.947044 19.9947C1.24335 20.578 1.83392 20.9404 2.48823 20.9404H9.25949C9.9138 20.9404 10.5043 20.5781 10.8007 19.9947L11.566 18.4885C11.6596 18.3043 11.651 18.0893 11.543 17.9131C11.435 17.7371 11.2471 17.6319 11.0405 17.6319H10.9359L6.70147 8.30295H13.696V24.7478H10.5163C9.73568 24.7478 9.10064 25.3829 9.10064 26.1635V26.933H8.39652C7.61594 26.933 6.9809 27.568 6.9809 28.3485V29.559C6.9809 29.8025 7.1783 30 7.42187 30H22.578C22.8216 30 23.019 29.8026 23.019 29.559V28.3485C23.019 27.568 22.3839 26.933 21.6033 26.933H20.8992V26.1635C20.8992 25.3829 20.2642 24.7478 19.4836 24.7478H16.3039V12.0136C16.3039 11.7701 16.1065 11.5726 15.8629 11.5726C15.6194 11.5726 15.422 11.77 15.422 12.0136V24.7478H14.5778V7.86198C14.5778 7.61846 14.3804 7.421 14.1368 7.421H4.05497C3.87678 7.421 3.73182 7.27604 3.73182 7.09786C3.73182 6.91967 3.87678 6.77471 4.05497 6.77471H14.1369C14.3805 6.77471 14.5779 6.57731 14.5779 6.33374V4.66446C14.5943 4.66745 14.611 4.66968 14.6275 4.67232C14.636 4.67366 14.6444 4.67507 14.6527 4.6763C14.681 4.68046 14.7095 4.68403 14.7381 4.6872C14.7486 4.68837 14.7591 4.68972 14.7697 4.69071C14.7966 4.69329 14.8235 4.69517 14.8505 4.69687C14.8623 4.69763 14.8741 4.69868 14.886 4.69921C14.9196 4.70079 14.9532 4.70155 14.9868 4.70179C14.9912 4.70179 14.9955 4.70214 14.9999 4.70214C15.0043 4.70214 15.0086 4.70185 15.013 4.70179C15.0466 4.70161 15.0802 4.70085 15.1138 4.69921C15.1257 4.69862 15.1375 4.69757 15.1493 4.69687C15.1763 4.69517 15.2032 4.69329 15.2301 4.69071C15.2407 4.68966 15.2512 4.68837 15.2618 4.6872C15.2904 4.68403 15.3188 4.68052 15.3471 4.67636C15.3555 4.67513 15.3639 4.67372 15.3723 4.67237C15.3888 4.66974 15.4055 4.66751 15.422 4.66452V6.3338C15.422 6.57731 15.6194 6.77477 15.8629 6.77477H25.9448C26.123 6.77477 26.268 6.91973 26.268 7.09792C26.268 7.2761 26.123 7.42106 25.9448 7.42106H15.863C15.6194 7.42106 15.422 7.61846 15.422 7.86204V9.92324C15.422 10.1668 15.6194 10.3642 15.863 10.3642C16.1066 10.3642 16.304 10.1668 16.304 9.92324V8.30295H23.2985L19.064 17.6318H18.9594C18.7528 17.6318 18.565 17.737 18.4569 17.9131C18.3489 18.0892 18.3403 18.3043 18.4339 18.4883L19.1993 19.9947C19.4956 20.578 20.0861 20.9404 20.7404 20.9404H27.5117C28.166 20.9404 28.7565 20.5781 29.0529 19.9947L29.8183 18.4883C29.9118 18.3041 29.9031 18.089 29.795 17.913ZM19.4837 25.6297C19.7779 25.6297 20.0173 25.8692 20.0173 26.1634V26.9329H13.2702C13.0266 26.9329 12.8292 27.1303 12.8292 27.3739C12.8292 27.6174 13.0266 27.8149 13.2702 27.8149H21.6033C21.8976 27.8149 22.137 28.0543 22.137 28.3485V29.118H7.86285V28.3485C7.86285 28.0543 8.10226 27.8149 8.39652 27.8149H11.2236C11.4672 27.8149 11.6646 27.6175 11.6646 27.3739C11.6646 27.1304 11.4672 26.9329 11.2236 26.9329H9.98253V26.1634C9.98253 25.8691 10.2219 25.6297 10.5162 25.6297H19.4837ZM10.0144 19.5953C9.86927 19.881 9.58 20.0585 9.25949 20.0585H2.48829C2.16778 20.0585 1.87851 19.881 1.73337 19.5953L1.18388 18.5138H10.5639L10.0144 19.5953ZM9.97269 17.6318H1.77509L5.87389 8.60172L9.97269 17.6318ZM15.6516 3.66726C15.6355 3.67523 15.6193 3.68279 15.6031 3.69017C15.5948 3.69392 15.5866 3.69784 15.5782 3.70142C15.5598 3.70933 15.5413 3.71665 15.5226 3.7238C15.5083 3.72925 15.4938 3.73447 15.4793 3.7395C15.464 3.74484 15.4487 3.75017 15.4332 3.75497C15.4191 3.75931 15.4048 3.76318 15.3906 3.7671C15.3798 3.77009 15.369 3.77314 15.3581 3.77589C15.3434 3.77958 15.3286 3.78292 15.3137 3.7862C15.3028 3.78855 15.2919 3.79089 15.281 3.793C15.2664 3.79581 15.2518 3.79845 15.237 3.80085C15.2249 3.80284 15.2127 3.80454 15.2005 3.80618C15.1869 3.80806 15.1733 3.80993 15.1596 3.8114C15.1445 3.81304 15.1291 3.81421 15.1138 3.81538C15.1028 3.81626 15.0918 3.81732 15.0808 3.8179C15.054 3.81937 15.0271 3.82025 15 3.82025C14.973 3.82025 14.946 3.81937 14.9192 3.8179C14.9081 3.81732 14.8972 3.81626 14.8862 3.81538C14.8709 3.81421 14.8556 3.81304 14.8404 3.8114C14.8267 3.80993 14.8131 3.80806 14.7995 3.80618C14.7873 3.80454 14.7751 3.80279 14.763 3.80085C14.7483 3.79845 14.7337 3.79581 14.7191 3.793C14.7081 3.79089 14.6972 3.78855 14.6864 3.7862C14.6715 3.78298 14.6566 3.77964 14.6419 3.77589C14.6311 3.77314 14.6203 3.77009 14.6094 3.7671C14.5952 3.76318 14.5809 3.75931 14.5668 3.75497C14.5514 3.75017 14.5361 3.74484 14.5207 3.7395C14.5062 3.73447 14.4917 3.72931 14.4774 3.7238C14.4588 3.71665 14.4402 3.70933 14.4218 3.70142C14.4134 3.69784 14.4052 3.69392 14.397 3.69017C14.3807 3.68279 14.3645 3.67529 14.3485 3.66726C13.8645 3.42667 13.531 2.92716 13.531 2.35101C13.531 1.54095 14.19 0.881893 15.0001 0.881893C15.8102 0.881893 16.4692 1.54095 16.4692 2.35101C16.4691 2.92716 16.1356 3.42667 15.6516 3.66726ZM24.126 8.60172L28.2248 17.6318H20.0272L24.126 8.60172ZM28.2666 19.5953C28.1214 19.881 27.8321 20.0585 27.5116 20.0585H20.7404C20.4199 20.0585 20.1306 19.881 19.9855 19.5953L19.436 18.5138H28.816L28.2666 19.5953Z" fill="#F29104"/>
</g>
<defs>
<clipPath id="clip0_29_199">
<rect width="30" height="30" fill="white"/>
</clipPath>
</defs>
</svg>
