<svg width="30" height="30" viewBox="0 0 30 30" fill="none" xmlns="http://www.w3.org/2000/svg">
<g clip-path="url(#clip0_29_189)">
<path d="M5.48223 3.23853C4.38922 3.23853 3.5 4.12745 3.5 5.21999C3.5 6.31253 4.38922 7.20146 5.48223 7.20146C6.57611 7.20146 7.46609 6.31253 7.46609 5.21999C7.46609 4.12745 6.57611 3.23853 5.48223 3.23853ZM5.48223 6.01974C5.04084 6.01974 4.68178 5.66097 4.68178 5.21999C4.68178 4.77901 5.04084 4.4203 5.48223 4.4203C5.92449 4.4203 6.28437 4.77907 6.28437 5.22005C6.28437 5.66103 5.92449 6.01974 5.48223 6.01974Z" fill="#F29104"/>
<path d="M22.8143 3.23853H17.5743C16.4813 3.23853 15.5921 4.12745 15.5921 5.21999C15.5921 6.31253 16.4813 7.20146 17.5743 7.20146H22.8143C23.9073 7.20146 24.7965 6.31253 24.7965 5.21999C24.7965 4.12745 23.9073 3.23853 22.8143 3.23853ZM22.8143 6.01974H17.5743C17.1329 6.01974 16.7739 5.66097 16.7739 5.21999C16.7739 4.77901 17.133 4.42024 17.5743 4.42024H22.8143C23.2557 4.42024 23.6148 4.77901 23.6148 5.21999C23.6148 5.66097 23.2557 6.01974 22.8143 6.01974Z" fill="#F29104"/>
<path d="M10.6193 3.23853C9.52624 3.23853 8.63702 4.12745 8.63702 5.21999C8.63702 6.31253 9.52624 7.20146 10.6193 7.20146C11.7131 7.20146 12.6031 6.31253 12.6031 5.21999C12.6031 4.12745 11.7131 3.23853 10.6193 3.23853ZM10.6193 6.01974C10.1779 6.01974 9.8188 5.66097 9.8188 5.21999C9.8188 4.77901 10.1779 4.42024 10.6193 4.42024C11.0615 4.42024 11.4214 4.77901 11.4214 5.21999C11.4214 5.66097 11.0615 6.01974 10.6193 6.01974Z" fill="#F29104"/>
<path d="M9.65576 13.0338C9.33847 12.9578 9.01954 13.1537 8.94372 13.4712L7.7715 18.3765C7.69568 18.6939 7.89144 19.0127 8.20884 19.0886C8.25501 19.0996 8.30124 19.1049 8.34671 19.1049C8.61384 19.1049 8.85607 18.9224 8.92087 18.6512L10.0931 13.7459C10.169 13.4285 9.97316 13.1097 9.65576 13.0338Z" fill="#F29104"/>
<path d="M11.8251 18.5121C11.9377 18.6124 12.0781 18.6617 12.2179 18.6617C12.3806 18.6617 12.5427 18.5949 12.6594 18.4638L14.3163 16.6038C14.5897 16.2995 14.5897 15.8229 14.318 15.5205L12.6594 13.6586C12.4422 13.4148 12.0687 13.3934 11.8251 13.6103C11.5814 13.8274 11.5598 14.201 11.7769 14.4446L13.2169 16.0611L11.7769 17.6777C11.5599 17.9215 11.5814 18.295 11.8251 18.5121Z" fill="#F29104"/>
<path d="M6.03962 13.6104C5.79587 13.3934 5.42245 13.4151 5.20536 13.6587L3.54863 15.5185C3.27488 15.8229 3.27488 16.2997 3.54675 16.602L5.20542 18.4639C5.3222 18.5951 5.48415 18.6618 5.64693 18.6618C5.78673 18.6618 5.92718 18.6125 6.03974 18.5122C6.28349 18.2951 6.30505 17.9215 6.08796 17.6779L4.6479 16.0614L6.08796 14.4448C6.30493 14.201 6.28337 13.8275 6.03962 13.6104Z" fill="#F29104"/>
<path d="M28.6753 19.8944H28.4559C28.341 19.5223 28.1921 19.163 28.0105 18.8196L28.167 18.6625C28.417 18.414 28.555 18.0822 28.5555 17.7282C28.5561 17.3733 28.4186 17.0402 28.1682 16.7899L27.8632 16.485V3.89911C27.8632 2.13667 26.6195 0.702881 25.0907 0.702881H2.77254C1.24371 0.702881 0 2.13667 0 3.89911V20.4139C0 22.1764 1.24371 23.6102 2.77254 23.6102H6.2393C6.56561 23.6102 6.83016 23.3456 6.83016 23.0193C6.83016 22.693 6.56561 22.4284 6.2393 22.4284H2.77254C1.91027 22.4284 1.18178 21.5059 1.18178 20.414V9.69403H26.6814V15.665C26.614 15.6547 26.5458 15.6479 26.4764 15.6479C26.4757 15.6479 26.475 15.6479 26.4744 15.6479C26.1203 15.6484 25.7885 15.7863 25.542 16.0342L25.3822 16.1932C25.0317 16.008 24.6666 15.8573 24.2901 15.7423V15.5318C24.2901 14.8015 23.6958 14.2074 22.9654 14.2074H21.8961C21.1665 14.2074 20.573 14.8015 20.573 15.5318V15.7567C20.2037 15.8728 19.847 16.0222 19.5061 16.2036L19.353 16.051C19.1045 15.8012 18.7726 15.6633 18.4186 15.6627C18.4179 15.6627 18.4173 15.6627 18.4166 15.6627C18.0625 15.6627 17.7301 15.8001 17.4803 16.0498L16.7248 16.8049C16.4745 17.055 16.337 17.3883 16.3375 17.7431C16.338 18.0971 16.476 18.4289 16.7241 18.6755L16.8873 18.8391C16.7102 19.1772 16.5647 19.5299 16.4521 19.8943H16.2277C15.4981 19.8943 14.9046 20.4876 14.9046 21.217V22.2874C14.9046 22.3349 14.9072 22.3819 14.9122 22.4282H11.4742C11.1479 22.4282 10.8833 22.6928 10.8833 23.0191C10.8833 23.3454 11.1479 23.6099 11.4742 23.6099H16.2277H16.4544C16.5686 23.9778 16.7163 24.3333 16.8965 24.6736L16.7368 24.8326C16.2228 25.3494 16.2233 26.1884 16.7381 26.7028L17.4939 27.4584C17.7425 27.7082 18.0744 27.8461 18.4284 27.8466H18.4303C18.7845 27.8466 19.1169 27.7092 19.3667 27.4595L19.525 27.3014C19.8683 27.4824 20.2253 27.6303 20.5928 27.7439V27.9726C20.5928 28.7029 21.1863 29.297 21.9159 29.297H22.9869C23.7164 29.297 24.3099 28.7029 24.3099 27.9726V27.7453C24.6809 27.6309 25.0393 27.4824 25.3823 27.3013L25.5398 27.4583C25.7883 27.7082 26.1202 27.846 26.4742 27.8466H26.4762C26.8303 27.8466 27.1628 27.7092 27.413 27.4591L28.1668 26.704C28.4169 26.4555 28.5548 26.1237 28.5554 25.7697C28.5559 25.4149 28.4184 25.0817 28.168 24.8314L28.0103 24.6738C28.1902 24.3332 28.3378 23.9775 28.4518 23.61H28.6751C29.4056 23.61 29.9999 23.0167 29.9999 22.2874V21.217C30 20.4878 29.4057 19.8944 28.6753 19.8944ZM1.18178 8.51226V3.89911C1.18178 2.80722 1.91027 1.88466 2.77254 1.88466H25.0907C25.9529 1.88466 26.6814 2.80722 26.6814 3.89911V8.51231H1.18178V8.51226ZM28.8182 22.2875C28.8182 22.3625 28.7514 22.4283 28.6752 22.4283H27.9995C27.724 22.4283 27.485 22.6187 27.4235 22.8872C27.2959 23.4442 27.0767 23.9723 26.772 24.4572C26.6252 24.6907 26.6595 24.9947 26.8546 25.1896L27.3327 25.6674C27.3684 25.7032 27.3737 25.7458 27.3737 25.7681C27.3737 25.7947 27.3667 25.8333 27.3322 25.8675L26.5773 26.6238C26.5415 26.6596 26.4988 26.6649 26.4763 26.6649C26.4762 26.6649 26.4762 26.6649 26.4762 26.6649C26.4493 26.6649 26.4106 26.658 26.376 26.6231L25.8961 26.1452C25.7009 25.9509 25.3975 25.9172 25.1645 26.0637C24.6789 26.3691 24.1485 26.5887 23.588 26.7162C23.3191 26.7775 23.1282 27.0166 23.1282 27.2924V27.9728C23.1282 28.0487 23.0622 28.1154 22.987 28.1154H21.9161C21.8408 28.1154 21.7747 28.0488 21.7747 27.9728V27.2907C21.7747 27.0146 21.5835 26.7753 21.3142 26.7144C20.7608 26.5892 20.2313 26.37 19.7406 26.063C19.644 26.0025 19.5353 25.973 19.4273 25.973C19.2747 25.973 19.1234 26.032 19.0095 26.146L18.5314 26.6238C18.4956 26.6596 18.4529 26.6649 18.4304 26.6649C18.4303 26.6649 18.4303 26.6649 18.4302 26.6649C18.4034 26.6649 18.3646 26.658 18.3307 26.6239L17.5736 25.8671C17.5206 25.8142 17.5212 25.7203 17.5729 25.6683L18.0527 25.1904C18.2488 24.9951 18.2831 24.6901 18.1354 24.4562C17.8301 23.9729 17.6106 23.4451 17.4829 22.8874C17.4214 22.6189 17.1824 22.4284 16.9069 22.4284H16.2278C16.1512 22.4284 16.0864 22.3639 16.0864 22.2876V21.2173C16.0864 21.1409 16.1512 21.0763 16.2278 21.0763H16.9052C17.181 21.0763 17.4202 20.8855 17.4814 20.6166C17.6075 20.0625 17.8242 19.5368 18.1254 19.0541C18.2708 18.8211 18.2365 18.5186 18.0425 18.3241L17.5591 17.8393C17.5263 17.8067 17.5194 17.7681 17.5193 17.7415C17.5193 17.7192 17.5246 17.6766 17.5603 17.6409L18.3157 16.8858C18.3515 16.8501 18.3942 16.8447 18.4167 16.8447H18.4169C18.4437 16.8448 18.4825 16.8517 18.5171 16.8865L18.9936 17.3611C19.1893 17.5561 19.4938 17.5895 19.7269 17.4416C20.2097 17.1355 20.7386 16.9138 21.2986 16.7827C21.5658 16.7202 21.7547 16.4818 21.7547 16.2074V15.532C21.7547 15.4547 21.8194 15.3894 21.896 15.3894H22.9653C23.0428 15.3894 23.1083 15.4547 23.1083 15.532V16.1974C23.1083 16.4743 23.3005 16.714 23.5708 16.7741C24.133 16.8994 24.6694 17.1205 25.165 17.4315C25.3979 17.5775 25.701 17.5437 25.896 17.3495L26.3779 16.8697C26.4105 16.8368 26.4493 16.8299 26.4761 16.8298H26.4762C26.4987 16.8298 26.5414 16.8352 26.5772 16.8709L27.3326 17.6259C27.3684 17.6617 27.3737 17.7043 27.3737 17.7266C27.3736 17.7532 27.3667 17.7918 27.3319 17.8263L26.8537 18.3059C26.659 18.5012 26.6253 18.8052 26.7724 19.0384C27.0783 19.5234 27.2984 20.0545 27.4266 20.6168C27.4879 20.8857 27.727 21.0764 28.0028 21.0764H28.6752C28.7514 21.0764 28.8182 21.1423 28.8182 21.2173V22.2875Z" fill="#F29104"/>
<path d="M22.4524 18.1437C20.4613 18.1437 18.8414 19.7629 18.8414 21.7531C18.8414 23.7424 20.4613 25.3609 22.4524 25.3609C24.4426 25.3609 26.0618 23.7425 26.0618 21.7531C26.0618 19.7629 24.4426 18.1437 22.4524 18.1437ZM22.4524 24.1791C21.1129 24.1791 20.0231 23.0908 20.0231 21.7531C20.0231 20.4145 21.1129 19.3255 22.4524 19.3255C23.791 19.3255 24.88 20.4145 24.88 21.7531C24.88 23.0908 23.7909 24.1791 22.4524 24.1791Z" fill="#F29104"/>
<path d="M8.87425 22.4283H8.86265C8.53634 22.4283 8.27179 22.6929 8.27179 23.0192C8.27179 23.3455 8.53634 23.6101 8.86265 23.6101H8.87425C9.20056 23.6101 9.46511 23.3455 9.46511 23.0192C9.46511 22.6929 9.20056 22.4283 8.87425 22.4283Z" fill="#F29104"/>
</g>
<defs>
<clipPath id="clip0_29_189">
<rect width="30" height="30" fill="white"/>
</clipPath>
</defs>
</svg>
