<svg width="58" height="58" viewBox="0 0 58 58" fill="none" xmlns="http://www.w3.org/2000/svg">
<circle cx="29" cy="29" r="28.5" fill="#1A172F" stroke="#614454"/>
<g clip-path="url(#clip0_65_376)">
<path d="M41.0938 24.625C41.0938 24.4966 41.0427 24.3734 40.9519 24.2825C40.861 24.1917 40.7378 24.1407 40.6094 24.1407H32.375V16.3907C32.375 16.2622 32.324 16.139 32.2331 16.0482C32.1423 15.9573 32.0191 15.9063 31.8906 15.9063C31.4036 15.9089 30.9177 15.951 30.4375 16.0322V14.4532C30.4375 14.3247 30.3865 14.2015 30.2956 14.1107C30.2048 14.0198 30.0816 13.9688 29.9531 13.9688H18.3281C18.1997 13.9697 18.0766 14.02 17.9842 14.1092L14.1092 17.9842C14.02 18.0766 13.9697 18.1997 13.9688 18.3282V42.5469C13.9688 42.6754 14.0198 42.7986 14.1106 42.8894C14.2015 42.9802 14.3247 43.0313 14.4531 43.0313H29.9531C30.0816 43.0313 30.2048 42.9802 30.2956 42.8894C30.3865 42.7986 30.4375 42.6754 30.4375 42.5469V34.1866C30.9177 34.2678 31.4036 34.3099 31.8906 34.3125C34.3308 34.3104 36.6704 33.34 38.3958 31.6146C40.1213 29.8891 41.0916 27.5496 41.0938 25.1094C41.0938 24.9786 41.0889 24.8478 41.0841 24.7171C41.0899 24.6867 41.0932 24.6559 41.0938 24.625ZM31.4062 16.8896V24.4264L25.5162 30.3164C24.5557 29.1422 23.9384 27.7253 23.7326 26.2223C23.5267 24.7193 23.7403 23.1886 24.3497 21.7994C24.9592 20.4101 25.9407 19.2164 27.186 18.3499C28.4313 17.4835 29.8918 16.9781 31.4062 16.8896ZM17.8438 15.6205V17.8438H15.6205L17.8438 15.6205ZM29.4688 42.0625H14.9375V18.8125H18.3281C18.4566 18.8125 18.5798 18.7615 18.6706 18.6707C18.7615 18.5798 18.8125 18.4566 18.8125 18.3282V14.9375H29.4688V16.2405C27.5215 16.7693 25.8023 17.9242 24.5767 19.527C23.351 21.1299 22.6869 23.0916 22.6869 25.1094C22.6869 27.1272 23.351 29.0889 24.5767 30.6918C25.8023 32.2946 27.5215 33.4496 29.4688 33.9783V42.0625ZM31.8906 33.3438C29.756 33.3439 27.7056 32.5115 26.175 31.0236L32.0892 25.1094H40.125C40.1219 27.2924 39.2534 29.385 37.7098 30.9286C36.1662 32.4722 34.0736 33.3407 31.8906 33.3438Z" fill="#F29104"/>
<path d="M33.8281 23.1719H42.5469V23.169C42.6114 23.1675 42.6749 23.1531 42.7337 23.1266C42.7925 23.1001 42.8454 23.062 42.8892 23.0146C42.9329 22.9673 42.9668 22.9116 42.9886 22.8509C43.0104 22.7902 43.0198 22.7257 43.0162 22.6613C42.8877 20.312 41.8634 18.1013 40.1542 16.4843C38.445 14.8672 36.181 13.967 33.8281 13.9688C33.6997 13.9688 33.5765 14.0198 33.4856 14.1106C33.3948 14.2015 33.3438 14.3247 33.3438 14.4531V22.6875C33.3438 22.816 33.3948 22.9392 33.4856 23.03C33.5765 23.1208 33.6997 23.1719 33.8281 23.1719ZM42.0053 22.2031H34.3125V14.9515C36.2424 15.0637 38.0712 15.852 39.4779 17.1781C40.8847 18.5041 41.7795 20.2832 42.0053 22.2031Z" fill="#F29104"/>
<path d="M22.2031 32.375C21.3409 32.375 20.4981 32.6307 19.7812 33.1097C19.0643 33.5887 18.5055 34.2695 18.1756 35.0661C17.8456 35.8627 17.7593 36.7392 17.9275 37.5848C18.0957 38.4305 18.5109 39.2072 19.1206 39.8169C19.7303 40.4266 20.507 40.8418 21.3527 41.01C22.1983 41.1782 23.0748 41.0919 23.8714 40.7619C24.668 40.432 25.3488 39.8732 25.8278 39.1563C26.3068 38.4394 26.5625 37.5966 26.5625 36.7344C26.5607 35.5787 26.1008 34.471 25.2837 33.6538C24.4665 32.8367 23.3588 32.3768 22.2031 32.375ZM22.2031 40.125C21.5325 40.125 20.877 39.9261 20.3194 39.5536C19.7618 39.181 19.3272 38.6515 19.0706 38.0319C18.814 37.4124 18.7468 36.7306 18.8777 36.0729C19.0085 35.4152 19.3314 34.811 19.8056 34.3368C20.2798 33.8627 20.8839 33.5397 21.5416 33.4089C22.1994 33.2781 22.8811 33.3452 23.5007 33.6018C24.1202 33.8585 24.6498 34.2931 25.0223 34.8506C25.3949 35.4082 25.5938 36.0638 25.5938 36.7344C25.5927 37.6333 25.2352 38.4951 24.5995 39.1308C23.9639 39.7664 23.1021 40.124 22.2031 40.125Z" fill="#F29104"/>
<path d="M23.6562 37.7031C23.6547 38.0028 23.5609 38.2946 23.3875 38.539C23.2142 38.7835 22.9698 38.9685 22.6875 39.0691V39.6406H21.7188V39.0691C21.4365 38.9685 21.192 38.7835 21.0187 38.539C20.8454 38.2946 20.7515 38.0028 20.75 37.7031H21.7188C21.7188 37.7989 21.7472 37.8926 21.8004 37.9722C21.8536 38.0519 21.9293 38.114 22.0178 38.1506C22.1063 38.1873 22.2037 38.1969 22.2976 38.1782C22.3916 38.1595 22.4779 38.1134 22.5456 38.0456C22.6134 37.9779 22.6595 37.8916 22.6782 37.7976C22.6969 37.7037 22.6873 37.6063 22.6506 37.5178C22.614 37.4293 22.5519 37.3536 22.4722 37.3004C22.3926 37.2472 22.2989 37.2188 22.2031 37.2188C21.8623 37.2161 21.5333 37.0938 21.2736 36.8731C21.0139 36.6525 20.84 36.3476 20.7823 36.0117C20.7246 35.6759 20.7867 35.3304 20.9579 35.0357C21.1291 34.7411 21.3984 34.5159 21.7188 34.3997V33.8281H22.6875V34.3997C22.9698 34.5002 23.2142 34.6853 23.3875 34.9297C23.5609 35.1741 23.6547 35.466 23.6562 35.7656H22.6875C22.6875 35.6698 22.6591 35.5762 22.6059 35.4965C22.5526 35.4169 22.477 35.3548 22.3885 35.3181C22.3 35.2815 22.2026 35.2719 22.1086 35.2906C22.0147 35.3092 21.9284 35.3554 21.8606 35.4231C21.7929 35.4909 21.7467 35.5772 21.7281 35.6711C21.7094 35.7651 21.719 35.8625 21.7556 35.951C21.7923 36.0395 21.8544 36.1151 21.934 36.1684C22.0137 36.2216 22.1073 36.25 22.2031 36.25C22.5882 36.2511 22.9571 36.4046 23.2294 36.6769C23.5016 36.9491 23.6551 37.3181 23.6562 37.7031Z" fill="#F29104"/>
<path d="M16.875 20.75H21.7188V21.7188H16.875V20.75Z" fill="#F29104"/>
<path d="M16.875 23.6562H21.7188V24.625H16.875V23.6562Z" fill="#F29104"/>
<path d="M16.875 26.5625H21.7188V27.5312H16.875V26.5625Z" fill="#F29104"/>
<path d="M16.875 29.4688H21.7188V30.4375H16.875V29.4688Z" fill="#F29104"/>
<path d="M32.375 36.25H34.3125V37.2188H32.375V36.25Z" fill="#F29104"/>
<path d="M35.2812 36.25H43.0312V37.2188H35.2812V36.25Z" fill="#F29104"/>
<path d="M32.375 39.1562H34.3125V40.125H32.375V39.1562Z" fill="#F29104"/>
<path d="M35.2812 39.1562H43.0312V40.125H35.2812V39.1562Z" fill="#F29104"/>
<path d="M32.375 42.0625H34.3125V43.0312H32.375V42.0625Z" fill="#F29104"/>
<path d="M35.2812 42.0625H43.0312V43.0312H35.2812V42.0625Z" fill="#F29104"/>
</g>
<defs>
<clipPath id="clip0_65_376">
<rect width="31" height="31" fill="white" transform="translate(13 13)"/>
</clipPath>
</defs>
</svg>
