<svg width="58" height="58" viewBox="0 0 58 58" fill="none" xmlns="http://www.w3.org/2000/svg">
<circle cx="29" cy="29" r="28.5" fill="white" stroke="#E0ECF2"/>
<path d="M22.6307 41.3405C22.0314 41.3402 21.4566 41.1022 21.0324 40.6787C20.6083 40.2551 20.3695 39.6807 20.3684 39.0813V21.1648C20.3684 21.0716 20.4054 20.9823 20.4713 20.9164C20.5372 20.8505 20.6266 20.8135 20.7197 20.8135C20.8129 20.8135 20.9023 20.8505 20.9682 20.9164C21.0341 20.9823 21.0711 21.0716 21.0711 21.1648V39.0813C21.0772 39.4909 21.2443 39.8817 21.5361 40.1692C21.828 40.4567 22.2212 40.6179 22.6309 40.6179C23.0406 40.6179 23.4338 40.4567 23.7257 40.1692C24.0176 39.8817 24.1846 39.4909 24.1907 39.0813V37.4053C24.1907 37.3122 24.2278 37.2228 24.2937 37.1569C24.3595 37.091 24.4489 37.054 24.5421 37.054H38.4626V19.0093C38.4622 18.5957 38.2977 18.1992 38.0052 17.9067C37.7128 17.6143 37.3162 17.4497 36.9026 17.4493H18.6267C18.5336 17.4493 18.4442 17.4123 18.3783 17.3464C18.3124 17.2805 18.2754 17.1911 18.2754 17.0979C18.2754 17.0047 18.3124 16.9154 18.3783 16.8495C18.4442 16.7836 18.5336 16.7466 18.6267 16.7466H36.9026C37.5025 16.7472 38.0777 16.9858 38.5019 17.41C38.9261 17.8342 39.1647 18.4094 39.1653 19.0093V37.4053C39.1653 37.4985 39.1283 37.5879 39.0624 37.6538C38.9965 37.7197 38.9072 37.7567 38.814 37.7567H24.8934V39.0813C24.8922 39.6807 24.6533 40.2552 24.2292 40.6787C23.805 41.1022 23.2302 41.3402 22.6307 41.3405Z" fill="#F29104"/>
<path d="M38.6829 41.3412H22.6314C22.5382 41.3412 22.4488 41.3042 22.3829 41.2383C22.317 41.1724 22.28 41.083 22.28 40.9898C22.28 40.8966 22.317 40.8073 22.3829 40.7414C22.4488 40.6755 22.5382 40.6385 22.6314 40.6385C23.0445 40.6385 23.4408 40.4746 23.7332 40.1828C24.0257 39.891 24.1904 39.4951 24.1914 39.082V37.406C24.1914 37.3129 24.2284 37.2235 24.2943 37.1576C24.3602 37.0917 24.4495 37.0547 24.5427 37.0547H40.5904C40.6835 37.0547 40.7729 37.0917 40.8388 37.1576C40.9047 37.2235 40.9417 37.3129 40.9417 37.406V39.082C40.9411 39.6809 40.703 40.2552 40.2795 40.6787C39.856 41.1023 39.2818 41.3405 38.6829 41.3412ZM24.2701 40.6385H38.6829C39.0955 40.638 39.4911 40.4739 39.7828 40.1821C40.0746 39.8902 40.2386 39.4946 40.239 39.082V37.7574H24.8941V39.082C24.8946 39.6619 24.671 40.2195 24.2701 40.6385Z" fill="#F29104"/>
<path d="M27.6012 35.0464C27.5371 35.0465 27.4742 35.029 27.4194 34.9958C27.3645 34.9627 27.3197 34.9152 27.2899 34.8584L26.7763 33.8799L25.7243 34.2162C25.6601 34.2368 25.5914 34.2385 25.5263 34.2211C25.4611 34.2038 25.4024 34.168 25.357 34.1182C25.3116 34.0683 25.2816 34.0064 25.2704 33.94C25.2592 33.8735 25.2674 33.8052 25.2939 33.7433L26.7931 30.2322C26.8297 30.1465 26.8988 30.0788 26.9853 30.044C27.0718 30.0093 27.1685 30.0103 27.2543 30.0469C27.34 30.0834 27.4077 30.1526 27.4425 30.2391C27.4772 30.3255 27.4762 30.4223 27.4396 30.508L26.2419 33.3129L26.843 33.121C26.9218 33.0957 27.0069 33.099 27.0834 33.1303C27.16 33.1616 27.223 33.2189 27.2615 33.2921L27.5679 33.8757L28.8531 30.8541C28.8703 30.8104 28.8961 30.7706 28.9289 30.7371C28.9617 30.7035 29.0009 30.6769 29.0442 30.6588C29.0875 30.6406 29.134 30.6313 29.1809 30.6315C29.2278 30.6316 29.2743 30.6411 29.3175 30.6594C29.3607 30.6778 29.3997 30.7046 29.4324 30.7383C29.465 30.772 29.4906 30.812 29.5076 30.8557C29.5246 30.8995 29.5326 30.9462 29.5312 30.9931C29.5299 31.04 29.5191 31.0862 29.4996 31.1289L27.9241 34.8324C27.8982 34.8936 27.8554 34.9461 27.8008 34.9839C27.7462 35.0217 27.682 35.0433 27.6156 35.0461L27.6012 35.0464Z" fill="#F29104"/>
<path d="M31.5621 35.0463H31.5477C31.4812 35.0437 31.4169 35.0222 31.3621 34.9843C31.3074 34.9465 31.2645 34.894 31.2385 34.8327L29.6676 31.1277C29.6312 31.0419 29.6303 30.9451 29.6652 30.8587C29.7002 30.7722 29.768 30.7032 29.8538 30.6668C29.9396 30.6303 30.0364 30.6295 30.1229 30.6644C30.2093 30.6993 30.2784 30.7671 30.3148 30.853L31.5969 33.8746L31.9029 33.2917C31.9414 33.2186 32.0043 33.1613 32.0808 33.13C32.1573 33.0987 32.2423 33.0954 32.321 33.1206L32.9215 33.3124L31.7251 30.5153C31.7056 30.4727 31.6949 30.4266 31.6934 30.3798C31.692 30.3329 31.7 30.2863 31.7169 30.2426C31.7338 30.1989 31.7592 30.159 31.7918 30.1252C31.8243 30.0915 31.8633 30.0646 31.9063 30.0462C31.9494 30.0277 31.9957 30.0181 32.0426 30.0178C32.0895 30.0176 32.1359 30.0267 32.1792 30.0446C32.2225 30.0626 32.2617 30.089 32.2947 30.1223C32.3276 30.1557 32.3535 30.1953 32.3709 30.2388L33.8687 33.7432C33.8952 33.8051 33.9033 33.8733 33.8921 33.9396C33.881 34.006 33.851 34.0678 33.8057 34.1176C33.7604 34.1674 33.7018 34.2032 33.6368 34.2207C33.5718 34.2381 33.5031 34.2365 33.439 34.2161L32.3871 33.8799L31.8734 34.8584C31.8436 34.9151 31.7988 34.9626 31.7439 34.9958C31.6891 35.0289 31.6262 35.0464 31.5621 35.0463Z" fill="#F29104"/>
<path d="M29.5833 31.5248C29.3923 31.5248 29.2068 31.461 29.0562 31.3435L28.4958 30.9075C28.4624 30.883 28.421 30.872 28.3799 30.8766L27.6772 30.9742C27.4879 31.0012 27.295 30.964 27.1294 30.8685C26.9638 30.7729 26.835 30.6246 26.7637 30.4472L26.4977 29.7905C26.49 29.7709 26.4785 29.753 26.4637 29.7379C26.449 29.7228 26.4314 29.7109 26.412 29.7027L25.7553 29.4367C25.5781 29.3652 25.4299 29.2363 25.3344 29.0708C25.2388 28.9052 25.2015 28.7125 25.2283 28.5232L25.3256 27.8205C25.3285 27.8 25.3273 27.7791 25.3219 27.7591C25.3165 27.7391 25.3072 27.7204 25.2943 27.7042L24.8583 27.142C24.7407 26.9915 24.6769 26.806 24.6769 26.615C24.6769 26.424 24.7407 26.2385 24.8583 26.088L25.2936 25.5258C25.3064 25.5095 25.3158 25.4907 25.3213 25.4707C25.3267 25.4507 25.3281 25.4297 25.3252 25.4092L25.2279 24.7065C25.2011 24.5172 25.2385 24.3245 25.334 24.1589C25.4295 23.9933 25.5777 23.8645 25.7549 23.793L26.412 23.5266C26.4312 23.5189 26.4487 23.5074 26.4634 23.4927C26.4781 23.478 26.4896 23.4605 26.4973 23.4413L26.7637 22.7842C26.8351 22.6069 26.9639 22.4587 27.1295 22.3631C27.2951 22.2676 27.4879 22.2303 27.6772 22.2572L28.3799 22.3549C28.4005 22.3578 28.4214 22.3564 28.4414 22.351C28.4615 22.3456 28.4802 22.3361 28.4965 22.3233L29.0566 21.8876C29.2072 21.7703 29.3927 21.7065 29.5836 21.7065C29.7745 21.7065 29.96 21.7703 30.1106 21.8876L30.6711 22.3236C30.6874 22.3364 30.7061 22.3458 30.7262 22.3512C30.7462 22.3565 30.7672 22.3578 30.7877 22.3549L31.4904 22.2572C31.6797 22.2304 31.8724 22.2678 32.038 22.3633C32.2035 22.4588 32.3324 22.607 32.4039 22.7842L32.6699 23.4413C32.6778 23.4606 32.6895 23.4781 32.7042 23.4928C32.719 23.5076 32.7366 23.5192 32.756 23.527L33.4126 23.793C33.5898 23.8647 33.7378 23.9935 33.8333 24.159C33.9288 24.3246 33.9663 24.5172 33.9397 24.7065L33.842 25.4092C33.8366 25.4506 33.8478 25.4924 33.8733 25.5255L34.3089 26.0876C34.4267 26.2381 34.4906 26.4236 34.4906 26.6147C34.4906 26.8057 34.4267 26.9912 34.3089 27.1417L33.8729 27.7021C33.8477 27.7353 33.8366 27.7771 33.842 27.8184L33.9397 28.5211C33.9663 28.7103 33.9288 28.903 33.8333 29.0685C33.7378 29.234 33.5898 29.3629 33.4126 29.4346L32.7542 29.7027C32.7349 29.7106 32.7173 29.7222 32.7026 29.7369C32.6878 29.7516 32.6761 29.7691 32.6681 29.7884L32.4025 30.4451C32.3308 30.6222 32.2019 30.7703 32.0364 30.8658C31.8709 30.9613 31.6782 30.9987 31.489 30.9721L30.7863 30.8744C30.7448 30.8691 30.7029 30.8803 30.6696 30.9057L30.1096 31.3414C29.9595 31.4596 29.7743 31.5241 29.5833 31.5248ZM28.3996 30.1724C28.5903 30.1728 28.7756 30.2361 28.9266 30.3527L29.4888 30.7891C29.516 30.8101 29.5495 30.8216 29.584 30.8216C29.6184 30.8216 29.6519 30.8101 29.6792 30.7891L30.2392 30.353C30.3299 30.2829 30.4337 30.2315 30.5444 30.2019C30.6552 30.1722 30.7707 30.165 30.8843 30.1805L31.587 30.2779C31.6213 30.2835 31.6565 30.2771 31.6866 30.2597C31.7167 30.2424 31.7399 30.2151 31.7522 30.1826L32.0181 29.5256C32.0615 29.4191 32.1258 29.3224 32.2071 29.2411C32.2885 29.1598 32.3852 29.0957 32.4918 29.0523L33.1488 28.7864C33.1808 28.7734 33.2075 28.7501 33.2248 28.7202C33.242 28.6903 33.2488 28.6554 33.244 28.6212L33.1467 27.9185C33.1311 27.8051 33.1383 27.6898 33.1678 27.5792C33.1973 27.4686 33.2485 27.3651 33.3185 27.2745L33.7549 26.7123C33.776 26.6852 33.7875 26.6517 33.7875 26.6173C33.7875 26.5829 33.776 26.5494 33.7549 26.5223L33.3192 25.9601C33.2492 25.8699 33.1978 25.7666 33.1681 25.6564C33.1383 25.5461 33.1308 25.431 33.146 25.3178L33.2433 24.6151C33.2481 24.5809 33.2413 24.5461 33.2241 24.5162C33.2068 24.4863 33.1801 24.463 33.1481 24.45L32.4911 24.1837C32.3846 24.1404 32.2879 24.0763 32.2066 23.995C32.1253 23.9138 32.0611 23.8172 32.0178 23.7107L31.7515 23.0537C31.7387 23.0215 31.7155 22.9945 31.6855 22.9772C31.6556 22.9598 31.6206 22.9531 31.5863 22.9581L30.8836 23.0558C30.7701 23.0714 30.6547 23.0641 30.544 23.0345C30.4334 23.0049 30.3298 22.9535 30.2392 22.8833L29.6771 22.4473C29.6499 22.426 29.6164 22.4145 29.5819 22.4145C29.5473 22.4145 29.5138 22.426 29.4866 22.4473L28.9245 22.883C28.8338 22.9528 28.7302 23.0041 28.6196 23.0338C28.509 23.0634 28.3936 23.0709 28.2801 23.0558L27.5774 22.9581C27.5432 22.9535 27.5084 22.9604 27.4785 22.9777C27.4486 22.995 27.4253 23.0217 27.4123 23.0537L27.1459 23.7107C27.1026 23.8171 27.0385 23.9138 26.9572 23.995C26.876 24.0762 26.7794 24.1403 26.673 24.1837L26.016 24.4496C25.984 24.4627 25.9572 24.4859 25.9399 24.5158C25.9226 24.5457 25.9158 24.5805 25.9204 24.6148L26.0181 25.3175C26.0336 25.4311 26.0263 25.5466 25.9966 25.6573C25.9668 25.768 25.9153 25.8717 25.8449 25.9622L25.4127 26.523C25.3915 26.5501 25.3799 26.5837 25.3799 26.6182C25.3799 26.6527 25.3915 26.6862 25.4127 26.7134L25.8488 27.2756C25.9189 27.3661 25.9703 27.4697 25.9999 27.5804C26.0295 27.691 26.0368 27.8064 26.0213 27.9199L25.9236 28.6226C25.9188 28.6569 25.9256 28.6917 25.9429 28.7217C25.9603 28.7516 25.9871 28.7749 26.0192 28.7878L26.6762 29.0541C26.7825 29.0975 26.8791 29.1616 26.9603 29.2429C27.0416 29.3241 27.1057 29.4207 27.1491 29.527L27.4154 30.1844C27.4285 30.2163 27.4518 30.2429 27.4816 30.2601C27.5114 30.2773 27.5461 30.2842 27.5802 30.2796L28.2829 30.1823C28.3215 30.1764 28.3605 30.1731 28.3996 30.1724Z" fill="#F29104"/>
<path d="M29.5833 31.5248C29.3923 31.5248 29.2068 31.461 29.0562 31.3435L28.4958 30.9075C28.4624 30.883 28.421 30.872 28.3799 30.8766L27.6772 30.9742C27.4879 31.0012 27.295 30.964 27.1294 30.8685C26.9638 30.7729 26.835 30.6246 26.7637 30.4472L26.4977 29.7905C26.49 29.7709 26.4785 29.753 26.4637 29.7379C26.449 29.7228 26.4314 29.7109 26.412 29.7027L25.7553 29.4367C25.5781 29.3652 25.4299 29.2363 25.3344 29.0708C25.2388 28.9052 25.2015 28.7125 25.2283 28.5232L25.3256 27.8205C25.3285 27.8 25.3273 27.7791 25.3219 27.7591C25.3165 27.7391 25.3072 27.7204 25.2943 27.7042L24.8583 27.142C24.7407 26.9915 24.6769 26.806 24.6769 26.615C24.6769 26.424 24.7407 26.2385 24.8583 26.088L25.2936 25.5258C25.3064 25.5095 25.3158 25.4907 25.3213 25.4707C25.3267 25.4507 25.3281 25.4297 25.3252 25.4092L25.2279 24.7065C25.2011 24.5172 25.2385 24.3245 25.334 24.1589C25.4295 23.9933 25.5777 23.8645 25.7549 23.793L26.412 23.5266C26.4312 23.5189 26.4487 23.5074 26.4634 23.4927C26.4781 23.478 26.4896 23.4605 26.4973 23.4413L26.7637 22.7842C26.8351 22.6069 26.9639 22.4587 27.1295 22.3631C27.2951 22.2676 27.4879 22.2303 27.6772 22.2572L28.3799 22.3549C28.4005 22.3578 28.4214 22.3564 28.4414 22.351C28.4615 22.3456 28.4802 22.3361 28.4965 22.3233L29.0566 21.8876C29.2072 21.7703 29.3927 21.7065 29.5836 21.7065C29.7745 21.7065 29.96 21.7703 30.1106 21.8876L30.6711 22.3236C30.6874 22.3364 30.7061 22.3458 30.7262 22.3512C30.7462 22.3565 30.7672 22.3578 30.7877 22.3549L31.4904 22.2572C31.6797 22.2304 31.8724 22.2678 32.038 22.3633C32.2035 22.4588 32.3324 22.607 32.4039 22.7842L32.6699 23.4413C32.6778 23.4606 32.6895 23.4781 32.7042 23.4928C32.719 23.5076 32.7366 23.5192 32.756 23.527L33.4126 23.793C33.5898 23.8647 33.7378 23.9935 33.8333 24.159C33.9288 24.3246 33.9663 24.5172 33.9397 24.7065L33.842 25.4092C33.8366 25.4506 33.8478 25.4924 33.8733 25.5255L34.3089 26.0876C34.4267 26.2381 34.4906 26.4236 34.4906 26.6147C34.4906 26.8057 34.4267 26.9912 34.3089 27.1417L33.8729 27.7021C33.8477 27.7353 33.8366 27.7771 33.842 27.8184L33.9397 28.5211C33.9663 28.7103 33.9288 28.903 33.8333 29.0685C33.7378 29.234 33.5898 29.3629 33.4126 29.4346L32.7542 29.7027C32.7349 29.7106 32.7173 29.7222 32.7026 29.7369C32.6878 29.7516 32.6761 29.7691 32.6681 29.7884L32.4025 30.4451C32.3308 30.6222 32.2019 30.7703 32.0364 30.8658C31.8709 30.9613 31.6782 30.9987 31.489 30.9721L30.7863 30.8744C30.7448 30.8691 30.7029 30.8803 30.6696 30.9057L30.1096 31.3414C29.9595 31.4596 29.7743 31.5241 29.5833 31.5248ZM28.3996 30.1724C28.5903 30.1728 28.7756 30.2361 28.9266 30.3527L29.4888 30.7891C29.516 30.8101 29.5495 30.8216 29.584 30.8216C29.6184 30.8216 29.6519 30.8101 29.6792 30.7891L30.2392 30.353C30.3299 30.2829 30.4337 30.2315 30.5444 30.2019C30.6552 30.1722 30.7707 30.165 30.8843 30.1805L31.587 30.2779C31.6213 30.2835 31.6565 30.2771 31.6866 30.2597C31.7167 30.2424 31.7399 30.2151 31.7522 30.1826L32.0181 29.5256C32.0615 29.4191 32.1258 29.3224 32.2071 29.2411C32.2885 29.1598 32.3852 29.0957 32.4918 29.0523L33.1488 28.7864C33.1808 28.7734 33.2075 28.7501 33.2248 28.7202C33.242 28.6903 33.2488 28.6554 33.244 28.6212L33.1467 27.9185C33.1311 27.8051 33.1383 27.6898 33.1678 27.5792C33.1973 27.4686 33.2485 27.3651 33.3185 27.2745L33.7549 26.7123C33.776 26.6852 33.7875 26.6517 33.7875 26.6173C33.7875 26.5829 33.776 26.5494 33.7549 26.5223L33.3192 25.9601C33.2492 25.8699 33.1978 25.7666 33.1681 25.6564C33.1383 25.5461 33.1308 25.431 33.146 25.3178L33.2433 24.6151C33.2481 24.5809 33.2413 24.5461 33.2241 24.5162C33.2068 24.4863 33.1801 24.463 33.1481 24.45L32.4911 24.1837C32.3846 24.1404 32.2879 24.0763 32.2066 23.995C32.1253 23.9138 32.0611 23.8172 32.0178 23.7107L31.7515 23.0537C31.7387 23.0215 31.7155 22.9945 31.6855 22.9772C31.6556 22.9598 31.6206 22.9531 31.5863 22.9581L30.8836 23.0558C30.7701 23.0714 30.6547 23.0641 30.544 23.0345C30.4334 23.0049 30.3298 22.9535 30.2392 22.8833L29.6771 22.4473C29.6499 22.426 29.6164 22.4145 29.5819 22.4145C29.5473 22.4145 29.5138 22.426 29.4866 22.4473L28.9245 22.883C28.8338 22.9528 28.7302 23.0041 28.6196 23.0338C28.509 23.0634 28.3936 23.0709 28.2801 23.0558L27.5774 22.9581C27.5432 22.9535 27.5084 22.9604 27.4785 22.9777C27.4486 22.995 27.4253 23.0217 27.4123 23.0537L27.1459 23.7107C27.1026 23.8171 27.0385 23.9138 26.9572 23.995C26.876 24.0762 26.7794 24.1403 26.673 24.1837L26.016 24.4496C25.984 24.4627 25.9572 24.4859 25.9399 24.5158C25.9226 24.5457 25.9158 24.5805 25.9204 24.6148L26.0181 25.3175C26.0336 25.4311 26.0263 25.5466 25.9966 25.6573C25.9668 25.768 25.9153 25.8717 25.8449 25.9622L25.4127 26.523C25.3915 26.5501 25.3799 26.5837 25.3799 26.6182C25.3799 26.6527 25.3915 26.6862 25.4127 26.7134L25.8488 27.2756C25.9189 27.3661 25.9703 27.4697 25.9999 27.5804C26.0295 27.691 26.0368 27.8064 26.0213 27.9199L25.9236 28.6226C25.9188 28.6569 25.9256 28.6917 25.9429 28.7217C25.9603 28.7516 25.9871 28.7749 26.0192 28.7878L26.6762 29.0541C26.7825 29.0975 26.8791 29.1616 26.9603 29.2429C27.0416 29.3241 27.1057 29.4207 27.1491 29.527L27.4154 30.1844C27.4285 30.2163 27.4518 30.2429 27.4816 30.2601C27.5114 30.2773 27.5461 30.2842 27.5802 30.2796L28.2829 30.1823C28.3215 30.1764 28.3605 30.1731 28.3996 30.1724Z" fill="#F29104"/>
<path d="M28.3367 28.8875C28.2855 28.8875 28.235 28.8763 28.1886 28.8547C28.1423 28.8331 28.1012 28.8017 28.0682 28.7626C28.0352 28.7234 28.0112 28.6776 27.9978 28.6282C27.9844 28.5789 27.9819 28.5272 27.9906 28.4768L28.1972 27.2709L27.3213 26.4168C27.2749 26.371 27.2422 26.3131 27.2268 26.2498C27.2115 26.1864 27.214 26.1201 27.2342 26.0581C27.2544 25.9961 27.2915 25.9409 27.3412 25.8988C27.391 25.8567 27.4514 25.8292 27.5159 25.8195L28.7267 25.6438L29.2681 24.5469C29.3004 24.4921 29.3465 24.4467 29.4017 24.4152C29.457 24.3837 29.5195 24.3671 29.5831 24.3671C29.6467 24.3671 29.7092 24.3837 29.7644 24.4152C29.8197 24.4467 29.8657 24.4921 29.8981 24.5469L30.4406 25.6417L31.651 25.8174C31.7159 25.8268 31.7769 25.8541 31.8271 25.8964C31.8772 25.9386 31.9146 25.9941 31.9349 26.0565C31.9552 26.1188 31.9576 26.1856 31.9419 26.2493C31.9262 26.313 31.8929 26.371 31.846 26.4168L30.9676 27.2709L31.1742 28.4768C31.1852 28.5413 31.178 28.6077 31.1533 28.6684C31.1286 28.729 31.0874 28.7816 31.0344 28.8201C30.9814 28.8586 30.9187 28.8816 30.8534 28.8863C30.7881 28.8911 30.7227 28.8775 30.6647 28.8471L29.5815 28.2779L28.499 28.8471C28.4489 28.8734 28.3932 28.8873 28.3367 28.8875ZM29.5829 27.5295C29.6398 27.5296 29.6959 27.5434 29.7463 27.5699L30.3629 27.8942L30.2452 27.208C30.2356 27.1519 30.2397 27.0943 30.2573 27.0401C30.2748 26.986 30.3053 26.9369 30.346 26.8971L30.845 26.4112L30.156 26.311C30.0996 26.3029 30.046 26.2811 30 26.2476C29.9539 26.2141 29.9166 26.1699 29.8914 26.1189L29.5829 25.4942L29.2748 26.1189C29.2496 26.17 29.2124 26.2143 29.1663 26.2478C29.1202 26.2814 29.0666 26.3032 29.0102 26.3114L28.3212 26.4115L28.8198 26.8975C28.8605 26.9372 28.891 26.9863 28.9086 27.0405C28.9261 27.0947 28.9303 27.1523 28.9206 27.2084L28.8033 27.8949L29.4192 27.5706C29.4697 27.544 29.5258 27.5299 29.5829 27.5295Z" fill="#F29104"/>
<path d="M20.7253 21.5163H16.903C16.8098 21.5163 16.7204 21.4793 16.6545 21.4134C16.5887 21.3475 16.5516 21.2581 16.5516 21.1649V19.0059C16.5591 18.4107 16.8007 17.8424 17.2242 17.4242C17.6477 17.0059 18.2189 16.7714 18.8142 16.7714C19.4094 16.7714 19.9806 17.0059 20.4041 17.4242C20.8276 17.8424 21.0693 18.4107 21.0767 19.0059V21.1649C21.0767 21.2581 21.0397 21.3475 20.9738 21.4134C20.9079 21.4793 20.8185 21.5163 20.7253 21.5163ZM17.2543 20.8136H20.374V19.0059C20.3678 18.5962 20.2008 18.2055 19.9089 17.9179C19.6171 17.6304 19.2238 17.4693 18.8142 17.4693C18.4045 17.4693 18.0112 17.6304 17.7194 17.9179C17.4275 18.2055 17.2605 18.5962 17.2543 19.0059V20.8136Z" fill="#F29104"/>
</svg>
