<svg width="31" height="31" viewBox="0 0 31 31" fill="none" xmlns="http://www.w3.org/2000/svg">
<g clip-path="url(#clip0_29_221)">
<path d="M30.5029 8.92679L27.7162 5.72913C27.5514 5.54004 27.2645 5.52042 27.0755 5.68511C26.8865 5.84992 26.8667 6.13673 27.0315 6.32582L29.1624 8.77106H27.0917C26.8409 8.77106 26.6376 8.97438 26.6376 9.22516V30.0918H21.0245C21.6478 29.4958 22.0372 28.6573 22.0372 27.729V18.1263C22.0372 16.4619 20.7872 15.0848 19.1768 14.882V9.22516C19.1768 8.97438 18.9735 8.77106 18.7227 8.77106H16.6514L22.9069 1.59263L25.6787 4.77321C25.8436 4.96224 26.1304 4.98192 26.3194 4.81723C26.5084 4.65242 26.5282 4.36561 26.3634 4.17652L23.2493 0.603108C23.163 0.504174 23.0382 0.447381 22.9069 0.447381C22.7757 0.447381 22.6509 0.504174 22.5646 0.603168L15.3109 8.92685C15.194 9.06102 15.1662 9.2512 15.24 9.41322C15.3137 9.57525 15.4753 9.67927 15.6533 9.67927H18.2685V14.8553H15.4632V12.8071H16.7125C16.8906 12.8071 17.0522 12.7031 17.1258 12.5411C17.1996 12.3791 17.1719 12.1889 17.0549 12.0547L13.0281 7.43389C12.9419 7.33489 12.8171 7.2781 12.6858 7.2781C12.5546 7.2781 12.4297 7.33489 12.3435 7.43389L8.31669 12.0547C8.19972 12.1889 8.17199 12.3791 8.24573 12.5411C8.31942 12.7031 8.48102 12.8071 8.65903 12.8071H9.90908V14.8553H7.64287V7.20508H8.89292C9.05882 7.20508 9.21158 7.11456 9.2912 6.96907C9.37088 6.82357 9.36488 6.64617 9.27545 6.50637L5.24866 0.209492C5.16529 0.0789531 5.02107 0 4.86613 0C4.71119 0 4.56703 0.0789531 4.48359 0.209432L0.456863 6.50631C0.367435 6.64611 0.361441 6.82351 0.441121 6.96901C0.52074 7.11456 0.6735 7.20502 0.839398 7.20502H2.08939V16.1676C1.67961 16.714 1.43651 17.3923 1.43651 18.1263V27.7288C1.43651 29.5325 2.90386 30.9999 4.70756 30.9999H27.0917C27.3426 30.9999 27.5458 30.7966 27.5458 30.5458V9.67927H30.1606C30.3386 9.67927 30.5002 9.57525 30.5738 9.41322C30.6476 9.25114 30.6199 9.06102 30.5029 8.92679ZM10.3632 11.8989H9.65714L12.6858 8.4234L15.7145 11.8989H15.0091C14.7582 11.8989 14.555 12.1022 14.555 12.353V14.8553H10.8173V12.353C10.8173 12.1022 10.614 11.8989 10.3632 11.8989ZM1.66883 6.29688L4.86613 1.29697L8.06355 6.29688H7.18883C6.93798 6.29688 6.73473 6.50019 6.73473 6.75098V14.8553H4.70762C4.0812 14.8553 3.49553 15.0326 2.99765 15.3392V6.75098C2.99765 6.50019 2.7944 6.29688 2.54355 6.29688H1.66883ZM18.7227 30.0918H4.70756C3.40465 30.0918 2.34471 29.0318 2.34471 27.729V18.1263C2.34471 16.8234 3.40471 15.7635 4.70756 15.7635H18.766C20.069 15.7635 21.1289 16.8235 21.1289 18.1263V27.7289C21.1289 29.0318 20.0689 30.0917 18.766 30.0917H18.7227V30.0918Z" fill="#F29104"/>
<path d="M12.0749 25.4915V25.2269C12.6835 25.0736 13.0736 24.554 13.1597 24.0419C13.272 23.3736 12.9231 22.7928 12.2705 22.5622C12.2061 22.5394 12.1405 22.5157 12.0749 22.4913V21.321C12.2024 21.3685 12.2781 21.4307 12.2873 21.4385C12.4349 21.5714 12.6623 21.5611 12.7974 21.4148C12.9334 21.2673 12.9241 21.0375 12.7767 20.9014C12.7604 20.8865 12.501 20.6528 12.0749 20.5688V20.3638C12.0749 20.1632 11.9122 20.0005 11.7116 20.0005C11.511 20.0005 11.3483 20.1632 11.3483 20.3638V20.5943C11.325 20.6003 11.3016 20.6066 11.2778 20.6138C10.8448 20.7442 10.5213 21.114 10.4338 21.5787C10.3535 22.0051 10.4919 22.4175 10.7949 22.6552C10.9386 22.7679 11.1137 22.8711 11.3484 22.9785V24.5304C11.1813 24.5068 11.0537 24.45 10.8564 24.3209C10.6886 24.2111 10.4633 24.2582 10.3535 24.426C10.2437 24.5939 10.2907 24.8191 10.4586 24.9289C10.8065 25.1566 11.0518 25.2361 11.3483 25.2614V25.4914C11.3483 25.692 11.511 25.8546 11.7116 25.8546C11.9122 25.8546 12.0749 25.6921 12.0749 25.4915ZM12.4432 23.9214C12.4094 24.1222 12.2844 24.3333 12.0749 24.4514V23.266C12.4763 23.4333 12.4674 23.7772 12.4432 23.9214ZM11.2432 22.0836C11.1558 22.015 11.1183 21.8696 11.1478 21.7133C11.1694 21.5986 11.2328 21.466 11.3483 21.3798V22.1571C11.3105 22.1331 11.2751 22.1085 11.2432 22.0836Z" fill="#F29104"/>
<path d="M16.0412 22.9277C16.0412 20.5543 14.1102 18.6234 11.7368 18.6234C9.36346 18.6234 7.43256 20.5543 7.43256 22.9277C7.43256 25.3011 9.36346 27.232 11.7368 27.232C14.1102 27.232 16.0412 25.3011 16.0412 22.9277ZM8.34076 22.9277C8.34076 21.0551 9.86424 19.5316 11.7368 19.5316C13.6095 19.5316 15.133 21.0551 15.133 22.9277C15.133 24.8003 13.6095 26.3238 11.7368 26.3238C9.86424 26.3238 8.34076 24.8003 8.34076 22.9277Z" fill="#F29104"/>
<path d="M18.277 23.3817C18.5278 23.3817 18.7311 23.1784 18.7311 22.9276C18.7311 22.6768 18.5278 22.4735 18.277 22.4735H16.9658C16.7149 22.4735 16.5117 22.6768 16.5117 22.9276C16.5117 23.1784 16.7149 23.3817 16.9658 23.3817H18.277Z" fill="#F29104"/>
<path d="M4.81018 22.4735C4.55933 22.4735 4.35608 22.6768 4.35608 22.9276C4.35608 23.1784 4.55933 23.3817 4.81018 23.3817H6.12138C6.37223 23.3817 6.57549 23.1784 6.57549 22.9276C6.57549 22.6768 6.37223 22.4735 6.12138 22.4735H4.81018Z" fill="#F29104"/>
<path d="M20.3828 26.5541V19.3013C20.3828 19.0505 20.1796 18.8472 19.9287 18.8472C18.8903 18.8472 18.0455 18.0024 18.0455 16.964C18.0455 16.7132 17.8423 16.5099 17.5914 16.5099H5.8824C5.63155 16.5099 5.42829 16.7132 5.42829 16.964C5.42829 18.0024 4.58354 18.8472 3.5451 18.8472C3.29426 18.8472 3.091 19.0505 3.091 19.3013V26.5541C3.091 26.8049 3.29426 27.0082 3.5451 27.0082C4.58348 27.0082 5.42829 27.853 5.42829 28.8914C5.42829 29.1422 5.63155 29.3455 5.8824 29.3455H9.00704C9.25788 29.3455 9.46114 29.1422 9.46114 28.8914C9.46114 28.6406 9.25788 28.4373 9.00704 28.4373H6.29956C6.1063 27.2613 5.17527 26.3302 3.99921 26.137V19.7184C5.17527 19.5252 6.1063 18.5942 6.29956 17.4181H17.1741C17.3674 18.5942 18.2984 19.5252 19.4745 19.7184V26.137C18.2984 26.3302 17.3674 27.2613 17.1741 28.4373H10.7964C10.5456 28.4373 10.3423 28.6406 10.3423 28.8914C10.3423 29.1422 10.5456 29.3455 10.7964 29.3455H17.5914C17.8423 29.3455 18.0455 29.1422 18.0455 28.8914C18.0455 27.853 18.8903 27.0082 19.9287 27.0082C20.1795 27.0082 20.3828 26.8049 20.3828 26.5541Z" fill="#F29104"/>
</g>
<defs>
<clipPath id="clip0_29_221">
<rect width="31" height="31" fill="white"/>
</clipPath>
</defs>
</svg>
