<svg width="58" height="58" viewBox="0 0 58 58" fill="none" xmlns="http://www.w3.org/2000/svg">
<circle cx="29" cy="29" r="28.5" fill="white" stroke="#E0ECF2"/>
<g clip-path="url(#clip0_199_154)">
<path d="M44.5028 22.9268L41.7162 19.7291C41.5513 19.54 41.2645 19.5204 41.0754 19.6851C40.8864 19.8499 40.8667 20.1367 41.0314 20.3258L43.1624 22.7711H41.0917C40.8408 22.7711 40.6376 22.9744 40.6376 23.2252V44.0918H35.0245C35.6477 43.4958 36.0371 42.6573 36.0371 41.729V32.1263C36.0371 30.4619 34.7871 29.0848 33.1767 28.882V23.2252C33.1767 22.9744 32.9735 22.7711 32.7226 22.7711H30.6513L36.9069 15.5926L39.6786 18.7732C39.8435 18.9622 40.1303 18.9819 40.3193 18.8172C40.5084 18.6524 40.5281 18.3656 40.3634 18.1765L37.2492 14.6031C37.1629 14.5042 37.0381 14.4474 36.9069 14.4474C36.7756 14.4474 36.6508 14.5042 36.5645 14.6032L29.3109 22.9269C29.1939 23.061 29.1662 23.2512 29.2399 23.4132C29.3136 23.5752 29.4752 23.6793 29.6532 23.6793H32.2685V28.8553H29.4631V26.8071H30.7125C30.8905 26.8071 31.0521 26.7031 31.1258 26.5411C31.1995 26.3791 31.1718 26.1889 31.0548 26.0547L27.0281 21.4339C26.9419 21.3349 26.817 21.2781 26.6858 21.2781C26.5545 21.2781 26.4296 21.3349 26.3434 21.4339L22.3166 26.0547C22.1997 26.1889 22.1719 26.3791 22.2457 26.5411C22.3194 26.7031 22.481 26.8071 22.659 26.8071H23.909V28.8553H21.6428V21.2051H22.8929C23.0588 21.2051 23.2115 21.1146 23.2911 20.9691C23.3708 20.8236 23.3648 20.6462 23.2754 20.5064L19.2486 14.2095C19.1652 14.079 19.021 14 18.8661 14C18.7111 14 18.567 14.079 18.4835 14.2094L14.4568 20.5063C14.3674 20.6461 14.3614 20.8235 14.4411 20.969C14.5207 21.1146 14.6734 21.205 14.8393 21.205H16.0893V30.1676C15.6795 30.714 15.4365 31.3923 15.4365 32.1263V41.7288C15.4365 43.5325 16.9038 44.9999 18.7075 44.9999H41.0917C41.3425 44.9999 41.5458 44.7966 41.5458 44.5458V23.6793H44.1605C44.3385 23.6793 44.5001 23.5752 44.5738 23.4132C44.6475 23.2511 44.6198 23.061 44.5028 22.9268ZM24.3631 25.8989H23.6571L26.6858 22.4234L29.7144 25.8989H29.009C28.7582 25.8989 28.5549 26.1022 28.5549 26.353V28.8553H24.8172V26.353C24.8172 26.1022 24.614 25.8989 24.3631 25.8989ZM15.6688 20.2969L18.8661 15.297L22.0635 20.2969H21.1888C20.9379 20.2969 20.7347 20.5002 20.7347 20.751V28.8553H18.7076C18.0811 28.8553 17.4955 29.0326 16.9976 29.3392V20.751C16.9976 20.5002 16.7943 20.2969 16.5435 20.2969H15.6688ZM32.7226 44.0918H18.7075C17.4046 44.0918 16.3447 43.0318 16.3447 41.729V32.1263C16.3447 30.8234 17.4046 29.7635 18.7075 29.7635H32.7659C34.0689 29.7635 35.1288 30.8235 35.1288 32.1263V41.7289C35.1288 43.0318 34.0688 44.0917 32.7659 44.0917H32.7226V44.0918Z" fill="#F29104"/>
<path d="M26.0751 39.4915V39.2269C26.6837 39.0736 27.0738 38.554 27.1599 38.0419C27.2722 37.3736 26.9233 36.7928 26.2708 36.5622C26.2064 36.5394 26.1407 36.5157 26.0751 36.4913V35.321C26.2027 35.3685 26.2784 35.4307 26.2876 35.4385C26.4352 35.5714 26.6626 35.5611 26.7976 35.4148C26.9337 35.2673 26.9244 35.0375 26.7769 34.9014C26.7607 34.8865 26.5013 34.6528 26.0751 34.5688V34.3638C26.0751 34.1632 25.9124 34.0005 25.7118 34.0005C25.5112 34.0005 25.3485 34.1632 25.3485 34.3638V34.5943C25.3252 34.6003 25.3018 34.6066 25.2781 34.6138C24.845 34.7442 24.5216 35.114 24.434 35.5787C24.3538 36.0051 24.4921 36.4175 24.7951 36.6552C24.9388 36.7679 25.114 36.8711 25.3486 36.9785V38.5304C25.1816 38.5068 25.054 38.45 24.8567 38.3209C24.6888 38.2111 24.4635 38.2582 24.3538 38.426C24.2439 38.5939 24.291 38.8191 24.4588 38.9289C24.8068 39.1566 25.052 39.2361 25.3485 39.2614V39.4914C25.3485 39.692 25.5112 39.8546 25.7118 39.8546C25.9124 39.8546 26.0751 39.6921 26.0751 39.4915ZM26.4434 37.9214C26.4097 38.1222 26.2847 38.3333 26.0751 38.4514V37.266C26.4765 37.4333 26.4676 37.7772 26.4434 37.9214ZM25.2435 36.0836C25.156 36.015 25.1185 35.8696 25.148 35.7133C25.1696 35.5986 25.233 35.466 25.3485 35.3798V36.1571C25.3107 36.1331 25.2753 36.1085 25.2435 36.0836Z" fill="#F29104"/>
<path d="M30.0412 36.9276C30.0412 34.5543 28.1103 32.6234 25.7369 32.6234C23.3635 32.6234 21.4326 34.5543 21.4326 36.9276C21.4326 39.301 23.3635 41.2319 25.7369 41.2319C28.1103 41.2319 30.0412 39.301 30.0412 36.9276ZM22.3408 36.9276C22.3408 35.055 23.8643 33.5316 25.7369 33.5316C27.6095 33.5316 29.133 35.055 29.133 36.9276C29.133 38.8002 27.6095 40.3237 25.7369 40.3237C23.8643 40.3237 22.3408 38.8002 22.3408 36.9276Z" fill="#F29104"/>
<path d="M32.277 37.3818C32.5279 37.3818 32.7311 37.1785 32.7311 36.9277C32.7311 36.6769 32.5279 36.4736 32.277 36.4736H30.9658C30.715 36.4736 30.5117 36.6769 30.5117 36.9277C30.5117 37.1785 30.715 37.3818 30.9658 37.3818H32.277Z" fill="#F29104"/>
<path d="M18.8101 36.4736C18.5592 36.4736 18.356 36.6769 18.356 36.9277C18.356 37.1785 18.5592 37.3818 18.8101 37.3818H20.1213C20.3721 37.3818 20.5754 37.1785 20.5754 36.9277C20.5754 36.6769 20.3721 36.4736 20.1213 36.4736H18.8101Z" fill="#F29104"/>
<path d="M34.3826 40.5542V33.3013C34.3826 33.0506 34.1794 32.8472 33.9285 32.8472C32.8902 32.8472 32.0454 32.0024 32.0454 30.9641C32.0454 30.7133 31.8421 30.5099 31.5913 30.5099H19.8822C19.6314 30.5099 19.4281 30.7133 19.4281 30.9641C19.4281 32.0024 18.5834 32.8472 17.5449 32.8472C17.2941 32.8472 17.0908 33.0506 17.0908 33.3013V40.5542C17.0908 40.805 17.2941 41.0083 17.5449 41.0083C18.5833 41.0083 19.4281 41.8531 19.4281 42.8915C19.4281 43.1423 19.6314 43.3456 19.8822 43.3456H23.0069C23.2577 43.3456 23.461 43.1423 23.461 42.8915C23.461 42.6407 23.2577 42.4374 23.0069 42.4374H20.2994C20.1061 41.2613 19.1751 40.3303 17.999 40.137V33.7185C19.1751 33.5252 20.1061 32.5942 20.2994 31.4182H31.174C31.3672 32.5942 32.2983 33.5252 33.4743 33.7185V40.137C32.2983 40.3303 31.3672 41.2613 31.174 42.4374H24.7963C24.5454 42.4374 24.3422 42.6407 24.3422 42.8915C24.3422 43.1423 24.5454 43.3456 24.7963 43.3456H31.5913C31.8421 43.3456 32.0454 43.1423 32.0454 42.8915C32.0454 41.8531 32.8901 41.0083 33.9285 41.0083C34.1793 41.0083 34.3826 40.805 34.3826 40.5542Z" fill="#F29104"/>
</g>
<defs>
<clipPath id="clip0_199_154">
<rect width="31" height="31" fill="white" transform="translate(14 14)"/>
</clipPath>
</defs>
</svg>
