<svg width="58" height="58" viewBox="0 0 58 58" fill="none" xmlns="http://www.w3.org/2000/svg">
<circle cx="29" cy="29" r="28.5" fill="white" stroke="#E0ECF2"/>
<path d="M15.5834 29.5C15.583 27.0744 16.2658 24.6978 17.5535 22.6422C18.8411 20.5866 20.6817 18.9352 22.8643 17.8771C25.047 16.819 27.4835 16.3969 29.8948 16.6593C32.3062 16.9216 34.595 17.8578 36.499 19.3605H34.5342C34.364 19.3621 34.2013 19.4309 34.0815 19.5518C33.9618 19.6728 33.8946 19.8361 33.8946 20.0063C33.8946 20.1765 33.9618 20.3399 34.0815 20.4608C34.2013 20.5817 34.364 20.6505 34.5342 20.6521H38.1875C38.3588 20.6521 38.5231 20.5841 38.6442 20.463C38.7653 20.3419 38.8334 20.1776 38.8334 20.0063V16.3528C38.8342 16.2675 38.8181 16.1828 38.786 16.1038C38.7539 16.0247 38.7065 15.9527 38.6464 15.8921C38.5864 15.8315 38.5149 15.7833 38.4362 15.7505C38.3574 15.7176 38.2729 15.7007 38.1876 15.7007C38.1022 15.7007 38.0177 15.7176 37.939 15.7505C37.8602 15.7833 37.7887 15.8315 37.7287 15.8921C37.6686 15.9527 37.6212 16.0247 37.5891 16.1038C37.557 16.1828 37.5409 16.2675 37.5417 16.3528V18.5398C34.7256 16.2167 31.1233 15.0667 27.482 15.3283C23.8408 15.5899 20.4399 17.2431 17.9848 19.945C15.5297 22.6468 14.2088 26.19 14.2961 29.8396C14.3833 33.4892 15.872 36.9652 18.4534 39.5467C18.5131 39.6078 18.5843 39.6565 18.663 39.6898C18.7416 39.7232 18.8261 39.7406 18.9115 39.7411C18.9969 39.7416 19.0816 39.7252 19.1607 39.6927C19.2397 39.6602 19.3115 39.6124 19.3719 39.552C19.4323 39.4916 19.4801 39.4198 19.5126 39.3408C19.545 39.2617 19.5615 39.1771 19.561 39.0916C19.5605 39.0062 19.5431 38.9217 19.5097 38.8431C19.4763 38.7644 19.4277 38.6932 19.3666 38.6335C18.1634 37.4368 17.2095 36.0135 16.5601 34.4457C15.9107 32.8779 15.5788 31.197 15.5834 29.5Z" fill="#F29104"/>
<path d="M22.8553 41.1221C22.4888 40.9439 22.1262 40.7456 21.7775 40.5331C21.6313 40.4438 21.4557 40.4163 21.2892 40.4566C21.1227 40.4969 20.9791 40.6016 20.8898 40.7478C20.8006 40.894 20.7731 41.0696 20.8133 41.2361C20.8536 41.4026 20.9584 41.5463 21.1045 41.6355C21.4884 41.8698 21.8875 42.0877 22.2909 42.2838C22.3672 42.3209 22.45 42.3426 22.5347 42.3476C22.6193 42.3527 22.7042 42.341 22.7843 42.3133C22.8644 42.2856 22.9383 42.2423 23.0018 42.186C23.0652 42.1297 23.1169 42.0615 23.154 41.9852C23.1911 41.9089 23.2127 41.8261 23.2178 41.7415C23.2228 41.6568 23.2112 41.572 23.1834 41.4918C23.1557 41.4117 23.1125 41.3378 23.0562 41.2744C22.9999 41.2109 22.9317 41.1592 22.8554 41.1221H22.8553Z" fill="#F29104"/>
<path d="M40.1279 23.8673C40.1648 23.9436 40.2165 24.0119 40.2798 24.0683C40.3432 24.1247 40.4171 24.168 40.4972 24.1958C40.5773 24.2237 40.6621 24.2354 40.7468 24.2305C40.8315 24.2256 40.9143 24.204 40.9907 24.167C41.067 24.13 41.1353 24.0784 41.1917 24.015C41.248 23.9516 41.2914 23.8778 41.3192 23.7977C41.347 23.7176 41.3588 23.6327 41.3539 23.5481C41.3489 23.4634 41.3273 23.3805 41.2904 23.3042C41.0958 22.9021 40.8782 22.5029 40.6439 22.1175C40.5998 22.045 40.5419 21.9819 40.4734 21.9319C40.405 21.8818 40.3273 21.8457 40.2449 21.8256C40.0784 21.7851 39.9027 21.8123 39.7563 21.9013C39.61 21.9904 39.505 22.1339 39.4645 22.3004C39.4239 22.4668 39.4512 22.6425 39.5402 22.7889C39.7532 23.1393 39.9509 23.5021 40.1279 23.8673Z" fill="#F29104"/>
<path d="M30.0323 42.3261C29.6246 42.3746 29.2121 42.4034 28.8059 42.4132C28.6377 42.4196 28.4787 42.4915 28.3627 42.6134C28.2467 42.7353 28.1829 42.8978 28.1849 43.066C28.1868 43.2343 28.2544 43.3952 28.3732 43.5144C28.492 43.6336 28.6526 43.7017 28.8209 43.7043C28.826 43.7043 28.8313 43.7043 28.8364 43.7039C29.2829 43.6935 29.736 43.6616 30.1838 43.6087C30.3538 43.5885 30.5088 43.5016 30.6147 43.3671C30.7206 43.2327 30.7689 43.0617 30.7488 42.8917C30.7288 42.7217 30.6421 42.5667 30.5077 42.4606C30.3734 42.3545 30.2025 42.306 30.0325 42.3259L30.0323 42.3261Z" fill="#F29104"/>
<path d="M26.3566 42.2386C25.9549 42.1714 25.551 42.084 25.1561 41.9782C24.9906 41.934 24.8143 41.9573 24.666 42.043C24.5177 42.1288 24.4095 42.27 24.3652 42.4355C24.321 42.601 24.3443 42.7773 24.4301 42.9256C24.5158 43.074 24.657 43.1821 24.8225 43.2264C25.2571 43.3424 25.7017 43.4386 26.1441 43.5124C26.2278 43.5264 26.3134 43.5237 26.396 43.5046C26.4786 43.4855 26.5567 43.4503 26.6257 43.401C26.6947 43.3517 26.7533 43.2893 26.7982 43.2173C26.8432 43.1454 26.8734 43.0653 26.8874 42.9817C26.9014 42.898 26.8987 42.8124 26.8796 42.7298C26.8605 42.6472 26.8252 42.5691 26.776 42.5001C26.7267 42.4311 26.6643 42.3724 26.5923 42.3275C26.5204 42.2826 26.4403 42.2523 26.3566 42.2384V42.2386Z" fill="#F29104"/>
<path d="M42.0742 29.1887C41.9029 29.1845 41.7371 29.2485 41.613 29.3666C41.489 29.4846 41.4169 29.6471 41.4126 29.8184C41.4022 30.2267 41.3725 30.6392 41.3239 31.0447C41.3037 31.2148 41.3518 31.386 41.4577 31.5206C41.5636 31.6553 41.7186 31.7424 41.8887 31.7628C41.9145 31.7656 41.9404 31.7671 41.9663 31.7672C42.1241 31.7669 42.2764 31.7089 42.3944 31.6041C42.5124 31.4992 42.5879 31.3548 42.6067 31.198C42.6597 30.7525 42.6925 30.2993 42.7036 29.8506C42.7058 29.7658 42.6912 29.6814 42.6607 29.6022C42.6303 29.523 42.5845 29.4507 42.526 29.3892C42.4676 29.3277 42.3976 29.2784 42.32 29.244C42.2425 29.2096 42.159 29.1908 42.0742 29.1887Z" fill="#F29104"/>
<path d="M40.0919 36.5758C39.9502 36.4798 39.7761 36.4438 39.6079 36.4759C39.4397 36.508 39.2911 36.6056 39.1947 36.7471C38.9651 37.0848 38.7169 37.4156 38.4565 37.73C38.4011 37.7951 38.3592 37.8706 38.3332 37.9521C38.3073 38.0335 38.2977 38.1194 38.3052 38.2045C38.3127 38.2897 38.337 38.3725 38.3767 38.4482C38.4164 38.524 38.4708 38.591 38.5367 38.6455C38.6025 38.7001 38.6785 38.741 38.7603 38.7659C38.8421 38.7908 38.928 38.7992 39.0131 38.7906C39.0982 38.782 39.1807 38.7567 39.2559 38.716C39.3311 38.6752 39.3974 38.62 39.4511 38.5534C39.7374 38.2078 40.0108 37.8442 40.2631 37.4727C40.3107 37.4026 40.3441 37.3238 40.3613 37.2407C40.3785 37.1577 40.3791 37.0721 40.3632 36.9888C40.3474 36.9056 40.3152 36.8262 40.2686 36.7554C40.2221 36.6845 40.162 36.6235 40.0919 36.5758Z" fill="#F29104"/>
<path d="M40.9818 26.168C41.0865 26.5612 41.1735 26.9652 41.2407 27.3688C41.2657 27.5196 41.3434 27.6566 41.4599 27.7555C41.5764 27.8544 41.7242 27.9088 41.877 27.909C41.9126 27.909 41.9482 27.906 41.9833 27.9002C42.067 27.8863 42.1471 27.8561 42.2191 27.8112C42.2911 27.7664 42.3535 27.7078 42.4029 27.6388C42.4522 27.5698 42.4875 27.4917 42.5067 27.4091C42.5258 27.3265 42.5286 27.2409 42.5146 27.1572C42.4411 26.7132 42.3451 26.2684 42.2301 25.8356C42.186 25.6701 42.078 25.5288 41.9298 25.443C41.7815 25.3571 41.6053 25.3336 41.4398 25.3777C41.2743 25.4218 41.133 25.5298 41.0472 25.678C40.9613 25.8262 40.9378 26.0025 40.9819 26.168H40.9818Z" fill="#F29104"/>
<path d="M36.719 39.4653C36.4033 39.7265 36.0725 39.9746 35.736 40.2026C35.6658 40.2502 35.6057 40.3111 35.5591 40.3819C35.5124 40.4528 35.4802 40.5321 35.4642 40.6154C35.4482 40.6986 35.4488 40.7843 35.4659 40.8673C35.483 40.9504 35.5163 41.0293 35.5639 41.0994C35.6115 41.1696 35.6724 41.2298 35.7432 41.2764C35.8141 41.3231 35.8934 41.3553 35.9766 41.3713C36.0599 41.3873 36.1455 41.3867 36.2286 41.3696C36.3117 41.3525 36.3905 41.3192 36.4607 41.2716C36.831 41.0209 37.1946 40.7481 37.542 40.4612C37.6741 40.352 37.7574 40.1949 37.7736 40.0243C37.7898 39.8538 37.7376 39.6838 37.6284 39.5517C37.5193 39.4197 37.3622 39.3364 37.1916 39.3202C37.021 39.304 36.851 39.3562 36.719 39.4653Z" fill="#F29104"/>
<path d="M41.6134 33.0247C41.4503 32.9729 41.2732 32.9879 41.1211 33.0665C40.969 33.1451 40.8543 33.2808 40.8021 33.4438C40.6785 33.8313 40.5341 34.2183 40.3729 34.5945C40.3377 34.6727 40.3184 34.7572 40.3161 34.8429C40.3139 34.9287 40.3288 35.014 40.3599 35.0939C40.391 35.1739 40.4378 35.2468 40.4974 35.3085C40.557 35.3702 40.6283 35.4193 40.7071 35.4532C40.786 35.487 40.8707 35.5047 40.9565 35.5054C41.0423 35.5061 41.1274 35.4897 41.2067 35.4571C41.2861 35.4246 41.3582 35.3765 41.4187 35.3158C41.4793 35.2551 41.5272 35.1829 41.5596 35.1035C41.7375 34.6894 41.8964 34.2628 42.0323 33.8361C42.0581 33.7553 42.0677 33.6702 42.0607 33.5857C42.0536 33.5012 42.0299 33.419 41.991 33.3436C41.9521 33.2682 41.8987 33.2013 41.834 33.1466C41.7692 33.0919 41.6942 33.0505 41.6134 33.0247Z" fill="#F29104"/>
<path d="M33.5821 41.3782C33.2097 41.5378 32.8224 41.6819 32.4311 41.8068C32.3503 41.8325 32.2754 41.8739 32.2106 41.9287C32.1458 41.9834 32.0924 42.0503 32.0535 42.1257C32.0146 42.201 31.9909 42.2833 31.9838 42.3678C31.9767 42.4523 31.9863 42.5374 32.012 42.6181C32.0378 42.6989 32.0792 42.7739 32.1339 42.8387C32.1886 42.9035 32.2556 42.9568 32.3309 42.9957C32.4063 43.0347 32.4885 43.0584 32.573 43.0655C32.6575 43.0726 32.7426 43.063 32.8234 43.0373C33.2538 42.9001 33.6802 42.7415 34.0905 42.5658C34.248 42.4984 34.3722 42.3711 34.4359 42.2121C34.4995 42.053 34.4974 41.8752 34.43 41.7177C34.3625 41.5602 34.2353 41.436 34.0762 41.3723C33.9172 41.3086 33.7394 41.3108 33.5819 41.3782H33.5821Z" fill="#F29104"/>
<path d="M23.0382 28.1806C23.0382 27.1221 22.3422 26.274 21.265 26.0197C20.6732 25.8795 20.0514 25.9441 19.5011 26.2028C18.9507 26.4616 18.5044 26.8993 18.2348 27.4444C18.1593 27.5975 18.1475 27.7742 18.2019 27.936C18.2564 28.0978 18.3726 28.2314 18.5253 28.3077C18.6779 28.3841 18.8546 28.3969 19.0167 28.3434C19.1787 28.2899 19.313 28.1744 19.3902 28.0221C19.5281 27.736 19.76 27.5058 20.0473 27.3701C20.3345 27.2345 20.6596 27.2015 20.9682 27.2768C21.1508 27.3198 21.7465 27.5125 21.7465 28.1806C21.7465 28.8542 20.9685 29.3737 20.1448 29.9238C19.2174 30.5429 18.1666 31.2445 18.1666 32.4063C18.1666 32.5776 18.2347 32.7418 18.3558 32.863C18.4769 32.9841 18.6412 33.0521 18.8125 33.0521H22.3923C22.4777 33.0529 22.5623 33.0369 22.6414 33.0048C22.7205 32.9727 22.7924 32.9252 22.853 32.8652C22.9137 32.8051 22.9618 32.7337 22.9947 32.6549C23.0275 32.5761 23.0444 32.4916 23.0444 32.4063C23.0444 32.321 23.0275 32.2365 22.9947 32.1577C22.9618 32.0789 22.9137 32.0075 22.853 31.9474C22.7924 31.8874 22.7205 31.8399 22.6414 31.8078C22.5623 31.7757 22.4777 31.7597 22.3923 31.7605H19.8336C20.1042 31.5041 20.4867 31.2487 20.8619 30.9979C21.8822 30.3168 23.0382 29.5448 23.0382 28.1806Z" fill="#F29104"/>
<path d="M29.1459 30.3073C29.1459 30.136 29.0778 29.9718 28.9567 29.8507C28.8356 29.7296 28.6713 29.6615 28.5 29.6615H27.9753V26.2305C27.9752 26.0968 27.9337 25.9663 27.8563 25.8572C27.779 25.748 27.6697 25.6656 27.5435 25.6213C27.4173 25.5769 27.2805 25.5728 27.1519 25.6096C27.0233 25.6463 26.9092 25.7221 26.8255 25.8264L23.556 29.9034C23.4799 29.9984 23.4322 30.1129 23.4184 30.2338C23.4046 30.3547 23.4252 30.4771 23.4779 30.5868C23.5305 30.6965 23.6131 30.789 23.7161 30.8539C23.8191 30.9187 23.9382 30.9531 24.0599 30.9532H26.6836V32.7696C26.6828 32.8549 26.6989 32.9396 26.731 33.0187C26.763 33.0977 26.8105 33.1697 26.8705 33.2303C26.9306 33.2909 27.0021 33.3391 27.0808 33.3719C27.1596 33.4048 27.2441 33.4217 27.3294 33.4217C27.4148 33.4217 27.4993 33.4048 27.578 33.3719C27.6568 33.3391 27.7283 33.2909 27.7883 33.2303C27.8484 33.1697 27.8958 33.0977 27.9279 33.0187C27.96 32.9396 27.9761 32.8549 27.9753 32.7696V30.9532H28.5C28.6713 30.9532 28.8356 30.8851 28.9567 30.764C29.0778 30.6429 29.1459 30.4786 29.1459 30.3073ZM26.6836 29.6615H25.4061L26.6836 28.0681V29.6615Z" fill="#F29104"/>
<path d="M32.4513 25.234C32.3681 25.2172 32.2825 25.2169 32.1992 25.2333C32.1159 25.2497 32.0367 25.2824 31.9661 25.3294C31.8955 25.3765 31.8349 25.437 31.7877 25.5076C31.7406 25.5781 31.7078 25.6573 31.6913 25.7406L30.2382 33.0062C30.2046 33.1741 30.2391 33.3485 30.3341 33.4911C30.429 33.6336 30.5767 33.7325 30.7447 33.7662C30.7866 33.7745 30.8291 33.7787 30.8718 33.7788C31.021 33.7786 31.1655 33.7268 31.2808 33.6322C31.3961 33.5376 31.4751 33.406 31.5044 33.2597L32.9576 25.9941C32.9743 25.9109 32.9744 25.8253 32.958 25.7421C32.9416 25.6589 32.9089 25.5797 32.8619 25.5091C32.8149 25.4385 32.7545 25.3779 32.684 25.3307C32.6136 25.2835 32.5345 25.2506 32.4513 25.234Z" fill="#F29104"/>
<path d="M35.7653 33.0524C35.8929 33.0523 36.0175 33.0145 36.1237 32.9438C36.2298 32.873 36.3126 32.7724 36.3617 32.6547L38.7835 26.8422C38.8245 26.7441 38.8406 26.6373 38.8304 26.5315C38.8201 26.4257 38.7839 26.324 38.725 26.2355C38.666 26.147 38.5861 26.0744 38.4923 26.0243C38.3986 25.9741 38.2939 25.9479 38.1875 25.9479H34.918C34.7478 25.9495 34.5851 26.0183 34.4653 26.1392C34.3456 26.2602 34.2784 26.4235 34.2784 26.5937C34.2784 26.7639 34.3456 26.9272 34.4653 27.0482C34.5851 27.1691 34.7478 27.2379 34.918 27.2395H37.2188L35.1696 32.158C35.1289 32.2561 35.1129 32.3628 35.1232 32.4686C35.1335 32.5743 35.1697 32.6759 35.2286 32.7644C35.2875 32.8528 35.3673 32.9254 35.4609 32.9757C35.5545 33.026 35.6591 33.0524 35.7653 33.0526V33.0524Z" fill="#F29104"/>
</svg>
