<svg width="58" height="58" viewBox="0 0 58 58" fill="none" xmlns="http://www.w3.org/2000/svg">
<circle cx="29" cy="29" r="28.5" fill="white" stroke="#E0ECF2"/>
<path d="M35.0217 20.6752C34.0738 19.8206 32.9543 19.1783 31.7381 18.7914C30.5219 18.4046 29.2371 18.282 27.9696 18.4319C26.0566 18.6504 24.2636 19.4749 22.8526 20.785C21.4415 22.0951 20.4864 23.8221 20.1268 25.7136C19.7671 27.6052 20.0218 29.5622 20.8536 31.2987C21.6853 33.0352 23.0507 34.4602 24.75 35.3656V40.6874C24.7503 40.9691 24.8623 41.2392 25.0615 41.4384C25.2607 41.6376 25.5308 41.7496 25.8125 41.7499H26.875V42.8124C26.8753 43.0941 26.9873 43.3642 27.1865 43.5634C27.3857 43.7626 27.6558 43.8746 27.9375 43.8749H30.0625C30.3442 43.8746 30.6143 43.7626 30.8135 43.5634C31.0127 43.3642 31.1247 43.0941 31.125 42.8124V41.7499H32.1875C32.4692 41.7496 32.7393 41.6376 32.9385 41.4384C33.1377 41.2392 33.2497 40.9691 33.25 40.6874V35.3658C34.5322 34.6829 35.6305 33.7005 36.4517 32.5021C37.2728 31.3037 37.7924 29.9248 37.9664 28.4825C38.1403 27.0402 37.9634 25.5773 37.4508 24.218C36.9381 22.8588 36.1048 21.6434 35.0217 20.6752ZM32.1875 37.4999V38.5624H25.8125V37.4999H32.1875ZM30.0633 42.8124H27.9375V41.7499H30.0628L30.0633 42.8124ZM30.5937 40.6874H25.8125V39.6249H32.1875V40.6874H30.5937ZM32.4858 34.5633C32.3963 34.6069 32.3209 34.6747 32.2682 34.7591C32.2154 34.8435 32.1875 34.941 32.1875 35.0405V36.4374H29.5312V34.0012L30.9693 32.563C31.0661 32.4628 31.1197 32.3286 31.1184 32.1893C31.1172 32.05 31.0614 31.9168 30.9629 31.8183C30.8644 31.7198 30.7311 31.6639 30.5918 31.6627C30.4525 31.6615 30.3183 31.715 30.2181 31.8118L29 33.0299L27.7818 31.8118C27.6816 31.715 27.5474 31.6615 27.4082 31.6627C27.2689 31.6639 27.1356 31.7198 27.0371 31.8183C26.9386 31.9168 26.8828 32.05 26.8815 32.1893C26.8803 32.3286 26.9339 32.4628 27.0306 32.563L28.4687 34.0012V36.4374H25.8125V35.0405C25.8125 34.941 25.7846 34.8435 25.7318 34.7591C25.6791 34.6747 25.6037 34.6069 25.5142 34.5633C23.9634 33.8101 22.6989 32.574 21.9107 31.0407C21.1225 29.5074 20.8532 27.7597 21.1432 26.0603C21.4333 24.3608 22.267 22.8014 23.5191 21.6163C24.7712 20.4312 26.3741 19.6844 28.0869 19.4883C28.3937 19.454 28.7022 19.4367 29.0109 19.4366C30.9692 19.4308 32.8594 20.1545 34.313 21.4668C35.2874 22.3377 36.0324 23.4351 36.4823 24.6621C36.9321 25.8891 37.073 27.208 36.8924 28.5023C36.7118 29.7966 36.2153 31.0266 35.4468 32.0836C34.6783 33.1406 33.6614 33.9922 32.4858 34.5631V34.5633Z" fill="#F29104"/>
<path d="M29 17.3125C29.1409 17.3125 29.276 17.2565 29.3757 17.1569C29.4753 17.0573 29.5312 16.9221 29.5312 16.7812V14.6562C29.5312 14.5154 29.4753 14.3802 29.3757 14.2806C29.276 14.181 29.1409 14.125 29 14.125C28.8591 14.125 28.724 14.181 28.6243 14.2806C28.5247 14.3802 28.4688 14.5154 28.4688 14.6562V16.7812C28.4688 16.9221 28.5247 17.0573 28.6243 17.1569C28.724 17.2565 28.8591 17.3125 29 17.3125Z" fill="#F29104"/>
<path d="M21.1114 20.2688C21.1604 20.3196 21.219 20.3601 21.2839 20.3879C21.3487 20.4157 21.4184 20.4304 21.4889 20.431C21.5595 20.4316 21.6294 20.4182 21.6947 20.3915C21.76 20.3648 21.8193 20.3253 21.8692 20.2754C21.9191 20.2256 21.9585 20.1662 21.9852 20.1009C22.0119 20.0357 22.0254 19.9657 22.0248 19.8952C22.0241 19.8246 22.0095 19.7549 21.9817 19.6901C21.9538 19.6253 21.9133 19.5667 21.8626 19.5177L20.3599 18.015C20.3109 17.9642 20.2523 17.9238 20.1875 17.8959C20.1226 17.8681 20.0529 17.8534 19.9824 17.8528C19.9119 17.8522 19.8419 17.8656 19.7766 17.8923C19.7113 17.9191 19.652 17.9585 19.6021 18.0084C19.5523 18.0583 19.5128 18.1176 19.4861 18.1829C19.4594 18.2482 19.4459 18.3181 19.4466 18.3886C19.4472 18.4592 19.4618 18.5289 19.4897 18.5937C19.5175 18.6585 19.558 18.7171 19.6087 18.7662L21.1114 20.2688Z" fill="#F29104"/>
<path d="M18.375 26.875H16.25C16.1091 26.875 15.974 26.931 15.8743 27.0306C15.7747 27.1302 15.7188 27.2654 15.7188 27.4062C15.7188 27.5471 15.7747 27.6823 15.8743 27.7819C15.974 27.8815 16.1091 27.9375 16.25 27.9375H18.375C18.5159 27.9375 18.651 27.8815 18.7507 27.7819C18.8503 27.6823 18.9062 27.5471 18.9062 27.4062C18.9062 27.2654 18.8503 27.1302 18.7507 27.0306C18.651 26.931 18.5159 26.875 18.375 26.875Z" fill="#F29104"/>
<path d="M21.1114 34.5437L19.6087 36.0464C19.558 36.0954 19.5175 36.154 19.4897 36.2188C19.4618 36.2836 19.4472 36.3533 19.4466 36.4239C19.4459 36.4944 19.4594 36.5644 19.4861 36.6296C19.5128 36.6949 19.5523 36.7542 19.6021 36.8041C19.652 36.854 19.7113 36.8935 19.7766 36.9202C19.8419 36.9469 19.9119 36.9603 19.9824 36.9597C20.0529 36.9591 20.1226 36.9444 20.1875 36.9166C20.2523 36.8888 20.3109 36.8483 20.3599 36.7975L21.8626 35.2948C21.9594 35.1947 22.0129 35.0605 22.0117 34.9212C22.0105 34.7819 21.9546 34.6486 21.8561 34.5501C21.7576 34.4516 21.6244 34.3958 21.4851 34.3946C21.3458 34.3933 21.2116 34.4469 21.1114 34.5437Z" fill="#F29104"/>
<path d="M37.6401 18.015L36.1374 19.5177C36.0867 19.5667 36.0462 19.6253 36.0184 19.6901C35.9905 19.7549 35.9759 19.8246 35.9752 19.8952C35.9746 19.9657 35.9881 20.0357 36.0148 20.1009C36.0415 20.1662 36.0809 20.2256 36.1308 20.2754C36.1807 20.3253 36.24 20.3648 36.3053 20.3915C36.3706 20.4182 36.4405 20.4316 36.5111 20.431C36.5816 20.4304 36.6513 20.4157 36.7162 20.3879C36.781 20.3601 36.8396 20.3196 36.8886 20.2688L38.3913 18.7662C38.442 18.7171 38.4825 18.6585 38.5103 18.5937C38.5382 18.5289 38.5528 18.4592 38.5535 18.3886C38.5541 18.3181 38.5406 18.2482 38.5139 18.1829C38.4872 18.1176 38.4478 18.0583 38.3979 18.0084C38.348 17.9585 38.2887 17.9191 38.2234 17.8923C38.1581 17.8656 38.0881 17.8522 38.0176 17.8528C37.9471 17.8534 37.8774 17.8681 37.8125 17.8959C37.7477 17.9238 37.6891 17.9642 37.6401 18.015Z" fill="#F29104"/>
<path d="M36.8886 34.5437C36.7884 34.4469 36.6542 34.3933 36.5149 34.3946C36.3756 34.3958 36.2424 34.4516 36.1439 34.5501C36.0454 34.6486 35.9895 34.7819 35.9883 34.9212C35.9871 35.0605 36.0406 35.1947 36.1374 35.2948L37.6401 36.7975C37.7403 36.8943 37.8745 36.9479 38.0138 36.9466C38.1531 36.9454 38.2863 36.8896 38.3848 36.7911C38.4833 36.6926 38.5392 36.5593 38.5404 36.42C38.5416 36.2807 38.4881 36.1465 38.3913 36.0464L36.8886 34.5437Z" fill="#F29104"/>
<path d="M41.75 26.875H39.625C39.4841 26.875 39.349 26.931 39.2493 27.0306C39.1497 27.1302 39.0938 27.2654 39.0938 27.4062C39.0938 27.5471 39.1497 27.6823 39.2493 27.7819C39.349 27.8815 39.4841 27.9375 39.625 27.9375H41.75C41.8909 27.9375 42.026 27.8815 42.1257 27.7819C42.2253 27.6823 42.2812 27.5471 42.2812 27.4062C42.2812 27.2654 42.2253 27.1302 42.1257 27.0306C42.026 26.931 41.8909 26.875 41.75 26.875Z" fill="#F29104"/>
</svg>
