<svg width="67" height="67" viewBox="0 0 67 67" fill="none" xmlns="http://www.w3.org/2000/svg">
<circle cx="33.5" cy="33.5" r="33" fill="white" stroke="#C7D8E1"/>
<g clip-path="url(#clip0_195_146)">
<path d="M36.9576 38.3602C41.5439 38.3602 45.2754 34.629 45.2754 30.0424C45.2754 25.4561 41.5439 21.7246 36.9576 21.7246C32.3712 21.7246 28.6398 25.4561 28.6398 30.0424C28.6398 34.629 32.3712 38.3602 36.9576 38.3602ZM36.9576 22.8965C40.8978 22.8965 44.1035 26.1022 44.1035 30.0424C44.1035 33.9826 40.8978 37.1883 36.9576 37.1883C33.0174 37.1883 29.8116 33.9828 29.8116 30.0424C29.8116 26.1022 33.0174 22.8965 36.9576 22.8965Z" fill="#F29104"/>
<path d="M36.8706 41.2588C43.0074 41.2588 48 36.2662 48 30.1294C48 23.9926 43.0074 19 36.8706 19C30.7338 19 25.7412 23.9926 25.7412 30.1294C25.7412 32.4585 26.4608 34.6221 27.6888 36.4113L25.8683 38.2318L25.6204 37.9839C25.3915 37.755 25.0205 37.755 24.7916 37.9839L18.875 43.9005C18.3108 44.4647 18 45.215 18 46.0129C18 46.8107 18.3108 47.5608 18.875 48.125C19.4392 48.6892 20.1893 49 20.9871 49C21.785 49 22.5353 48.6892 23.0995 48.125L29.0163 42.2084C29.1262 42.0985 29.1877 41.9495 29.1877 41.7941C29.1877 41.6387 29.1262 41.4895 29.0163 41.3796L28.7682 41.1317L30.5887 39.3112C32.3779 40.5392 34.5417 41.2588 36.8706 41.2588ZM36.8706 20.1719C42.3613 20.1719 46.8281 24.6387 46.8281 30.1294C46.8281 35.62 42.3613 40.0869 36.8706 40.0869C31.3802 40.0869 26.9131 35.62 26.9131 30.1294C26.9131 24.6387 31.3802 20.1719 36.8706 20.1719ZM22.2709 47.2964C21.9278 47.6393 21.4721 47.8281 20.9871 47.8281C20.5021 47.8281 20.0464 47.6393 19.7036 47.2964C18.9956 46.5887 18.9956 45.437 19.7036 44.7291L25.2059 39.2267L25.4538 39.4744C25.4538 39.4746 25.454 39.4746 25.454 39.4749L27.7733 41.7941L22.2709 47.2964ZM27.9397 40.3029L26.6971 39.0603L28.4082 37.3492C28.7893 37.7951 29.2049 38.2107 29.6508 38.5918L27.9397 40.3029Z" fill="#F29104"/>
<path d="M34.9517 28.5023C35.2753 28.5023 35.5376 28.24 35.5376 27.9164C35.5376 27.5131 35.7102 27.1274 36.0107 26.8582C36.3156 26.5852 36.7099 26.46 37.1217 26.5055C37.7722 26.5774 38.2965 27.1018 38.3684 27.7522C38.4316 28.3258 38.1494 28.8772 37.649 29.1569C36.8612 29.5975 36.3716 30.4123 36.3716 31.2832V32.1193C36.3716 32.443 36.6339 32.7052 36.9576 32.7052C37.281 32.7052 37.5435 32.443 37.5435 32.1193V31.2832C37.5435 30.8362 37.8031 30.4135 38.221 30.1798C39.1333 29.6696 39.6483 28.6662 39.5332 27.6236C39.4016 26.4323 38.4414 25.4724 37.2503 25.3407C36.5142 25.2595 35.777 25.4943 35.2288 25.9853C34.6804 26.4765 34.3657 27.1803 34.3657 27.9164C34.3657 28.24 34.628 28.5023 34.9517 28.5023Z" fill="#F29104"/>
<path d="M36.9574 33.8179C36.8034 33.8179 36.6523 33.8806 36.5434 33.9895C36.4344 34.0985 36.3715 34.2498 36.3715 34.4038C36.3715 34.5585 36.4342 34.7091 36.5434 34.8181C36.6523 34.9275 36.8034 34.9897 36.9574 34.9897C37.1117 34.9897 37.2627 34.9275 37.3717 34.8181C37.4806 34.7091 37.5433 34.5578 37.5433 34.4038C37.5433 34.2498 37.4809 34.0985 37.3717 33.9895C37.2627 33.8806 37.1117 33.8179 36.9574 33.8179Z" fill="#F29104"/>
</g>
<defs>
<clipPath id="clip0_195_146">
<rect width="30" height="30" fill="white" transform="translate(18 19)"/>
</clipPath>
</defs>
</svg>
