<svg width="58" height="58" viewBox="0 0 58 58" fill="none" xmlns="http://www.w3.org/2000/svg">
<circle cx="29" cy="29" r="28.5" fill="white" stroke="#E0ECF2"/>
<g clip-path="url(#clip0_199_149)">
<path d="M16.3457 19.0303H25.3639C25.6548 19.0303 25.8487 18.8364 25.8487 18.5454V15.7333C25.8487 15.4424 25.6548 15.2485 25.3639 15.2485H16.3457C16.0548 15.2485 15.8608 15.4424 15.8608 15.7333V18.5939C15.8608 18.8364 16.0548 19.0303 16.3457 19.0303ZM16.8305 16.2182H24.879V18.1091H16.8305V16.2182Z" fill="#F29104"/>
<path d="M25.8487 20.9212C25.8487 20.6303 25.6548 20.4363 25.3639 20.4363H16.3457C16.0548 20.4363 15.8608 20.6303 15.8608 20.9212V23.7818C15.8608 24.0727 16.0548 24.2666 16.3457 24.2666H25.3639C25.6548 24.2666 25.8487 24.0727 25.8487 23.7818V20.9212ZM24.879 23.2969H16.8305V21.406H24.879V23.2969Z" fill="#F29104"/>
<path d="M20.8545 32.2667C19.8363 32.2667 19.0605 33.0909 19.0605 34.1091C19.0605 35.1273 19.8848 35.9515 20.8545 35.9515C21.8727 35.9515 22.6969 35.1273 22.6969 34.1091C22.6484 33.0909 21.8727 32.2667 20.8545 32.2667ZM20.8545 34.9333C20.3696 34.9333 20.0302 34.5455 20.0302 34.0606C20.0302 33.5758 20.4181 33.1879 20.8545 33.1879C21.3393 33.1879 21.7272 33.5758 21.7272 34.0606C21.6787 34.5455 21.3393 34.9333 20.8545 34.9333Z" fill="#F29104"/>
<path d="M18.2363 26.1576H17.2666C16.9757 26.1576 16.7817 26.3515 16.7817 26.6424C16.7817 26.9334 16.9757 27.1273 17.2666 27.1273H18.2363C18.5272 27.1273 18.7211 26.9334 18.7211 26.6424C18.7211 26.3515 18.5272 26.1576 18.2363 26.1576Z" fill="#F29104"/>
<path d="M21.3393 26.1576H20.3696C20.0787 26.1576 19.8848 26.3515 19.8848 26.6424C19.8848 26.9334 20.0787 27.1273 20.3696 27.1273H21.3393C21.6302 27.1273 21.8242 26.9334 21.8242 26.6424C21.8242 26.3515 21.5817 26.1576 21.3393 26.1576Z" fill="#F29104"/>
<path d="M24.394 26.1576H23.4243C23.1334 26.1576 22.9395 26.3515 22.9395 26.6424C22.9395 26.9334 23.1334 27.1273 23.4243 27.1273H24.394C24.6849 27.1273 24.8788 26.9334 24.8788 26.6424C24.8788 26.3515 24.6849 26.1576 24.394 26.1576Z" fill="#F29104"/>
<path d="M20.6123 37.3091C20.3214 37.3091 20.1274 37.503 20.1274 37.7939V38.2788C20.1274 38.5697 20.3214 38.7636 20.6123 38.7636C20.9032 38.7636 21.0971 38.5697 21.0971 38.2788V37.7939C21.0971 37.5515 20.8547 37.3091 20.6123 37.3091Z" fill="#F29104"/>
<path d="M43.5455 25.5273H28.2243V13.9879C28.2243 13.2121 27.594 12.5333 26.7697 12.5333H14.9394C14.1637 12.5333 13.4849 13.1636 13.4849 13.9879V39.6364C13.4849 40.4121 14.1152 41.0909 14.9394 41.0909H26.8182C27.594 41.0909 28.2727 40.4606 28.2727 39.6364V38.8121H32.0546V40.5576L31.0364 42.7879C30.8909 43.1273 31.1333 43.4667 31.4727 43.4667H38.503C38.8909 43.4667 39.1334 43.0303 38.8909 42.6909L37.8727 40.5091V38.7636H43.5455C44.0788 38.7636 44.5152 38.3273 44.5152 37.7939V26.497C44.5152 25.9636 44.0788 25.5273 43.5455 25.5273ZM43.5455 34.9818H26.8182V26.497H43.5455V34.9818ZM23.4727 40.0727H18.2364V32.5576C18.2364 31.103 19.4 29.9394 20.8546 29.9394C22.3091 29.9394 23.4727 31.103 23.4727 32.5576V40.0727ZM27.2546 39.6364C27.2546 39.8788 27.0606 40.1212 26.7697 40.1212H24.394V32.5576C24.394 30.5697 22.794 28.9697 20.8061 28.9697C18.8182 28.9697 17.2182 30.5697 17.2182 32.5576V40.0727H14.9394C14.697 40.0727 14.4546 39.8788 14.4546 39.5879V13.9879C14.4546 13.7454 14.6485 13.503 14.9394 13.503H26.8182C27.0606 13.503 27.303 13.697 27.303 13.9879V25.5273H26.8667C26.3333 25.5273 25.897 25.9636 25.897 26.497V37.8424C25.897 38.3758 26.3333 38.8121 26.8667 38.8121H27.303V39.6364H27.2546ZM32.1515 42.497L32.7818 41.1394H37.0485L37.6788 42.497H32.1515ZM36.8546 40.1697H32.9758V38.8121H36.8546V40.1697ZM26.8182 37.8424V35.9515H43.5455V37.8424C37.6303 37.8424 32.9273 37.8424 26.8182 37.8424Z" fill="#F29104"/>
<path d="M29.7275 29.5515H31.1336C31.4245 29.5515 31.6184 29.3575 31.6184 29.0666C31.6184 28.7757 31.4245 28.5818 31.1336 28.5818H29.7275C29.4366 28.5818 29.2427 28.7757 29.2427 29.0666C29.2427 29.3091 29.4366 29.5515 29.7275 29.5515Z" fill="#F29104"/>
<path d="M34.479 29.5515H40.6366C40.9275 29.5515 41.1214 29.3575 41.1214 29.0666C41.1214 28.7757 40.9275 28.5818 40.6366 28.5818H34.479C34.1881 28.5818 33.9941 28.7757 33.9941 29.0666C33.9941 29.3091 34.1881 29.5515 34.479 29.5515Z" fill="#F29104"/>
<path d="M29.7275 32.8485H35.8851C36.176 32.8485 36.3699 32.6545 36.3699 32.3636C36.3699 32.0727 36.176 31.8788 35.8851 31.8788H29.7275C29.4366 31.8788 29.2427 32.0727 29.2427 32.3636C29.2427 32.6545 29.4366 32.8485 29.7275 32.8485Z" fill="#F29104"/>
<path d="M40.6365 31.8788H39.2305C38.9395 31.8788 38.7456 32.0727 38.7456 32.3636C38.7456 32.6545 38.9395 32.8485 39.2305 32.8485H40.6365C40.9274 32.8485 41.1214 32.6545 41.1214 32.3636C41.1214 32.1212 40.8789 31.8788 40.6365 31.8788Z" fill="#F29104"/>
</g>
<defs>
<clipPath id="clip0_199_149">
<rect width="32" height="32" fill="white" transform="translate(13 12)"/>
</clipPath>
</defs>
</svg>
