<svg width="32" height="32" viewBox="0 0 32 32" fill="none" xmlns="http://www.w3.org/2000/svg">
<g clip-path="url(#clip0_29_233)">
<path d="M3.34544 7.03035H12.3636C12.6545 7.03035 12.8485 6.83641 12.8485 6.54551V3.73338C12.8485 3.44247 12.6545 3.24854 12.3636 3.24854H3.34544C3.05454 3.24854 2.8606 3.44247 2.8606 3.73338V6.59399C2.8606 6.83641 3.05454 7.03035 3.34544 7.03035ZM3.83029 4.21823H11.8788V6.10914H3.83029V4.21823Z" fill="#F29104"/>
<path d="M12.8485 8.92125C12.8485 8.63034 12.6545 8.4364 12.3636 8.4364H3.34544C3.05454 8.4364 2.8606 8.63034 2.8606 8.92125V11.7819C2.8606 12.0728 3.05454 12.2667 3.34544 12.2667H12.3636C12.6545 12.2667 12.8485 12.0728 12.8485 11.7819V8.92125ZM11.8788 11.297H3.83029V9.4061H11.8788V11.297Z" fill="#F29104"/>
<path d="M7.85461 20.2666C6.83643 20.2666 6.06067 21.0908 6.06067 22.109C6.06067 23.1272 6.88491 23.9515 7.85461 23.9515C8.87279 23.9515 9.69703 23.1272 9.69703 22.109C9.64855 21.0908 8.87279 20.2666 7.85461 20.2666ZM7.85461 22.9333C7.36976 22.9333 7.03037 22.5454 7.03037 22.0605C7.03037 21.5757 7.41825 21.1878 7.85461 21.1878C8.33946 21.1878 8.72734 21.5757 8.72734 22.0605C8.67885 22.5454 8.33946 22.9333 7.85461 22.9333Z" fill="#F29104"/>
<path d="M5.23641 14.1576H4.26671C3.9758 14.1576 3.78186 14.3515 3.78186 14.6424C3.78186 14.9334 3.9758 15.1273 4.26671 15.1273H5.23641C5.52731 15.1273 5.72125 14.9334 5.72125 14.6424C5.72125 14.3515 5.52731 14.1576 5.23641 14.1576Z" fill="#F29104"/>
<path d="M8.33943 14.1576H7.36974C7.07883 14.1576 6.88489 14.3515 6.88489 14.6424C6.88489 14.9334 7.07883 15.1273 7.36974 15.1273H8.33943C8.63034 15.1273 8.82428 14.9334 8.82428 14.6424C8.82428 14.3515 8.58186 14.1576 8.33943 14.1576Z" fill="#F29104"/>
<path d="M11.394 14.1576H10.4243C10.1334 14.1576 9.93945 14.3515 9.93945 14.6424C9.93945 14.9334 10.1334 15.1273 10.4243 15.1273H11.394C11.6849 15.1273 11.8788 14.9334 11.8788 14.6424C11.8788 14.3515 11.6849 14.1576 11.394 14.1576Z" fill="#F29104"/>
<path d="M7.61217 25.3091C7.32126 25.3091 7.12732 25.503 7.12732 25.7939V26.2788C7.12732 26.5697 7.32126 26.7636 7.61217 26.7636C7.90308 26.7636 8.09702 26.5697 8.09702 26.2788V25.7939C8.09702 25.5515 7.85459 25.3091 7.61217 25.3091Z" fill="#F29104"/>
<path d="M30.5455 13.5273H15.2243V1.98787C15.2243 1.21211 14.594 0.533325 13.7697 0.533325H1.93941C1.16365 0.533325 0.484863 1.16363 0.484863 1.98787V27.6364C0.484863 28.4121 1.11517 29.0909 1.93941 29.0909H13.8182C14.594 29.0909 15.2727 28.4606 15.2727 27.6364V26.8121H19.0546V28.5576L18.0364 30.7879C17.8909 31.1273 18.1333 31.4667 18.4727 31.4667H25.503C25.8909 31.4667 26.1334 31.0303 25.8909 30.6909L24.8727 28.5091V26.7636H30.5455C31.0788 26.7636 31.5152 26.3273 31.5152 25.7939V14.497C31.5152 13.9636 31.0788 13.5273 30.5455 13.5273ZM30.5455 22.9818H13.8182V14.497H30.5455V22.9818ZM10.4727 28.0727H5.23638V20.5576C5.23638 19.103 6.40002 17.9394 7.85456 17.9394C9.30911 17.9394 10.4727 19.103 10.4727 20.5576V28.0727ZM14.2546 27.6364C14.2546 27.8788 14.0606 28.1212 13.7697 28.1212H11.394V20.5576C11.394 18.5697 9.79395 16.9697 7.80608 16.9697C5.8182 16.9697 4.2182 18.5697 4.2182 20.5576V28.0727H1.93941C1.69698 28.0727 1.45456 27.8788 1.45456 27.5879V1.98787C1.45456 1.74545 1.6485 1.50302 1.93941 1.50302H13.8182C14.0606 1.50302 14.303 1.69696 14.303 1.98787V13.5273H13.8667C13.3333 13.5273 12.897 13.9636 12.897 14.497V25.8424C12.897 26.3758 13.3333 26.8121 13.8667 26.8121H14.303V27.6364H14.2546ZM19.1515 30.497L19.7818 29.1394H24.0485L24.6788 30.497H19.1515ZM23.8546 28.1697H19.9758V26.8121H23.8546V28.1697ZM13.8182 25.8424V23.9515H30.5455V25.8424C24.6303 25.8424 19.9273 25.8424 13.8182 25.8424Z" fill="#F29104"/>
<path d="M16.7273 17.5515H18.1333C18.4243 17.5515 18.6182 17.3575 18.6182 17.0666C18.6182 16.7757 18.4243 16.5818 18.1333 16.5818H16.7273C16.4364 16.5818 16.2424 16.7757 16.2424 17.0666C16.2424 17.3091 16.4364 17.5515 16.7273 17.5515Z" fill="#F29104"/>
<path d="M21.4787 17.5515H27.6363C27.9272 17.5515 28.1212 17.3575 28.1212 17.0666C28.1212 16.7757 27.9272 16.5818 27.6363 16.5818H21.4787C21.1878 16.5818 20.9939 16.7757 20.9939 17.0666C20.9939 17.3091 21.1878 17.5515 21.4787 17.5515Z" fill="#F29104"/>
<path d="M16.7273 20.8485H22.8849C23.1758 20.8485 23.3697 20.6545 23.3697 20.3636C23.3697 20.0727 23.1758 19.8788 22.8849 19.8788H16.7273C16.4364 19.8788 16.2424 20.0727 16.2424 20.3636C16.2424 20.6545 16.4364 20.8485 16.7273 20.8485Z" fill="#F29104"/>
<path d="M27.6364 19.8788H26.2303C25.9394 19.8788 25.7455 20.0727 25.7455 20.3636C25.7455 20.6545 25.9394 20.8485 26.2303 20.8485H27.6364C27.9273 20.8485 28.1212 20.6545 28.1212 20.3636C28.1212 20.1212 27.8788 19.8788 27.6364 19.8788Z" fill="#F29104"/>
</g>
<defs>
<clipPath id="clip0_29_233">
<rect width="32" height="32" fill="white"/>
</clipPath>
</defs>
</svg>
