<svg width="58" height="58" viewBox="0 0 58 58" fill="none" xmlns="http://www.w3.org/2000/svg">
<circle cx="29" cy="29" r="28.5" fill="white" stroke="#E0ECF2"/>
<g clip-path="url(#clip0_199_152)">
<path d="M19.4822 19.2385C18.3892 19.2385 17.5 20.1275 17.5 21.22C17.5 22.3125 18.3892 23.2015 19.4822 23.2015C20.5761 23.2015 21.4661 22.3125 21.4661 21.22C21.4661 20.1275 20.5761 19.2385 19.4822 19.2385ZM19.4822 22.0197C19.0408 22.0197 18.6818 21.661 18.6818 21.22C18.6818 20.779 19.0408 20.4203 19.4822 20.4203C19.9245 20.4203 20.2844 20.7791 20.2844 21.22C20.2844 21.661 19.9245 22.0197 19.4822 22.0197Z" fill="#F29104"/>
<path d="M36.8145 19.2385H31.5745C30.4815 19.2385 29.5923 20.1275 29.5923 21.22C29.5923 22.3125 30.4815 23.2015 31.5745 23.2015H36.8145C37.9075 23.2015 38.7967 22.3125 38.7967 21.22C38.7967 20.1275 37.9075 19.2385 36.8145 19.2385ZM36.8145 22.0197H31.5745C31.1331 22.0197 30.7741 21.661 30.7741 21.22C30.7741 20.779 31.1332 20.4202 31.5745 20.4202H36.8145C37.2559 20.4202 37.6149 20.779 37.6149 21.22C37.6149 21.661 37.2559 22.0197 36.8145 22.0197Z" fill="#F29104"/>
<path d="M24.6194 19.2385C23.5264 19.2385 22.6372 20.1275 22.6372 21.22C22.6372 22.3125 23.5264 23.2015 24.6194 23.2015C25.7133 23.2015 26.6033 22.3125 26.6033 21.22C26.6033 20.1275 25.7133 19.2385 24.6194 19.2385ZM24.6194 22.0197C24.178 22.0197 23.819 21.661 23.819 21.22C23.819 20.779 24.1781 20.4202 24.6194 20.4202C25.0617 20.4202 25.4216 20.779 25.4216 21.22C25.4216 21.661 25.0617 22.0197 24.6194 22.0197Z" fill="#F29104"/>
<path d="M23.6559 29.0338C23.3387 28.9578 23.0197 29.1537 22.9439 29.4712L21.7717 34.3765C21.6959 34.6939 21.8916 35.0127 22.209 35.0886C22.2552 35.0996 22.3014 35.1049 22.3469 35.1049C22.614 35.1049 22.8563 34.9224 22.9211 34.6512L24.0933 29.7459C24.1692 29.4285 23.9733 29.1097 23.6559 29.0338Z" fill="#F29104"/>
<path d="M25.8249 34.5121C25.9375 34.6124 26.0779 34.6617 26.2177 34.6617C26.3804 34.6617 26.5424 34.5949 26.6592 34.4638L28.3161 32.6038C28.5895 32.2995 28.5895 31.8229 28.3178 31.5205L26.6591 29.6586C26.442 29.4148 26.0684 29.3934 25.8249 29.6103C25.5811 29.8274 25.5596 30.201 25.7766 30.4446L27.2167 32.0611L25.7766 33.6777C25.5596 33.9215 25.5812 34.295 25.8249 34.5121Z" fill="#F29104"/>
<path d="M20.0398 29.6104C19.7961 29.3934 19.4226 29.4151 19.2055 29.6587L17.5488 31.5185C17.2751 31.8229 17.2751 32.2997 17.5469 32.602L19.2056 34.4639C19.3224 34.5951 19.4843 34.6618 19.6471 34.6618C19.7869 34.6618 19.9274 34.6125 20.0399 34.5122C20.2837 34.2951 20.3052 33.9215 20.0881 33.6779L18.6481 32.0614L20.0881 30.4448C20.3051 30.201 20.2836 29.8275 20.0398 29.6104Z" fill="#F29104"/>
<path d="M42.6753 35.8944H42.4559C42.341 35.5223 42.1921 35.163 42.0105 34.8196L42.167 34.6625C42.417 34.414 42.555 34.0822 42.5555 33.7282C42.5561 33.3733 42.4186 33.0402 42.1682 32.7899L41.8632 32.485V19.8991C41.8632 18.1367 40.6195 16.7029 39.0907 16.7029H16.7725C15.2437 16.7029 14 18.1367 14 19.8991V36.4139C14 38.1764 15.2437 39.6102 16.7725 39.6102H20.2393C20.5656 39.6102 20.8302 39.3456 20.8302 39.0193C20.8302 38.693 20.5656 38.4284 20.2393 38.4284H16.7725C15.9103 38.4284 15.1818 37.5059 15.1818 36.414V25.694H40.6814V31.665C40.614 31.6547 40.5458 31.6479 40.4764 31.6479C40.4757 31.6479 40.475 31.6479 40.4744 31.6479C40.1203 31.6484 39.7885 31.7863 39.542 32.0342L39.3822 32.1932C39.0317 32.008 38.6666 31.8573 38.2901 31.7423V31.5318C38.2901 30.8015 37.6958 30.2074 36.9654 30.2074H35.8961C35.1665 30.2074 34.573 30.8015 34.573 31.5318V31.7567C34.2037 31.8728 33.847 32.0222 33.5061 32.2036L33.353 32.051C33.1045 31.8012 32.7726 31.6633 32.4186 31.6627C32.4179 31.6627 32.4173 31.6627 32.4166 31.6627C32.0625 31.6627 31.7301 31.8001 31.4803 32.0498L30.7248 32.8049C30.4745 33.055 30.337 33.3883 30.3375 33.7431C30.338 34.0971 30.476 34.4289 30.7241 34.6755L30.8873 34.8391C30.7102 35.1772 30.5647 35.5299 30.4521 35.8943H30.2277C29.4981 35.8943 28.9046 36.4876 28.9046 37.217V38.2874C28.9046 38.3349 28.9072 38.3819 28.9122 38.4282H25.4742C25.1479 38.4282 24.8833 38.6928 24.8833 39.0191C24.8833 39.3454 25.1479 39.6099 25.4742 39.6099H30.2277H30.4544C30.5686 39.9778 30.7163 40.3333 30.8965 40.6736L30.7368 40.8326C30.2228 41.3494 30.2233 42.1884 30.7381 42.7028L31.4939 43.4584C31.7425 43.7082 32.0744 43.8461 32.4284 43.8466H32.4303C32.7845 43.8466 33.1169 43.7092 33.3667 43.4595L33.525 43.3014C33.8683 43.4824 34.2253 43.6303 34.5928 43.7439V43.9726C34.5928 44.7029 35.1863 45.297 35.9159 45.297H36.9869C37.7164 45.297 38.3099 44.7029 38.3099 43.9726V43.7453C38.6809 43.6309 39.0393 43.4824 39.3823 43.3013L39.5398 43.4583C39.7883 43.7082 40.1202 43.846 40.4742 43.8466H40.4762C40.8303 43.8466 41.1628 43.7092 41.413 43.4591L42.1668 42.704C42.4169 42.4555 42.5548 42.1237 42.5554 41.7697C42.5559 41.4149 42.4184 41.0817 42.168 40.8314L42.0103 40.6738C42.1902 40.3332 42.3378 39.9775 42.4518 39.61H42.6751C43.4056 39.61 43.9999 39.0167 43.9999 38.2874V37.217C44 36.4878 43.4057 35.8944 42.6753 35.8944ZM15.1818 24.5123V19.8991C15.1818 18.8072 15.9103 17.8847 16.7725 17.8847H39.0907C39.9529 17.8847 40.6814 18.8072 40.6814 19.8991V24.5123H15.1818V24.5123ZM42.8182 38.2875C42.8182 38.3625 42.7514 38.4283 42.6752 38.4283H41.9995C41.724 38.4283 41.485 38.6187 41.4235 38.8872C41.2959 39.4442 41.0767 39.9723 40.772 40.4572C40.6252 40.6907 40.6595 40.9947 40.8546 41.1896L41.3327 41.6674C41.3684 41.7032 41.3737 41.7458 41.3737 41.7681C41.3737 41.7947 41.3667 41.8333 41.3322 41.8675L40.5773 42.6238C40.5415 42.6596 40.4988 42.6649 40.4763 42.6649C40.4762 42.6649 40.4762 42.6649 40.4762 42.6649C40.4493 42.6649 40.4106 42.658 40.376 42.6231L39.8961 42.1452C39.7009 41.9509 39.3975 41.9172 39.1645 42.0637C38.6789 42.3691 38.1485 42.5887 37.588 42.7162C37.3191 42.7775 37.1282 43.0166 37.1282 43.2924V43.9728C37.1282 44.0487 37.0622 44.1154 36.987 44.1154H35.9161C35.8408 44.1154 35.7747 44.0488 35.7747 43.9728V43.2907C35.7747 43.0146 35.5835 42.7753 35.3142 42.7144C34.7608 42.5892 34.2313 42.37 33.7406 42.063C33.644 42.0025 33.5353 41.973 33.4273 41.973C33.2747 41.973 33.1234 42.032 33.0095 42.146L32.5314 42.6238C32.4956 42.6596 32.4529 42.6649 32.4304 42.6649C32.4303 42.6649 32.4303 42.6649 32.4302 42.6649C32.4034 42.6649 32.3646 42.658 32.3307 42.6239L31.5736 41.8671C31.5206 41.8142 31.5212 41.7203 31.5729 41.6683L32.0527 41.1904C32.2488 40.9951 32.2831 40.6901 32.1354 40.4562C31.8301 39.9729 31.6106 39.4451 31.4829 38.8874C31.4214 38.6189 31.1824 38.4284 30.9069 38.4284H30.2278C30.1512 38.4284 30.0864 38.3639 30.0864 38.2876V37.2173C30.0864 37.1409 30.1512 37.0763 30.2278 37.0763H30.9052C31.181 37.0763 31.4202 36.8855 31.4814 36.6166C31.6075 36.0625 31.8242 35.5368 32.1254 35.0541C32.2708 34.8211 32.2365 34.5186 32.0425 34.3241L31.5591 33.8393C31.5263 33.8067 31.5194 33.7681 31.5193 33.7415C31.5193 33.7192 31.5246 33.6766 31.5603 33.6409L32.3157 32.8858C32.3515 32.8501 32.3942 32.8447 32.4167 32.8447H32.4169C32.4437 32.8448 32.4825 32.8517 32.5171 32.8865L32.9936 33.3611C33.1893 33.5561 33.4938 33.5895 33.7269 33.4416C34.2097 33.1355 34.7386 32.9138 35.2986 32.7827C35.5658 32.7202 35.7547 32.4818 35.7547 32.2074V31.532C35.7547 31.4547 35.8194 31.3894 35.896 31.3894H36.9653C37.0428 31.3894 37.1083 31.4547 37.1083 31.532V32.1974C37.1083 32.4743 37.3005 32.714 37.5708 32.7741C38.133 32.8994 38.6694 33.1205 39.165 33.4315C39.3979 33.5775 39.701 33.5437 39.896 33.3495L40.3779 32.8697C40.4105 32.8368 40.4493 32.8299 40.4761 32.8298H40.4762C40.4987 32.8298 40.5414 32.8352 40.5772 32.8709L41.3326 33.6259C41.3684 33.6617 41.3737 33.7043 41.3737 33.7266C41.3736 33.7532 41.3667 33.7918 41.3319 33.8263L40.8537 34.3059C40.659 34.5012 40.6253 34.8052 40.7724 35.0384C41.0783 35.5234 41.2984 36.0545 41.4266 36.6168C41.4879 36.8857 41.727 37.0764 42.0028 37.0764H42.6752C42.7514 37.0764 42.8182 37.1423 42.8182 37.2173V38.2875Z" fill="#F29104"/>
<path d="M36.4523 34.1437C34.4612 34.1437 32.8413 35.7629 32.8413 37.7531C32.8413 39.7424 34.4612 41.3609 36.4523 41.3609C38.4426 41.3609 40.0617 39.7425 40.0617 37.7531C40.0617 35.7629 38.4426 34.1437 36.4523 34.1437ZM36.4523 40.1791C35.1129 40.1791 34.0231 39.0908 34.0231 37.7531C34.0231 36.4145 35.1129 35.3255 36.4523 35.3255C37.7909 35.3255 38.8799 36.4145 38.8799 37.7531C38.8799 39.0908 37.7908 40.1791 36.4523 40.1791Z" fill="#F29104"/>
<path d="M22.8744 38.4283H22.8628C22.5365 38.4283 22.272 38.6929 22.272 39.0192C22.272 39.3455 22.5365 39.6101 22.8628 39.6101H22.8744C23.2007 39.6101 23.4653 39.3455 23.4653 39.0192C23.4653 38.6929 23.2007 38.4283 22.8744 38.4283Z" fill="#F29104"/>
</g>
<defs>
<clipPath id="clip0_199_152">
<rect width="30" height="30" fill="white" transform="translate(14 16)"/>
</clipPath>
</defs>
</svg>
