<svg width="58" height="58" viewBox="0 0 58 58" fill="none" xmlns="http://www.w3.org/2000/svg">
<circle cx="29" cy="29" r="28.5" fill="white" stroke="#E0ECF2"/>
<g clip-path="url(#clip0_199_151)">
<path d="M43.795 31.913C43.687 31.737 43.4992 31.6319 43.2927 31.6319H43.188L38.9536 22.303H39.9449C40.6094 22.303 41.1499 21.7624 41.1499 21.0979C41.1499 20.4335 40.6094 19.8929 39.9449 19.8929H30.3039V18.3062C30.9347 17.8841 31.351 17.1653 31.351 16.351C31.351 15.0547 30.2963 14 29 14C27.7036 14 26.649 15.0547 26.649 16.351C26.649 17.1653 27.0652 17.8841 27.696 18.3062V19.8928H18.055C17.3905 19.8928 16.8499 20.4334 16.8499 21.0979C16.8499 21.7623 17.3905 22.3029 18.055 22.3029H19.0463L14.8119 31.6318H14.7072C14.5007 31.6318 14.3129 31.7369 14.2048 31.913C14.0968 32.089 14.0881 32.3041 14.1817 32.4883L14.947 33.9947C15.2434 34.578 15.8339 34.9404 16.4882 34.9404H23.2595C23.9138 34.9404 24.5043 34.5781 24.8007 33.9947L25.566 32.4885C25.6596 32.3043 25.651 32.0893 25.543 31.9131C25.435 31.7371 25.2471 31.6319 25.0405 31.6319H24.9359L20.7015 22.303H27.696V38.7478H24.5163C23.7357 38.7478 23.1006 39.3829 23.1006 40.1635V40.933H22.3965C21.6159 40.933 20.9809 41.568 20.9809 42.3485V43.559C20.9809 43.8025 21.1783 44 21.4219 44H36.578C36.8216 44 37.019 43.8026 37.019 43.559V42.3485C37.019 41.568 36.3839 40.933 35.6033 40.933H34.8992V40.1635C34.8992 39.3829 34.2642 38.7478 33.4836 38.7478H30.3039V26.0136C30.3039 25.7701 30.1065 25.5726 29.8629 25.5726C29.6194 25.5726 29.422 25.77 29.422 26.0136V38.7478H28.5778V21.862C28.5778 21.6185 28.3804 21.421 28.1368 21.421H18.055C17.8768 21.421 17.7318 21.276 17.7318 21.0979C17.7318 20.9197 17.8768 20.7747 18.055 20.7747H28.1369C28.3805 20.7747 28.5779 20.5773 28.5779 20.3337V18.6645C28.5943 18.6675 28.611 18.6697 28.6275 18.6723C28.636 18.6737 28.6444 18.6751 28.6527 18.6763C28.681 18.6805 28.7095 18.684 28.7381 18.6872C28.7486 18.6884 28.7591 18.6897 28.7697 18.6907C28.7966 18.6933 28.8235 18.6952 28.8505 18.6969C28.8623 18.6976 28.8741 18.6987 28.886 18.6992C28.9196 18.7008 28.9532 18.7016 28.9868 18.7018C28.9912 18.7018 28.9955 18.7021 28.9999 18.7021C29.0043 18.7021 29.0086 18.7018 29.013 18.7018C29.0466 18.7016 29.0802 18.7009 29.1138 18.6992C29.1257 18.6986 29.1375 18.6976 29.1493 18.6969C29.1763 18.6952 29.2032 18.6933 29.2301 18.6907C29.2407 18.6897 29.2512 18.6884 29.2618 18.6872C29.2904 18.684 29.3188 18.6805 29.3471 18.6764C29.3555 18.6751 29.3639 18.6737 29.3723 18.6724C29.3888 18.6697 29.4055 18.6675 29.422 18.6645V20.3338C29.422 20.5773 29.6194 20.7748 29.8629 20.7748H39.9448C40.123 20.7748 40.268 20.9197 40.268 21.0979C40.268 21.2761 40.123 21.4211 39.9448 21.4211H29.863C29.6194 21.4211 29.422 21.6185 29.422 21.862V23.9232C29.422 24.1668 29.6194 24.3642 29.863 24.3642C30.1066 24.3642 30.304 24.1668 30.304 23.9232V22.303H37.2985L33.064 31.6318H32.9594C32.7528 31.6318 32.565 31.737 32.4569 31.9131C32.3489 32.0892 32.3403 32.3043 32.4339 32.4883L33.1993 33.9947C33.4956 34.578 34.0861 34.9404 34.7404 34.9404H41.5117C42.166 34.9404 42.7565 34.5781 43.0529 33.9947L43.8183 32.4883C43.9118 32.3041 43.9031 32.089 43.795 31.913ZM33.4837 39.6297C33.7779 39.6297 34.0173 39.8692 34.0173 40.1634V40.9329H27.2702C27.0266 40.9329 26.8292 41.1303 26.8292 41.3739C26.8292 41.6174 27.0266 41.8149 27.2702 41.8149H35.6033C35.8976 41.8149 36.137 42.0543 36.137 42.3485V43.118H21.8628V42.3485C21.8628 42.0543 22.1023 41.8149 22.3965 41.8149H25.2236C25.4672 41.8149 25.6646 41.6175 25.6646 41.3739C25.6646 41.1304 25.4672 40.9329 25.2236 40.9329H23.9825V40.1634C23.9825 39.8691 24.2219 39.6297 24.5162 39.6297H33.4837ZM24.0144 33.5953C23.8693 33.881 23.58 34.0585 23.2595 34.0585H16.4883C16.1678 34.0585 15.8785 33.881 15.7334 33.5953L15.1839 32.5138H24.5639L24.0144 33.5953ZM23.9727 31.6318H15.7751L19.8739 22.6017L23.9727 31.6318ZM29.6516 17.6673C29.6355 17.6752 29.6193 17.6828 29.6031 17.6902C29.5948 17.6939 29.5866 17.6978 29.5782 17.7014C29.5598 17.7093 29.5413 17.7167 29.5226 17.7238C29.5083 17.7293 29.4938 17.7345 29.4793 17.7395C29.464 17.7448 29.4487 17.7502 29.4332 17.755C29.4191 17.7593 29.4048 17.7632 29.3906 17.7671C29.3798 17.7701 29.369 17.7731 29.3581 17.7759C29.3434 17.7796 29.3286 17.7829 29.3137 17.7862C29.3028 17.7885 29.2919 17.7909 29.281 17.793C29.2664 17.7958 29.2518 17.7984 29.237 17.8009C29.2249 17.8028 29.2127 17.8045 29.2005 17.8062C29.1869 17.8081 29.1733 17.8099 29.1596 17.8114C29.1445 17.813 29.1291 17.8142 29.1138 17.8154C29.1028 17.8163 29.0918 17.8173 29.0808 17.8179C29.054 17.8194 29.0271 17.8202 29 17.8202C28.973 17.8202 28.946 17.8194 28.9192 17.8179C28.9081 17.8173 28.8972 17.8163 28.8862 17.8154C28.8709 17.8142 28.8556 17.813 28.8404 17.8114C28.8267 17.8099 28.8131 17.8081 28.7995 17.8062C28.7873 17.8045 28.7751 17.8028 28.763 17.8009C28.7483 17.7984 28.7337 17.7958 28.7191 17.793C28.7081 17.7909 28.6972 17.7885 28.6864 17.7862C28.6715 17.783 28.6566 17.7796 28.6419 17.7759C28.6311 17.7731 28.6203 17.7701 28.6094 17.7671C28.5952 17.7632 28.5809 17.7593 28.5668 17.755C28.5514 17.7502 28.5361 17.7448 28.5207 17.7395C28.5062 17.7345 28.4917 17.7293 28.4774 17.7238C28.4588 17.7167 28.4402 17.7093 28.4218 17.7014C28.4134 17.6978 28.4052 17.6939 28.397 17.6902C28.3807 17.6828 28.3645 17.6753 28.3485 17.6673C27.8645 17.4267 27.531 16.9272 27.531 16.351C27.531 15.541 28.19 14.8819 29.0001 14.8819C29.8102 14.8819 30.4692 15.541 30.4692 16.351C30.4691 16.9272 30.1356 17.4267 29.6516 17.6673ZM38.126 22.6017L42.2248 31.6318H34.0272L38.126 22.6017ZM42.2666 33.5953C42.1214 33.881 41.8321 34.0585 41.5116 34.0585H34.7404C34.4199 34.0585 34.1306 33.881 33.9855 33.5953L33.436 32.5138H42.816L42.2666 33.5953Z" fill="#F29104"/>
</g>
<defs>
<clipPath id="clip0_199_151">
<rect width="30" height="30" fill="white" transform="translate(14 14)"/>
</clipPath>
</defs>
</svg>
