<svg width="58" height="58" viewBox="0 0 58 58" fill="none" xmlns="http://www.w3.org/2000/svg">
<circle cx="29" cy="29" r="28.5" fill="#1A172F" stroke="#614454"/>
<g clip-path="url(#clip0_65_394)">
<path d="M30.1404 40.5583H29.8228C29.9355 40.3385 29.9996 40.0897 29.9996 39.8261C29.9996 38.9379 29.277 38.2154 28.3888 38.2154H17.3659C16.4777 38.2154 15.7552 38.9379 15.7552 39.8261C15.7552 40.0897 15.8192 40.3385 15.9319 40.5583H15.6143C14.7261 40.5583 14.0035 41.2808 14.0035 42.169C14.0035 43.0572 14.7261 43.7798 15.6143 43.7798H30.1404C31.0286 43.7798 31.7511 43.0572 31.7511 42.169C31.7511 41.2808 31.0286 40.5583 30.1404 40.5583ZM30.1404 42.9012H15.6143C15.2106 42.9012 14.8821 42.5728 14.8821 42.169C14.8821 41.7653 15.2106 41.4369 15.6143 41.4369H18.3193C18.8873 41.4369 18.8873 40.5583 18.3193 40.5583H17.3659C16.9622 40.5583 16.6338 40.2299 16.6338 39.8261C16.6338 39.4224 16.9622 39.094 17.3659 39.094H28.3888C28.7926 39.094 29.121 39.4224 29.121 39.8261C29.121 40.2299 28.7926 40.5583 28.3888 40.5583H20.6615C20.0935 40.5583 20.0935 41.4369 20.6615 41.4369H30.1404C30.5441 41.4369 30.8725 41.7653 30.8725 42.169C30.8725 42.5728 30.5441 42.9012 30.1404 42.9012Z" fill="#F29104"/>
<path d="M43.4425 32.6695L35.5657 24.7927C36.0551 23.9748 35.9032 22.9017 35.2155 22.245L36.1403 21.3203C37.4617 22.7751 39.7503 20.706 38.325 19.2805L35.3444 16.3002C34.9428 15.8985 34.3215 16.5198 34.7232 16.9214L37.7036 19.9018C38.272 20.4702 37.3906 21.3281 36.8339 20.7715L31.7813 15.7188C31.2129 15.1505 32.0943 14.2925 32.6509 14.8491L33.1244 15.3226C33.526 15.7242 34.1473 15.1029 33.7456 14.7014L33.2722 14.2279C31.8583 12.814 29.7669 15.0794 31.2325 16.4126L24.5279 23.1171C23.2064 21.6643 20.9162 23.73 22.3432 25.1569L27.3958 30.2096C28.808 31.6216 30.9038 29.3585 29.4355 28.0249L30.3603 27.1001C31.0168 27.7883 32.0912 27.9423 32.9086 27.451L40.7847 35.3272C42.4995 37.042 45.1573 34.3842 43.4425 32.6695ZM28.8868 29.5883C28.647 29.8282 28.2569 29.8281 28.0171 29.5883L22.9644 24.5356C22.4031 23.9743 23.2734 23.1053 23.8341 23.6659L28.8868 28.7186C29.1242 28.9559 29.124 29.3511 28.8868 29.5883ZM28.8144 27.4037L25.1492 23.7384L31.8537 17.0339L35.5189 20.6991L28.8144 27.4037ZM32.6843 26.5191C32.2085 26.9949 31.4431 26.9431 30.9833 26.4806L34.5959 22.868C35.0569 23.3304 35.1155 24.0879 34.6344 24.569L32.6843 26.5191ZM42.8212 34.7059C42.4351 35.0919 41.7921 35.0919 41.406 34.7059L33.573 26.8729L34.9882 25.4577L42.8212 33.2907C43.2073 33.6768 43.2073 34.3198 42.8212 34.7059Z" fill="#F29104"/>
<path d="M17.1393 34.6921L19.687 36.4159C20.1436 36.7248 20.6486 36.0056 20.1794 35.6882L17.6316 33.9644C17.1612 33.6461 16.6688 34.3738 17.1393 34.6921Z" fill="#F29104"/>
<path d="M25.9413 36.4914C26.026 36.4914 26.1117 36.467 26.1871 36.4159L28.7349 34.6921C29.2053 34.3738 28.7129 33.6461 28.2425 33.9644L25.6947 35.6882C25.3314 35.9341 25.534 36.4914 25.9413 36.4914Z" fill="#F29104"/>
<path d="M23.3764 34.1448V31.2159C23.3764 30.6479 22.4978 30.6479 22.4978 31.2159V34.1448C22.4978 34.7128 23.3764 34.7128 23.3764 34.1448Z" fill="#F29104"/>
</g>
<defs>
<clipPath id="clip0_65_394">
<rect width="30" height="30" fill="white" transform="translate(14 13.7798)"/>
</clipPath>
</defs>
</svg>
