<svg width="58" height="58" viewBox="0 0 58 58" fill="none" xmlns="http://www.w3.org/2000/svg">
<circle cx="29" cy="29" r="28.5" fill="#1A172F" stroke="#614454"/>
<g clip-path="url(#clip0_65_226)">
<path d="M25.4785 40.432C25.4785 40.708 25.2592 40.9342 24.9832 40.9342C24.7072 40.9342 24.481 40.708 24.481 40.432V34.142C24.481 33.7177 24.6647 33.3355 24.962 33.0597C25.2522 32.791 25.6415 32.6282 26.073 32.6282H31.924C32.3555 32.6282 32.7517 32.7907 33.0345 33.0597C33.3315 33.3357 33.516 33.7177 33.516 34.142V40.432C33.516 40.708 33.2965 40.9342 33.0205 40.9342C32.7445 40.9342 32.5182 40.708 32.5182 40.432V34.142C32.5182 34.0077 32.4615 33.8802 32.3625 33.7885C32.2495 33.6895 32.1007 33.6257 31.924 33.6257H29.497V40.4322C29.497 40.7082 29.278 40.9345 29.002 40.9345C28.7262 40.9345 28.4997 40.7082 28.4997 40.4322V33.6255H26.073C25.9032 33.6255 25.7545 33.6895 25.6415 33.7882C25.5425 33.88 25.4787 34.0075 25.4787 34.1417V40.432H25.4785Z" fill="#F29104"/>
<path d="M24.0707 25.921H27.3392C27.6152 25.921 27.8344 26.1405 27.8344 26.4163V29.4588C27.8344 29.7348 27.6152 29.9535 27.3392 29.9535H24.0707C23.7947 29.9535 23.5754 29.7345 23.5754 29.4588V26.4163C23.5752 26.1405 23.7947 25.921 24.0707 25.921ZM24.0707 19.8718H27.3392C27.6152 19.8718 27.8344 20.0913 27.8344 20.367V23.4093C27.8344 23.6853 27.6152 23.9045 27.3392 23.9045H24.0707C23.7947 23.9045 23.5754 23.685 23.5754 23.4093V20.3673C23.5752 20.0913 23.7947 19.8718 24.0707 19.8718ZM26.8369 20.8698H24.5729V22.907H26.8369V20.8698ZM32.2987 22.907C32.5747 22.907 32.7937 23.1335 32.7937 23.4095C32.7937 23.6855 32.5744 23.9048 32.2987 23.9048H30.6644C30.3884 23.9048 30.1619 23.6853 30.1619 23.4095V20.3673C30.1619 20.0913 30.3882 19.872 30.6644 19.872C30.9404 19.872 31.1597 20.0915 31.1597 20.3673V22.907H32.2987ZM30.6644 25.921H33.9259C34.2019 25.921 34.4282 26.1405 34.4282 26.4163V29.4588C34.4282 29.7348 34.2019 29.9535 33.9259 29.9535H30.6644C30.3884 29.9535 30.1619 29.7345 30.1619 29.4588V26.4163C30.1619 26.1405 30.3884 25.921 30.6644 25.921ZM33.4309 26.9188H31.1599V28.9563H33.4309V26.9188ZM26.8369 26.9188H24.5729V28.9563H26.8369V26.9188Z" fill="#F29104"/>
<path d="M37.4067 26.3245C37.2654 26.558 36.9614 26.6427 36.7277 26.5013C36.6497 26.4517 36.5862 26.3883 36.5437 26.3175L32.2562 19.0513C32.0367 18.6763 31.8529 18.1953 31.7399 17.7708C31.6264 17.332 31.5699 16.8795 31.5699 16.4123C31.5699 14.9193 32.1714 13.5682 33.1547 12.5845C34.1312 11.6085 35.4824 11 36.9824 11C38.4752 11 39.8264 11.6085 40.8099 12.5848C41.7862 13.5685 42.3949 14.9195 42.3949 16.4125C42.3949 16.8795 42.3312 17.3323 42.2182 17.771C42.1047 18.224 41.9277 18.6483 41.7087 19.0445L37.4067 26.3245ZM36.9824 25.0933L40.8452 18.5487C41.0222 18.2305 41.1637 17.8837 41.2557 17.523C41.3474 17.169 41.3969 16.8012 41.3969 16.4123C41.3969 15.1953 40.9022 14.0917 40.1024 13.2922C39.3029 12.493 38.1992 11.9975 36.9824 11.9975C35.7584 11.9975 34.6547 12.4927 33.8554 13.2922C33.0627 14.0917 32.5677 15.1953 32.5677 16.4123C32.5677 16.8015 32.6169 17.169 32.7022 17.523C32.7939 17.8765 32.9354 18.2162 33.1052 18.5345L36.9824 25.0933Z" fill="#F29104"/>
<path d="M36.9824 13.5258C37.7749 13.5258 38.4964 13.8515 39.0197 14.3748C39.5434 14.8913 39.8689 15.6128 39.8689 16.4123C39.8689 17.2115 39.5432 17.9335 39.0197 18.457C38.4962 18.9735 37.7749 19.2988 36.9824 19.2988C36.1829 19.2988 35.4612 18.9735 34.9377 18.457C34.4142 17.9335 34.0959 17.2118 34.0959 16.4123C34.0959 15.6128 34.4142 14.8913 34.9377 14.3748C35.4612 13.8513 36.1827 13.5258 36.9824 13.5258ZM38.3124 15.0753C37.9727 14.7358 37.4989 14.5235 36.9824 14.5235C36.4589 14.5235 35.9847 14.7358 35.6452 15.0753C35.3054 15.422 35.0934 15.8888 35.0934 16.4125C35.0934 16.936 35.3054 17.41 35.6452 17.7498C35.9844 18.0893 36.4589 18.3015 36.9824 18.3015C37.4989 18.3015 37.9727 18.0893 38.3124 17.7498C38.6589 17.4103 38.8712 16.936 38.8712 16.4125C38.8712 15.8888 38.6589 15.422 38.3124 15.0753Z" fill="#F29104"/>
<path d="M39.2884 35.3025C39.0124 35.3025 38.7937 35.0762 38.7937 34.8002C38.7937 34.5242 39.0127 34.3047 39.2884 34.3047H41.0997C41.7224 34.3047 42.2744 34.6657 42.5149 35.2387L44.8567 40.9412C44.9557 41.1817 44.9909 41.4225 44.9627 41.663C44.9132 42.1512 44.5874 42.6037 44.1559 42.8302C43.9367 42.9435 43.6962 43.0002 43.4417 43.0002H14.5619C14.3072 43.0002 14.0667 42.9435 13.8474 42.8302C13.4087 42.6037 13.0904 42.1512 13.0339 41.663C13.0127 41.4225 13.0479 41.1817 13.1399 40.9412L15.4889 35.2387C15.7294 34.6657 16.2812 34.3047 16.9039 34.3047H18.7009C18.9769 34.3047 19.1962 34.5245 19.1962 34.8002C19.1962 35.076 18.9769 35.3025 18.7009 35.3025H16.9039C16.6847 35.3025 16.4934 35.4085 16.4087 35.6207L14.0669 41.323C14.0314 41.4012 14.0174 41.4787 14.0244 41.5567C14.0457 41.7195 14.1589 41.868 14.3004 41.946C14.3782 41.9815 14.4629 42.0027 14.5622 42.0027H43.4422C43.5412 42.0027 43.6259 41.9815 43.6969 41.946C43.8457 41.868 43.9587 41.7197 43.9729 41.5567C43.9799 41.4787 43.9729 41.4012 43.9374 41.323L41.5957 35.6207C41.5107 35.4082 41.3197 35.3025 41.1004 35.3025H39.2884Z" fill="#F29104"/>
<path d="M36.4803 28.468C36.4803 28.192 36.7065 27.9655 36.9825 27.9655C37.2585 27.9655 37.4778 28.192 37.4778 28.468V40.4317C37.4778 40.7077 37.2583 40.934 36.9825 40.934H21.0213C20.7453 40.934 20.526 40.7077 20.526 40.4317V18.5632C20.526 18.1387 20.71 17.7565 21.0073 17.4807C21.2903 17.2117 21.6865 17.042 22.118 17.042H29.9923C30.2683 17.042 30.4875 17.2682 30.4875 17.5445C30.4875 17.8205 30.268 18.0467 29.9923 18.0467H22.118C21.941 18.0467 21.7925 18.1035 21.6795 18.2095C21.5805 18.3012 21.5238 18.4287 21.5238 18.5632V39.9362H36.4805V28.468H36.4803Z" fill="#F29104"/>
</g>
<defs>
<clipPath id="clip0_65_226">
<rect width="32" height="32" fill="white" transform="translate(13 11)"/>
</clipPath>
</defs>
</svg>
