<svg width="58" height="58" viewBox="0 0 58 58" fill="none" xmlns="http://www.w3.org/2000/svg">
<circle cx="29" cy="29" r="28.5" fill="white" stroke="#E0ECF2"/>
<g clip-path="url(#clip0_199_148)">
<path d="M41.0808 12H39.576C38.9145 12 38.9145 13.0255 39.576 13.0255H41.0808C42.6348 13.0255 43.8992 14.2853 43.8992 15.8337V27.7007C43.8992 29.2492 42.6349 30.509 41.0808 30.509H39.3741C39.2615 30.509 39.152 30.5461 39.0625 30.6145L35.9308 33.01V31.0218C35.9308 30.7386 35.7013 30.509 35.418 30.509H29.1773C28.6662 30.509 28.1751 30.3741 27.7419 30.1176V24.3615C27.7419 23.2833 27.1927 22.3307 26.3588 21.7672V15.8337C26.3588 14.2853 27.6232 13.0255 29.1773 13.0255H36.3626C37.024 13.0255 37.024 12 36.3626 12H29.1773C27.0577 12 25.3333 13.7198 25.3333 15.8337V21.3165C25.0985 21.2604 24.8539 21.2299 24.6022 21.2299H15.2153C13.4842 21.2299 12.0757 22.6347 12.0757 24.3615V25.4687C12.0757 26.1301 13.1012 26.1301 13.1012 25.4687V24.3615C13.1012 23.2002 14.0496 22.2554 15.2153 22.2554H24.6022C25.768 22.2554 26.7164 23.2002 26.7164 24.3615V30.3218C26.7103 30.3671 26.7105 30.4127 26.7164 30.4576V33.7196C26.7164 33.7841 26.7125 33.8483 26.7067 33.9121H25.6492C24.484 33.9121 23.5126 34.7532 23.3112 35.8585C23.2646 35.8761 23.2198 35.9006 23.1783 35.9326L20.8849 37.7034V36.3385C20.8849 36.0553 20.6553 35.8257 20.3721 35.8257H15.2153C14.0496 35.8257 13.1012 34.8809 13.1012 33.7196V28.5454C13.1012 27.884 12.0757 27.884 12.0757 28.5454V33.7197C12.0757 35.4465 13.4842 36.8513 15.2153 36.8513H19.8594V38.7472C19.8594 39.1585 20.3588 39.4053 20.6856 39.1531L23.2723 37.1559V42.9245C23.2723 44.2321 24.3387 45.2958 25.6493 45.2958H28.796V46.4923C28.796 46.9035 29.2954 47.1505 29.6221 46.8982L31.6975 45.2958H32.3107C33.6213 45.2958 34.6877 44.232 34.6877 42.9245V42.0141C34.6877 41.3527 33.6621 41.3527 33.6621 42.0141V42.9245C33.6621 43.6666 33.0559 44.2702 32.3107 44.2702H31.5226C31.4091 44.2702 31.2989 44.3078 31.2092 44.3771L29.8215 45.4485V44.7829C29.8215 44.4997 29.592 44.2702 29.3087 44.2702H25.6492C24.9041 44.2702 24.2978 43.6665 24.2978 42.9244V36.2835C24.2978 35.5414 24.904 34.9377 25.6492 34.9377H32.3107C33.0558 34.9377 33.6621 35.5415 33.6621 36.2835V38.8008C33.6621 39.4622 34.6877 39.4622 34.6877 38.8008V36.2835C34.6877 34.976 33.6213 33.9123 32.3107 33.9123H27.7361C27.74 33.8482 27.742 31.2583 27.742 31.2583C28.1941 31.4401 28.6788 31.5346 29.1774 31.5346H34.9053V34.0479C34.9053 34.4581 35.4027 34.7052 35.7297 34.4551L39.5478 31.5346H41.0809C43.2004 31.5346 44.9248 29.8148 44.9248 27.7008V15.8337C44.9247 13.7198 43.2003 12 41.0808 12V12Z" fill="#F29104"/>
<path d="M36.4101 15.7884C35.759 15.6222 35.0956 16.1367 35.0956 16.8094C35.0956 17.5444 34.8277 18.2528 34.3416 18.8037L32.9289 20.4023C32.8374 20.262 32.6793 20.1691 32.4993 20.1691H29.7413C29.458 20.1691 29.2285 20.3987 29.2285 20.6818V26.8874C29.2285 27.1706 29.458 27.4001 29.7413 27.4001H32.4993C32.7065 27.4001 32.8846 27.277 32.9654 27.1002C33.5238 27.4414 34.1709 27.6258 34.8292 27.6258H39.7034C40.4482 27.6258 41.0626 26.9795 41.0277 26.2366C41.0122 25.9076 41.0291 21.4901 41.0291 21.392C41.0291 20.661 40.4344 20.0662 39.7049 20.0662L37.1702 20.0586L37.2752 19.8101C37.7548 18.6742 37.6758 17.3572 37.0642 16.2867C36.9214 16.0366 36.689 15.8598 36.4101 15.7884C36.689 15.8598 36.131 15.7172 36.4101 15.7884C36.689 15.8598 35.7591 15.6222 36.4101 15.7884ZM31.9865 26.3746H30.2541V21.1946H31.9865V26.3746ZM39.7034 21.0916C39.869 21.0916 40.0036 21.2263 40.0036 21.3919C40.0036 21.4895 40.0026 21.7543 40.0013 22.1133C39.9937 24.0954 39.9886 25.9727 40.0032 26.2848C40.0086 26.3974 39.9538 26.4724 39.9207 26.5072C39.8634 26.5672 39.7862 26.6002 39.7034 26.6002H34.8292C34.2482 26.6002 33.6796 26.3989 33.2279 26.0333L33.0121 25.8586V21.8568L35.1104 19.4824C35.7622 18.7438 36.1211 17.7945 36.1211 16.8093C36.1211 16.7803 36.1607 16.7728 36.1738 16.7954C36.6279 17.59 36.6864 18.5678 36.3304 19.411L35.9258 20.3695C35.859 20.5276 35.8758 20.7086 35.9703 20.8517C36.065 20.9949 36.225 21.0812 36.3966 21.0817L39.7034 21.0916Z" fill="#F29104"/>
<path d="M16.4664 29.8101C16.1831 29.8101 15.9536 30.0396 15.9536 30.3228C15.9536 30.606 16.1831 30.8356 16.4664 30.8356H17.9779L17.6955 32.5434C17.6493 32.8227 17.8384 33.0867 18.1178 33.1329C18.1461 33.1377 18.1742 33.1399 18.202 33.1399C18.4484 33.1399 18.6658 32.9618 18.7073 32.7107L19.0173 30.8357H20.2543L19.9719 32.5435C19.9257 32.8228 20.1148 33.0868 20.3942 33.133C20.4226 33.1377 20.4507 33.14 20.4784 33.14C20.7248 33.14 20.9422 32.9619 20.9837 32.7108L21.2937 30.8357H23.3512C23.6344 30.8357 23.8639 30.6061 23.8639 30.323C23.8639 30.0398 23.6344 29.8102 23.3512 29.8102H21.4633L21.6701 28.5593H23.3512C23.6344 28.5593 23.8639 28.3297 23.8639 28.0465C23.8639 27.7634 23.6344 27.5338 23.3512 27.5338H21.8397L22.122 25.826C22.1682 25.5466 21.9791 25.2826 21.6998 25.2364C21.4201 25.1901 21.1564 25.3793 21.1102 25.6587L20.8002 27.5337H19.5632L19.8456 25.8259C19.8918 25.5465 19.7027 25.2826 19.4234 25.2364C19.1433 25.19 18.8801 25.3792 18.8338 25.6586L18.5238 27.5336H16.4664C16.1831 27.5336 15.9536 27.7632 15.9536 28.0464C15.9536 28.3296 16.1831 28.5592 16.4664 28.5592H18.3543L18.1474 29.8101H16.4664ZM19.3937 28.5592H20.6308L20.4239 29.8101H19.1869L19.3937 28.5592Z" fill="#F29104"/>
<path d="M28.9738 37.5835C28.5597 37.2426 28.0089 37.1081 27.4563 37.2425C26.7482 37.4144 26.0337 38.0764 26.0337 39.1675C26.0337 39.8466 26.2815 40.4361 26.7914 40.9696C27.2078 41.4055 27.8088 41.8199 28.7398 42.3136C28.815 42.3534 28.8975 42.3733 28.98 42.3733C29.0625 42.3733 29.145 42.3534 29.2202 42.3136C30.8445 41.4524 31.9262 40.5879 31.9262 39.1675C31.9262 38.0704 31.1863 37.4152 30.453 37.2526C29.9021 37.1303 29.368 37.2601 28.9738 37.5835ZM30.9006 39.1675C30.9006 39.9336 30.3924 40.5002 28.9799 41.2778C27.5674 40.5001 27.0592 39.9336 27.0592 39.1675C27.0592 38.5974 27.3892 38.3141 27.6982 38.239C27.7552 38.2252 27.8161 38.2174 27.8788 38.2174C28.1112 38.2174 28.3667 38.3248 28.5242 38.6302C28.614 38.804 28.7955 38.9117 28.9901 38.9077C29.1856 38.9038 29.3619 38.7891 29.4446 38.6118C29.6105 38.2562 29.9595 38.1936 30.2307 38.2539C30.5547 38.3256 30.9006 38.6034 30.9006 39.1675Z" fill="#F29104"/>
</g>
<defs>
<clipPath id="clip0_199_148">
<rect width="35" height="35" fill="white" transform="translate(11 12)"/>
</clipPath>
</defs>
</svg>
