<svg width="58" height="58" viewBox="0 0 58 58" fill="none" xmlns="http://www.w3.org/2000/svg">
<circle cx="29" cy="29" r="28.5" fill="#1A172F" stroke="#614454"/>
<g clip-path="url(#clip0_65_307)">
<path d="M21.7578 32.0313C22.0286 31.8751 22.1213 31.5284 21.9651 31.2576C21.8087 30.987 21.4622 30.8941 21.1914 31.0503C20.9205 31.2067 20.8276 31.5534 20.984 31.824C21.1403 32.0948 21.487 32.1878 21.7578 32.0313Z" fill="#F29104"/>
<path d="M19.4366 35.9407L22.289 40.8814C22.9045 41.9488 24.2891 42.3439 25.3841 41.7109C26.4676 41.0848 26.8399 39.7004 26.2131 38.616L24.5139 35.6725L25.9855 34.8229C26.2563 34.6662 26.3492 34.32 26.1928 34.0492L25.4562 32.7734C25.5441 32.7564 26.1215 32.6431 36.3051 30.6454C37.564 30.5771 38.3183 29.2002 37.6824 28.0995L35.8 24.8391L37.0029 23.0171C37.1211 22.8379 37.1282 22.6075 37.0209 22.4217L35.8881 20.4596C35.7807 20.2738 35.577 20.1649 35.3635 20.1775L33.1843 20.3083L31.0946 16.6886C30.7919 16.1642 30.2497 15.8467 29.6443 15.8392C29.637 15.839 29.6299 15.839 29.6226 15.839C29.0376 15.839 28.5066 16.1302 28.192 16.6224L20.7929 26.0482L15.9826 28.8254C14.0907 29.9173 13.4354 32.3444 14.5314 34.2414C15.5328 35.9761 17.644 36.6584 19.4366 35.9407ZM25.2323 39.1827C25.5452 39.7239 25.36 40.4164 24.8172 40.7299C24.2727 41.0447 23.5793 40.8514 23.27 40.3153L20.438 35.4094L22.4001 34.2766C25.6777 39.9544 25.1797 39.0917 25.2323 39.1827ZM23.9475 34.6912L23.3811 33.7102L24.3621 33.1438L24.9285 34.1248L23.9475 34.6912ZM35.082 21.3291L35.8648 22.685L35.1668 23.7421L33.8176 21.405L35.082 21.3291ZM29.1394 17.2435C29.2914 16.9948 29.5326 16.9691 29.6304 16.9718C29.7271 16.9729 29.968 17.003 30.1134 17.2548L36.7014 28.6659C36.916 29.0374 36.6551 29.5044 36.2248 29.515C36.1476 29.5168 36.112 29.5308 35.9142 29.5677L28.9454 17.4973C29.0916 17.3092 29.1104 17.2911 29.1394 17.2435ZM28.1916 18.4575L34.7391 29.7982L24.8575 31.7364L21.8529 26.5323L28.1916 18.4575ZM15.5125 33.675C15.2638 33.2447 15.1324 32.7562 15.1324 32.2619C15.1324 31.2517 15.6753 30.3109 16.549 29.8064L20.9637 27.2576L23.7957 32.1628L19.3811 34.7118C18.0286 35.4924 16.2933 35.0273 15.5125 33.675Z" fill="#F29104"/>
<path d="M20.0031 32.3905C19.8466 32.1196 19.5002 32.0267 19.2294 32.1831L18.2483 32.7496C17.978 32.9058 17.6308 32.8126 17.4746 32.5422C17.3182 32.2714 16.9717 32.1785 16.7009 32.3349C16.4301 32.4913 16.3371 32.8378 16.4936 33.1086C16.9597 33.9162 17.9996 34.201 18.8147 33.7306L19.7958 33.1642C20.0666 33.0078 20.1595 32.6615 20.0031 32.3905Z" fill="#F29104"/>
<path d="M42.1581 17.0505L39.0019 18.8068C38.7287 18.9591 38.6302 19.304 38.7824 19.5772C38.9342 19.8503 39.2789 19.9492 39.5528 19.7967L42.7088 18.0404C42.9822 17.8882 43.0805 17.5433 42.9283 17.27C42.7763 16.9966 42.4313 16.8983 42.1581 17.0505Z" fill="#F29104"/>
<path d="M41.8271 22.9169L39.6387 22.3305C39.3365 22.2496 39.0258 22.4288 38.9449 22.731C38.8639 23.0332 39.0433 23.3437 39.3455 23.4246L41.5342 24.011C41.8382 24.0926 42.1473 23.9105 42.2278 23.6105C42.3088 23.3083 42.1293 22.9976 41.8271 22.9169Z" fill="#F29104"/>
<path d="M36.3277 14.9927L35.7408 17.1813C35.6598 17.4835 35.839 17.794 36.1412 17.8752C36.4432 17.9559 36.7539 17.7771 36.8351 17.4747L37.4218 15.2861C37.5028 14.9838 37.3236 14.6732 37.0214 14.5922C36.7194 14.5112 36.4087 14.6904 36.3277 14.9927Z" fill="#F29104"/>
</g>
<defs>
<clipPath id="clip0_65_307">
<rect width="29" height="29" fill="white" transform="translate(14 13.7798)"/>
</clipPath>
</defs>
</svg>
