<svg width="67" height="67" viewBox="0 0 67 67" fill="none" xmlns="http://www.w3.org/2000/svg">
<circle cx="33.5" cy="33.5" r="33" fill="white" stroke="#C7D8E1"/>
<g clip-path="url(#clip0_195_145)">
<path d="M22.4599 42.3988C21.4574 42.3988 20.4781 42.143 19.5905 41.6446C19.1338 41.4094 18.957 40.821 19.2298 40.3783C20.1362 38.9299 20.4635 37.1594 20.0485 35.4942C19.6183 33.768 18.9959 32.3142 19.0004 30.4867C19.0158 24.0754 24.3522 18.8778 30.757 19.0022C36.9433 19.1268 42.0416 24.3271 42.0417 30.5149C42.0417 38.5964 33.5723 44.2703 26.0952 41.1496C25.0646 41.9585 23.7692 42.3988 22.4599 42.3988ZM21.2418 40.4256C22.6503 40.8631 24.2344 40.5136 25.3205 39.4636C25.5881 39.2048 25.9885 39.1397 26.3242 39.3003C32.7256 42.3609 40.2595 37.5637 40.2594 30.5149C40.2594 25.2551 35.9805 20.8898 30.7211 20.784C25.3011 20.6763 20.7956 25.066 20.7825 30.491C20.7783 32.2268 21.4555 33.6139 21.8256 35.2582C22.2155 36.9909 22.0101 38.8233 21.2418 40.4256Z" fill="#F29104"/>
<path d="M45.5401 48.9999C44.2308 48.9999 42.9353 48.5596 41.9049 47.7508C37.9285 49.4103 33.1985 48.6546 29.9382 45.8389C29.5657 45.5173 29.5246 44.9546 29.8462 44.5821C30.1679 44.2097 30.7305 44.1684 31.103 44.4902C33.9946 46.9874 38.2295 47.5491 41.6758 45.9015C42.0115 45.7408 42.4117 45.806 42.6795 46.0648C43.7656 47.1148 45.3497 47.4645 46.7582 47.0268C45.8519 45.1363 45.7263 42.9705 46.4287 40.9655C46.435 40.9474 46.4419 40.9297 46.4493 40.912C46.9623 39.7027 47.2208 38.4175 47.2176 37.0922C47.2119 34.7555 46.4346 32.594 44.9696 30.8412C44.654 30.4635 44.7042 29.9016 45.0818 29.5861C45.4593 29.2704 46.0214 29.3207 46.337 29.6983C48.0475 31.7449 48.9932 34.3692 48.9997 37.0879C49.0035 38.6451 48.7014 40.1564 48.1017 41.5803C47.4719 43.4035 47.7616 45.3556 48.7702 46.9794C49.0432 47.4221 48.8662 48.0106 48.4094 48.2459C47.5219 48.7441 46.5424 48.9999 45.5401 48.9999Z" fill="#F29104"/>
<path d="M30.5208 31.9686C31.2995 31.9686 31.9308 31.3377 31.9308 30.5594C31.9308 29.7811 31.2995 29.1501 30.5208 29.1501C29.7421 29.1501 29.1108 29.7811 29.1108 30.5594C29.1108 31.3377 29.7421 31.9686 30.5208 31.9686Z" fill="#F29104"/>
<path d="M25.3262 31.9686C26.1049 31.9686 26.7362 31.3377 26.7362 30.5594C26.7362 29.7811 26.1049 29.1501 25.3262 29.1501C24.5475 29.1501 23.9163 29.7811 23.9163 30.5594C23.9163 31.3377 24.5475 31.9686 25.3262 31.9686Z" fill="#F29104"/>
<path d="M35.7156 31.9686C36.4943 31.9686 37.1256 31.3377 37.1256 30.5594C37.1256 29.7811 36.4943 29.1501 35.7156 29.1501C34.9369 29.1501 34.3057 29.7811 34.3057 30.5594C34.3057 31.3377 34.9369 31.9686 35.7156 31.9686Z" fill="#F29104"/>
</g>
<defs>
<clipPath id="clip0_195_145">
<rect width="30" height="30" fill="white" transform="translate(19 19)"/>
</clipPath>
</defs>
</svg>
