<svg width="58" height="58" viewBox="0 0 58 58" fill="none" xmlns="http://www.w3.org/2000/svg">
<circle cx="29" cy="29" r="28.5" fill="white" stroke="#E0ECF2"/>
<g clip-path="url(#clip0_194_139)">
<path d="M41.2163 30.3353L37.3125 28.7082V27.5401C37.8499 27.2317 38.3152 26.8121 38.6773 26.3094C39.0395 25.8066 39.2901 25.2324 39.4125 24.625H39.5C39.8481 24.6298 40.1838 24.4961 40.4333 24.2533C40.6828 24.0105 40.8257 23.6786 40.8304 23.3305C40.8352 22.9824 40.7015 22.6466 40.4587 22.3971C40.2159 22.1476 39.884 22.0048 39.5359 22L39.9646 21.006C40.331 20.1566 40.3497 19.1975 40.0168 18.3344C39.6839 17.4714 39.0259 16.7733 38.184 16.39L36.9625 15.8343C36.2397 15.5134 35.4449 15.3894 34.6587 15.4749C33.8726 15.5603 33.123 15.8522 32.486 16.3208L31.8053 16.8345C31.1102 17.0135 30.5132 17.4582 30.1428 18.073C29.9382 18.4126 29.8105 18.793 29.7688 19.1872C29.7271 19.5815 29.7723 19.9801 29.9013 20.355C29.2407 20.2229 28.5591 20.2395 27.9058 20.4036C28.0928 19.6098 27.9985 18.7757 27.6388 18.0438C27.2792 17.3118 26.6766 16.7274 25.934 16.3904L24.7125 15.8343C23.9897 15.5134 23.1949 15.3894 22.4087 15.4749C21.6226 15.5603 20.873 15.8522 20.236 16.3208L19.5553 16.8345C19.161 16.9352 18.7943 17.123 18.482 17.384C18.1698 17.645 17.9199 17.9725 17.7508 18.3427C17.5818 18.7129 17.4977 19.1162 17.5048 19.5231C17.512 19.93 17.6101 20.3301 17.7921 20.6941L18.4458 22C18.0977 22.0072 17.7667 22.1524 17.5256 22.4036C17.2846 22.6549 17.1532 22.9916 17.1604 23.3396C17.1676 23.6877 17.3128 24.0187 17.564 24.2598C17.8152 24.5008 18.1519 24.6322 18.5 24.625H18.5875C18.7104 25.2321 18.9612 25.806 19.3233 26.3085C19.6854 26.811 20.1505 27.2306 20.6875 27.5392V28.7082L16.7837 30.3353C16.3846 30.5007 16.0437 30.7809 15.804 31.1404C15.5643 31.4998 15.4368 31.9223 15.4375 32.3543V38.1875C15.4375 38.3036 15.4836 38.4148 15.5656 38.4969C15.6477 38.5789 15.759 38.625 15.875 38.625H18.9375V42.125C18.9375 42.2411 18.9836 42.3523 19.0656 42.4344C19.1477 42.5164 19.259 42.5625 19.375 42.5625H38.625C38.741 42.5625 38.8523 42.5164 38.9344 42.4344C39.0164 42.3523 39.0625 42.2411 39.0625 42.125V38.625H42.125C42.241 38.625 42.3523 38.5789 42.4344 38.4969C42.5164 38.4148 42.5625 38.3036 42.5625 38.1875V32.3543C42.5632 31.9223 42.4357 31.4998 42.196 31.1404C41.9564 30.7809 41.6154 30.5007 41.2163 30.3353ZM30.4757 21.4431L31.6968 22C32.3301 22.2885 32.8251 22.8139 33.0755 23.4633C33.3259 24.1126 33.3117 24.8343 33.0359 25.4733L32.9047 25.773L32.4563 24.867C32.4277 24.8093 32.3867 24.7586 32.3362 24.7185C32.2858 24.6785 32.2271 24.6501 32.1645 24.6353C32.1018 24.6206 32.0366 24.6199 31.9736 24.6332C31.9106 24.6465 31.8513 24.6736 31.8 24.7125L31.1 25.2375C30.4942 25.6919 29.7573 25.9375 29 25.9375C28.2427 25.9375 27.5058 25.6919 26.9 25.2375L26.2 24.7125C26.1489 24.6738 26.0899 24.647 26.0272 24.6339C25.9644 24.6208 25.8996 24.6218 25.8373 24.6368C25.7748 24.6515 25.7164 24.6797 25.666 24.7195C25.6157 24.7592 25.5747 24.8096 25.5459 24.867L25.0625 25.8373L24.7011 25.115C24.5602 24.833 24.4936 24.5197 24.5077 24.2047C24.5219 23.8898 24.6162 23.5837 24.7819 23.3155C24.9476 23.0472 25.179 22.8258 25.4543 22.6721C25.7296 22.5185 26.0396 22.4377 26.3549 22.4375C26.6919 22.4372 27.0238 22.5202 27.3209 22.6792C27.6181 22.8382 27.8713 23.0683 28.0581 23.3488L28.1954 23.5553L28.9234 23.0697L28.7861 22.8636C28.3972 22.281 27.8115 21.858 27.1363 21.6719C27.6325 21.3656 28.1959 21.1848 28.7777 21.1449C29.3595 21.105 29.9423 21.2074 30.4757 21.4431ZM33.375 27.6875H33.8125C33.9285 27.6875 34.0398 27.7336 34.1219 27.8157C34.2039 27.8977 34.25 28.009 34.25 28.125C34.25 28.2411 34.2039 28.3523 34.1219 28.4344C34.0398 28.5164 33.9285 28.5625 33.8125 28.5625H33.375V27.6875ZM27.6875 32.7358C28.5418 33.0048 29.4582 33.0048 30.3125 32.7358V33.6314L29 34.9439L27.6875 33.6314V32.7358ZM29 32.0625C28.0721 32.0615 27.1824 31.6924 26.5263 31.0362C25.8701 30.3801 25.501 29.4905 25.5 28.5625V26.9158L26.0941 25.7271L26.375 25.9375C27.1323 26.5055 28.0534 26.8125 29 26.8125C29.9466 26.8125 30.8677 26.5055 31.625 25.9375L31.9059 25.7271L32.5 26.9158V28.5625C32.499 29.4905 32.1299 30.3801 31.4737 31.0362C30.8176 31.6924 29.9279 32.0615 29 32.0625ZM24.625 28.5625H24.1875C24.0715 28.5625 23.9602 28.5164 23.8781 28.4344C23.7961 28.3523 23.75 28.2411 23.75 28.125C23.75 28.009 23.7961 27.8977 23.8781 27.8157C23.9602 27.7336 24.0715 27.6875 24.1875 27.6875H24.625V28.5625ZM18.9375 37.33V37.75H16.3125V32.3543C16.3123 32.0953 16.389 31.8421 16.5327 31.6266C16.6765 31.4111 16.8809 31.2431 17.1201 31.1438L21.2934 29.4051C21.3733 29.3718 21.4416 29.3155 21.4894 29.2434C21.5373 29.1713 21.5628 29.0866 21.5625 29V27.278C21.5602 27.1951 21.5354 27.1144 21.4908 27.0445C21.4462 26.9747 21.3834 26.9182 21.3092 26.8812C20.7862 26.6211 20.3369 26.2336 20.0027 25.7546C19.6685 25.2755 19.46 24.7201 19.3964 24.1394C19.3846 24.0323 19.3337 23.9334 19.2534 23.8616C19.1732 23.7897 19.0693 23.75 18.9616 23.75H18.5C18.384 23.75 18.2727 23.7039 18.1906 23.6219C18.1086 23.5398 18.0625 23.4286 18.0625 23.3125C18.0625 23.1965 18.1086 23.0852 18.1906 23.0032C18.2727 22.9211 18.384 22.875 18.5 22.875H18.9375C18.9952 22.875 19.0524 22.8636 19.1056 22.8414C19.1589 22.8193 19.2073 22.7868 19.2479 22.7458C19.2886 22.7049 19.3208 22.6563 19.3426 22.6028C19.3644 22.5494 19.3754 22.4922 19.375 22.4345L19.3719 21.997C19.3715 21.9301 19.3558 21.8643 19.326 21.8045L18.5748 20.3025C18.449 20.0504 18.3824 19.7728 18.3802 19.491C18.378 19.2092 18.4403 18.9306 18.5622 18.6765C18.6841 18.4224 18.8624 18.1995 19.0836 18.0249C19.3047 17.8502 19.5629 17.7284 19.8383 17.6688C19.9002 17.6551 19.9585 17.6284 20.0094 17.5905L20.7619 17.0217C21.2725 16.6464 21.8732 16.4127 22.5032 16.3444C23.1332 16.276 23.7701 16.3753 24.3494 16.6323L25.5718 17.1875C26.2051 17.476 26.7001 18.0014 26.9505 18.6508C27.2009 19.3001 27.1867 20.0218 26.9109 20.6608L26.8401 20.8249C26.6739 20.9169 26.5142 21.0199 26.3619 21.1333L25.6719 21.65C25.2785 21.7511 24.9126 21.939 24.6012 22.1999C24.2898 22.4608 24.0408 22.7882 23.8723 23.1579C23.7039 23.5276 23.6204 23.9303 23.6279 24.3365C23.6355 24.7427 23.7338 25.1421 23.9158 25.5053L24.5703 26.8125H24.1875C23.8394 26.8125 23.5056 26.9508 23.2594 27.1969C23.0133 27.4431 22.875 27.7769 22.875 28.125C22.875 28.4731 23.0133 28.807 23.2594 29.0531C23.5056 29.2992 23.8394 29.4375 24.1875 29.4375H24.7125C24.8378 30.0429 25.0897 30.6149 25.4516 31.1161C25.8135 31.6173 26.2773 32.0363 26.8125 32.3456V33.48L20.5396 35.2226C20.0795 35.3514 19.674 35.627 19.3848 36.0074C19.0956 36.3878 18.9386 36.8522 18.9375 37.33ZM38.1875 41.6875H35.5625V38.1875H34.6875V41.6875H23.3125V38.1875H22.4375V41.6875H19.8125V37.33C19.8131 37.0432 19.9075 36.7644 20.0813 36.5361C20.255 36.3078 20.4987 36.1426 20.775 36.0657L27.1227 34.3025L28.692 35.8718C28.774 35.9539 28.8853 35.9999 29.0013 35.9999C29.1173 35.9999 29.2286 35.9539 29.3106 35.8718L30.8799 34.3025L37.225 36.0657C37.5013 36.1426 37.745 36.3078 37.9187 36.5361C38.0925 36.7644 38.1869 37.0432 38.1875 37.33V41.6875ZM41.6875 37.75H39.0625V37.33C39.0614 36.8522 38.9044 36.3878 38.6152 36.0074C38.326 35.627 37.9205 35.3514 37.4604 35.2226L31.1875 33.48V32.3456C31.7227 32.0363 32.1865 31.6173 32.5484 31.1161C32.9103 30.6149 33.1622 30.0429 33.2875 29.4375H33.8125C34.1606 29.4375 34.4944 29.2992 34.7406 29.0531C34.9867 28.807 35.125 28.4731 35.125 28.125C35.125 27.7769 34.9867 27.4431 34.7406 27.1969C34.4944 26.9508 34.1606 26.8125 33.8125 26.8125H33.4109L33.8396 25.819C34.206 24.9696 34.2247 24.0104 33.8918 23.1474C33.5589 22.2843 32.9009 21.5862 32.059 21.2029L31.044 20.7405L30.8253 20.303C30.6993 20.0508 30.6327 19.7732 30.6304 19.4914C30.6282 19.2096 30.6903 18.9309 30.8122 18.6768C30.9341 18.4227 31.1124 18.1997 31.3335 18.025C31.5547 17.8503 31.8129 17.7285 32.0883 17.6688C32.1502 17.6551 32.2085 17.6284 32.2594 17.5905L33.0119 17.0217C33.5225 16.6464 34.1232 16.4127 34.7532 16.3444C35.3832 16.276 36.0201 16.3753 36.5994 16.6323L37.8218 17.1875C38.4551 17.476 38.9501 18.0014 39.2005 18.6508C39.4509 19.3001 39.4367 20.0218 39.1609 20.6608L38.6578 21.825C38.6339 21.8803 38.6217 21.9398 38.6219 22L38.625 22.4375C38.625 22.5536 38.6711 22.6648 38.7531 22.7469C38.8352 22.8289 38.9465 22.875 39.0625 22.875H39.5C39.616 22.875 39.7273 22.9211 39.8094 23.0032C39.8914 23.0852 39.9375 23.1965 39.9375 23.3125C39.9375 23.4286 39.8914 23.5398 39.8094 23.6219C39.7273 23.7039 39.616 23.75 39.5 23.75H39.0384C38.9307 23.75 38.8268 23.7897 38.7466 23.8616C38.6663 23.9334 38.6154 24.0323 38.6036 24.1394C38.5398 24.7223 38.3299 25.2796 37.9934 25.7598C37.6569 26.24 37.2047 26.6275 36.6786 26.8865C36.6057 26.9227 36.5443 26.9785 36.5014 27.0477C36.4585 27.1169 36.4358 27.1966 36.4358 27.278V29C36.4357 29.0864 36.4613 29.1708 36.5092 29.2427C36.557 29.3145 36.6251 29.3706 36.7048 29.4038L40.8799 31.1438C41.1191 31.2431 41.3235 31.4111 41.4673 31.6266C41.611 31.8421 41.6877 32.0953 41.6875 32.3543V37.75Z" fill="#F29104"/>
</g>
<defs>
<clipPath id="clip0_194_139">
<rect width="28" height="28" fill="white" transform="translate(15 15)"/>
</clipPath>
</defs>
</svg>
