<svg width="67" height="67" viewBox="0 0 67 67" fill="none" xmlns="http://www.w3.org/2000/svg">
<circle cx="33.5" cy="33.5" r="33" fill="white" stroke="#C7D8E1"/>
<g clip-path="url(#clip0_195_144)">
<path d="M42.1288 37.3451C41.5556 36.7482 40.8642 36.4291 40.1314 36.4291C39.4045 36.4291 38.7072 36.7423 38.1103 37.3391L36.2429 39.2007C36.0892 39.1179 35.9356 39.0411 35.7879 38.9643C35.5751 38.8579 35.3742 38.7574 35.2028 38.6511C33.4536 37.5401 31.8639 36.0922 30.3392 34.2189C29.6005 33.2852 29.1041 32.4992 28.7436 31.7014C29.2282 31.2582 29.6773 30.7972 30.1146 30.354C30.2801 30.1885 30.4456 30.0172 30.6111 29.8517C31.8521 28.6107 31.8521 27.0033 30.6111 25.7623L28.9977 24.1489C28.8145 23.9657 28.6254 23.7766 28.4481 23.5875C28.0936 23.2211 27.7213 22.8429 27.3371 22.4883C26.7639 21.921 26.0784 21.6196 25.3574 21.6196C24.6365 21.6196 23.9391 21.921 23.3482 22.4883C23.3423 22.4942 23.3423 22.4942 23.3363 22.5002L21.3271 24.5271C20.5707 25.2836 20.1393 26.2055 20.0447 27.2751C19.9029 29.0007 20.4111 30.6081 20.8011 31.66C21.7585 34.2425 23.1886 36.6359 25.322 39.2007C27.9104 42.2914 31.0247 44.732 34.5823 46.4517C35.9415 47.0959 37.7557 47.8582 39.7827 47.9882C39.9068 47.9941 40.0369 48 40.155 48C41.5202 48 42.6666 47.5096 43.5649 46.5345C43.5708 46.5226 43.5826 46.5167 43.5885 46.5049C43.8958 46.1326 44.2504 45.7958 44.6227 45.4353C44.8768 45.193 45.1368 44.9389 45.3909 44.6729C45.976 44.0643 46.2833 43.3551 46.2833 42.6282C46.2833 41.8954 45.9701 41.1922 45.3732 40.6012L42.1288 37.3451ZM44.2445 43.5679C44.2386 43.5679 44.2386 43.5738 44.2445 43.5679C44.014 43.8161 43.7776 44.0406 43.5235 44.2888C43.1394 44.6552 42.7494 45.0393 42.383 45.4707C41.7861 46.109 41.0828 46.4104 40.161 46.4104C40.0723 46.4104 39.9778 46.4104 39.8891 46.4045C38.134 46.2922 36.5029 45.6067 35.2796 45.0216C31.9348 43.4024 28.9977 41.1036 26.5571 38.1901C24.5419 35.7613 23.1945 33.5156 22.3022 31.1045C21.7526 29.633 21.5516 28.4866 21.6403 27.4051C21.6994 26.7137 21.9653 26.1405 22.4558 25.65L24.471 23.6348C24.7606 23.363 25.0679 23.2152 25.3692 23.2152C25.7415 23.2152 26.0429 23.4398 26.232 23.6289C26.238 23.6348 26.2439 23.6407 26.2498 23.6466C26.6103 23.9835 26.953 24.3321 27.3135 24.7044C27.4967 24.8935 27.6858 25.0826 27.8749 25.2777L29.4882 26.891C30.1146 27.5174 30.1146 28.0965 29.4882 28.723C29.3169 28.8943 29.1514 29.0657 28.98 29.2312C28.4836 29.7394 28.0108 30.2122 27.4967 30.6731C27.4849 30.6849 27.4731 30.6909 27.4672 30.7027C26.9589 31.2109 27.0535 31.7073 27.1599 32.0441C27.1658 32.0619 27.1717 32.0796 27.1776 32.0973C27.5972 33.1138 28.1881 34.0711 29.0864 35.2117L29.0923 35.2176C30.7233 37.2269 32.443 38.7929 34.34 39.9925C34.5823 40.1462 34.8305 40.2703 35.0669 40.3885C35.2796 40.4949 35.4806 40.5953 35.6519 40.7017C35.6756 40.7135 35.6992 40.7312 35.7228 40.7431C35.9238 40.8435 36.1129 40.8908 36.3079 40.8908C36.7984 40.8908 37.1057 40.5835 37.2062 40.483L39.2272 38.462C39.4282 38.261 39.7473 38.0187 40.1196 38.0187C40.486 38.0187 40.7874 38.2492 40.9706 38.4501C40.9765 38.4561 40.9765 38.4561 40.9824 38.462L44.2386 41.7181C44.8473 42.3209 44.8473 42.9414 44.2445 43.5679Z" fill="#F29104"/>
<path d="M35.1319 26.6605C36.6802 26.9205 38.0867 27.6533 39.2095 28.7761C40.3323 29.899 41.0592 31.3055 41.3252 32.8538C41.3902 33.2438 41.727 33.5156 42.1111 33.5156C42.1584 33.5156 42.1998 33.5097 42.2471 33.5038C42.6844 33.4329 42.9739 33.0192 42.903 32.5819C42.5839 30.7086 41.6975 29.0007 40.3442 27.6474C38.9909 26.2941 37.283 25.4077 35.4097 25.0886C34.9723 25.0176 34.5646 25.3072 34.4878 25.7386C34.4109 26.17 34.6946 26.5896 35.1319 26.6605Z" fill="#F29104"/>
<path d="M47.9675 32.3514C47.4416 29.2666 45.9878 26.4595 43.754 24.2257C41.5202 21.9919 38.7131 20.5381 35.6283 20.0122C35.1969 19.9353 34.7892 20.2308 34.7123 20.6622C34.6414 21.0995 34.931 21.5073 35.3683 21.5841C38.1222 22.051 40.6337 23.357 42.6312 25.3485C44.6286 27.346 45.9287 29.8575 46.3956 32.6114C46.4606 33.0014 46.7974 33.2733 47.1816 33.2733C47.2288 33.2733 47.2702 33.2674 47.3175 33.2615C47.7489 33.1965 48.0444 32.7828 47.9675 32.3514Z" fill="#F29104"/>
</g>
<defs>
<clipPath id="clip0_195_144">
<rect width="28" height="28" fill="white" transform="translate(20 20)"/>
</clipPath>
</defs>
</svg>
