<svg width="58" height="58" viewBox="0 0 58 58" fill="none" xmlns="http://www.w3.org/2000/svg">
<circle cx="29" cy="29" r="28.5" fill="#1A172F" stroke="#614454"/>
<g clip-path="url(#clip0_65_298)">
<path d="M32.8819 36.5341C33.8174 36.5341 34.7529 36.178 35.4651 35.4658C36.8894 34.0414 36.8894 31.7238 35.4651 30.2995C34.0407 28.8751 31.7231 28.8751 30.2987 30.2995C28.8744 31.7238 28.8744 34.0414 30.2987 35.4658C31.0109 36.1779 31.9464 36.5341 32.8819 36.5341ZM30.9613 30.9621C31.4909 30.4325 32.1863 30.1678 32.8819 30.1678C33.5774 30.1678 34.273 30.4326 34.8024 30.9621C35.8614 32.0211 35.8614 33.7442 34.8024 34.8031C33.7435 35.8622 32.0203 35.8621 30.9613 34.8031C29.9023 33.7442 29.9023 32.0211 30.9613 30.9621Z" fill="#F29104"/>
<path d="M28.6294 28.6301C26.8862 30.3733 26.3822 32.9659 27.3455 35.2349C27.4465 35.4731 27.7218 35.5841 27.9598 35.4831C28.198 35.3819 28.3091 35.1069 28.208 34.8687C27.3948 32.9531 27.8204 30.7644 29.292 29.2927C31.2716 27.3132 34.4925 27.3133 36.4719 29.2927C38.4514 31.2722 38.4514 34.4931 36.4719 36.4726C35.5209 37.4235 34.2567 37.9516 32.912 37.9595C32.9018 37.9596 32.8917 37.9596 32.8815 37.9596C31.5493 37.9596 30.2919 37.4483 29.3381 36.518C29.1528 36.3373 28.8562 36.341 28.6756 36.5263C28.4949 36.7115 28.4986 37.0082 28.6839 37.1888C29.8139 38.291 31.3032 38.8967 32.8813 38.8966C32.8934 38.8966 32.9055 38.8966 32.9175 38.8965C34.5104 38.8872 36.0081 38.2616 37.1346 37.1351C39.4794 34.7903 39.4794 30.9749 37.1346 28.63C34.7895 26.2853 30.9743 26.2853 28.6294 28.6301Z" fill="#F29104"/>
<path d="M44.1022 30.779H42.4351C42.1875 29.6493 41.747 28.5849 41.1255 27.6143L42.3033 26.4364C42.4728 26.2669 42.5662 26.0416 42.5662 25.8019C42.5662 25.5622 42.4728 25.3368 42.3034 25.1674L40.5973 23.4614C40.4278 23.2919 40.2025 23.1985 39.9628 23.1985C39.7231 23.1985 39.4979 23.2919 39.3283 23.4613L38.1504 24.6393C37.1798 24.0177 36.1155 23.5773 34.9857 23.3297V21.6625C34.9857 21.1678 34.5832 20.7652 34.0885 20.7652H31.6758C31.397 20.7652 31.1476 20.8931 30.9829 21.0931H30.6768C30.4772 20.2196 30.1358 19.3946 29.6608 18.6379L30.5619 17.7367C30.8797 17.4189 30.8797 16.9019 30.5619 16.5841L29.1831 15.2052C29.0291 15.0513 28.8244 14.9665 28.6067 14.9665C28.389 14.9665 28.1843 15.0513 28.0304 15.2053L27.1292 16.1064C26.3727 15.6315 25.5477 15.2901 24.674 15.0904V13.8151C24.6741 13.3656 24.3085 13 23.859 13H21.9091C21.4596 13 21.094 13.3656 21.094 13.8151V15.0905C20.2204 15.2901 19.3953 15.6316 18.6388 16.1064L17.7378 15.2053C17.5838 15.0514 17.3792 14.9666 17.1614 14.9666C16.9436 14.9666 16.7389 15.0514 16.585 15.2053L15.2063 16.5841C14.8885 16.9019 14.8885 17.4189 15.2063 17.7368L16.1074 18.6379C15.6325 19.3944 15.2911 20.2196 15.0914 21.0931H13.816C13.3666 21.0931 13.001 21.4588 13.001 21.9082V23.8582C13.001 24.3076 13.3666 24.6732 13.816 24.6732H15.0914C15.2911 25.5469 15.6325 26.372 16.1074 27.1284L15.2063 28.0296C14.8885 28.3474 14.8885 28.8644 15.2063 29.1822L16.585 30.5611C16.9028 30.8788 17.4198 30.8789 17.7378 30.5611L18.6389 29.6599C19.3954 30.1348 20.2203 30.4762 21.0941 30.6759V30.9825C20.8932 31.1472 20.7648 31.397 20.7648 31.6764V34.0892C20.7648 34.5839 21.1673 34.9864 21.662 34.9864H23.3292C23.5768 36.1162 24.0173 37.1807 24.6388 38.1512L23.4609 39.3291C23.2914 39.4986 23.1981 39.7239 23.1981 39.9636C23.1981 40.2033 23.2914 40.4286 23.4609 40.5981L25.167 42.3041C25.3364 42.4736 25.5617 42.567 25.8014 42.567C26.0411 42.567 26.2664 42.4736 26.4359 42.3041L27.6138 41.1262C28.5844 41.7478 29.6489 42.1883 30.7785 42.4358V44.1029C30.7785 44.5977 31.181 45.0002 31.6758 45.0002H34.0885C34.5832 45.0002 34.9857 44.5977 34.9857 44.1029V42.4356C36.1155 42.188 37.1799 41.7475 38.1505 41.126L39.3284 42.304C39.4979 42.4734 39.7231 42.5668 39.9628 42.5668C40.2025 42.5668 40.4278 42.4734 40.5973 42.304L42.3033 40.5979C42.4728 40.4285 42.5662 40.2031 42.5662 39.9634C42.5662 39.7237 42.4728 39.4984 42.3034 39.329L41.1255 38.151C41.7469 37.1805 42.1874 36.116 42.4351 34.9863H44.1022C44.597 34.9863 44.9995 34.5838 44.9995 34.089V31.6762C44.9995 31.1815 44.597 30.779 44.1022 30.779ZM21.3864 29.7808C20.5564 29.6015 19.7754 29.2784 19.0647 28.8201C18.7434 28.6132 18.315 28.6584 18.0457 28.9278L17.1614 29.8121L15.9551 28.6058L16.8394 27.7214C17.1087 27.452 17.154 27.0236 16.947 26.7024C16.4888 25.9918 16.1656 25.2107 15.9863 24.3807C15.9055 24.0072 15.5705 23.736 15.1896 23.736H13.938V22.0301H15.1896C15.5705 22.0301 15.9056 21.759 15.9864 21.3853C16.1656 20.5555 16.4888 19.7744 16.9471 19.0637C17.154 18.7427 17.1088 18.3141 16.8395 18.0448L15.9552 17.1604L17.1615 15.9541L18.0457 16.8385C18.315 17.1078 18.7434 17.1531 19.0648 16.946C19.7755 16.4878 20.5566 16.1646 21.3864 15.9854C21.7599 15.9046 22.0311 15.5695 22.0311 15.1886V13.9371H23.7371V15.1887C23.7371 15.5696 24.0083 15.9047 24.3818 15.9854C25.2116 16.1646 25.9927 16.4879 26.7034 16.946C27.0245 17.153 27.4531 17.1079 27.7225 16.8385L28.6068 15.9541L29.8131 17.1604L28.9288 18.0447C28.6594 18.3141 28.6142 18.7426 28.8212 19.0637C29.2795 19.7745 29.6027 20.5556 29.7819 21.3853C29.8626 21.759 30.1976 22.0301 30.5786 22.0301H30.7786V23.3297C29.6489 23.5772 28.5845 24.0177 27.6139 24.6393L26.4359 23.4613C26.4219 23.4474 26.4071 23.4347 26.3923 23.4218C26.5567 22.3425 26.2247 21.2015 25.3952 20.3721C24.414 19.3908 22.9397 19.0707 21.6394 19.5565C21.397 19.6471 21.2738 19.917 21.3645 20.1594C21.455 20.4018 21.7249 20.5248 21.9673 20.4343C22.9246 20.0766 24.0102 20.3122 24.7327 21.0347C25.3389 21.641 25.5832 22.4732 25.4682 23.2628C25.3568 23.3073 25.2544 23.374 25.167 23.4613L23.461 25.1674C23.3734 25.2549 23.3066 25.3575 23.2621 25.4691C23.138 25.4871 23.0119 25.4973 22.8842 25.4973C22.1859 25.4973 21.5294 25.2253 21.0357 24.7316C20.2106 23.9065 20.0327 22.6206 20.6032 21.6045C20.7298 21.3789 20.6496 21.0933 20.4239 20.9666C20.1984 20.84 19.9127 20.9202 19.786 21.1459C19.011 22.5266 19.2524 24.2736 20.373 25.3943C21.0653 26.0866 21.9748 26.4327 22.8841 26.4327C23.0634 26.4327 23.2425 26.4185 23.4201 26.3915C23.4334 26.4067 23.4465 26.422 23.4609 26.4364L24.6388 27.6143C24.0173 28.5849 23.5768 29.6494 23.3292 30.7791H22.0311V30.5776C22.0311 30.1967 21.76 29.8616 21.3864 29.7808ZM44.0625 34.0492H42.4027C41.9833 34.0492 41.6145 34.3478 41.5255 34.7593C41.3009 35.7992 40.8959 36.778 40.3217 37.6686C40.0937 38.0221 40.1434 38.4941 40.4399 38.7905L41.6127 39.9634L39.9629 41.6132L38.7901 40.4403C38.4937 40.1438 38.0218 40.094 37.6682 40.322C36.7776 40.8962 35.7987 41.3012 34.7588 41.5259C34.3474 41.6148 34.0488 41.9837 34.0488 42.403V44.0628H31.7156V42.403C31.7156 41.9837 31.417 41.6148 31.0055 41.5259C29.9657 41.3013 28.9869 40.8962 28.0962 40.322C27.7428 40.0941 27.2709 40.1438 26.9742 40.4403L25.8015 41.6131L24.1517 39.9633L25.3244 38.7905C25.6211 38.4939 25.6708 38.0221 25.4428 37.6685C24.8686 36.7779 24.4635 35.7991 24.2389 34.7592C24.1499 34.3477 23.7811 34.0491 23.3617 34.0491H21.702V31.7159H23.3617C23.7811 31.7159 24.1499 31.4173 24.2389 31.0058C24.4635 29.9659 24.8685 28.9871 25.4427 28.0965C25.6708 27.7429 25.6211 27.2711 25.3245 26.9746L24.1517 25.8017L25.8015 24.152L26.9742 25.3248C27.2707 25.6213 27.7426 25.671 28.0962 25.4431C28.9869 24.8689 29.9658 24.4638 31.0055 24.2392C31.417 24.1503 31.7156 23.7814 31.7156 23.3621V21.7022H34.0488V23.362C34.0488 23.7814 34.3474 24.1503 34.7588 24.2392C35.7987 24.4638 36.7775 24.8688 37.6682 25.443C38.0217 25.6709 38.4936 25.6213 38.7902 25.3247L39.9629 24.1519L41.6127 25.8017L40.4399 26.9747C40.1433 27.2712 40.0936 27.7431 40.3216 28.0966C40.8958 28.9872 41.3008 29.966 41.5255 31.006C41.6144 31.4174 41.9833 31.7161 42.4026 31.7161H44.0624V34.0492H44.0625Z" fill="#F29104"/>
</g>
<defs>
<clipPath id="clip0_65_298">
<rect width="32" height="32" fill="white" transform="translate(13 13)"/>
</clipPath>
</defs>
</svg>
