<svg width="58" height="58" viewBox="0 0 58 58" fill="none" xmlns="http://www.w3.org/2000/svg">
<circle cx="29" cy="29" r="28.5" fill="white" stroke="#E0ECF2"/>
<g clip-path="url(#clip0_199_153)">
<path d="M43.5652 31.105L42.3902 30.715C42.4642 30.1463 42.5009 29.5735 42.5002 29C42.5008 28.4249 42.464 27.8504 42.3902 27.28L43.5652 26.895C43.8171 26.8126 44.0259 26.6337 44.1459 26.3974C44.2659 26.1612 44.2872 25.887 44.2052 25.635L43.2802 22.785C43.2396 22.6593 43.1746 22.5429 43.0887 22.4425C43.0029 22.3421 42.8981 22.2597 42.7802 22.2C42.6609 22.1381 42.5303 22.1009 42.3963 22.0906C42.2623 22.0803 42.1276 22.0971 42.0002 22.14L40.8402 22.5C40.296 21.4911 39.6238 20.5567 38.8402 19.72L39.5652 18.72C39.643 18.6137 39.699 18.4932 39.73 18.3652C39.761 18.2372 39.7665 18.1044 39.746 17.9743C39.7256 17.8442 39.6797 17.7195 39.6109 17.6072C39.5421 17.4949 39.4518 17.3973 39.3452 17.32L36.8952 15.58C36.6809 15.4246 36.4137 15.3604 36.1522 15.4017C35.8907 15.4429 35.6563 15.5861 35.5002 15.8L34.7702 16.8C33.7312 16.3043 32.6319 15.9463 31.5002 15.735V14.5C31.5002 14.2348 31.3949 13.9804 31.2073 13.7929C31.0198 13.6054 30.7654 13.5 30.5002 13.5H27.5002C27.235 13.5 26.9806 13.6054 26.7931 13.7929C26.6056 13.9804 26.5002 14.2348 26.5002 14.5V15.735C25.3667 15.9452 24.2656 16.3032 23.2252 16.8L22.5002 15.8C22.3442 15.5861 22.1097 15.4429 21.8482 15.4017C21.5867 15.3604 21.3195 15.4246 21.1052 15.58L18.6752 17.34C18.5686 17.4173 18.4783 17.5149 18.4096 17.6272C18.3408 17.7395 18.2948 17.8642 18.2744 17.9943C18.254 18.1244 18.2594 18.2572 18.2904 18.3852C18.3215 18.5132 18.3775 18.6337 18.4552 18.74L19.1752 19.74C18.3917 20.5786 17.7195 21.5146 17.1752 22.525L16.0002 22.14C15.8751 22.0995 15.7433 22.0841 15.6122 22.0946C15.4812 22.1051 15.3535 22.1413 15.2365 22.2012C15.1194 22.2611 15.0154 22.3435 14.9302 22.4437C14.8451 22.5439 14.7805 22.6598 14.7402 22.785L13.8152 25.635C13.7332 25.887 13.7545 26.1612 13.8745 26.3974C13.9945 26.6337 14.2034 26.8126 14.4552 26.895L15.6302 27.285C15.5495 27.8532 15.5061 28.4261 15.5002 29C15.4997 29.5751 15.5364 30.1496 15.6102 30.72L14.4352 31.105C14.1834 31.1874 13.9745 31.3663 13.8545 31.6026C13.7345 31.8388 13.7132 32.113 13.7952 32.365L14.7202 35.215C14.7608 35.3407 14.8259 35.4571 14.9117 35.5575C14.9975 35.6579 15.1024 35.7403 15.2202 35.8C15.3395 35.8619 15.4701 35.8991 15.6041 35.9094C15.7381 35.9197 15.8728 35.9029 16.0002 35.86L17.1602 35.5C17.7044 36.5089 18.3766 37.4433 19.1602 38.28L18.4352 39.28C18.3575 39.3863 18.3015 39.5068 18.2704 39.6348C18.2394 39.7628 18.234 39.8956 18.2544 40.0257C18.2748 40.1558 18.3208 40.2805 18.3896 40.3928C18.4583 40.5051 18.5486 40.6027 18.6552 40.68L21.0852 42.44C21.1932 42.5191 21.3159 42.5757 21.4462 42.6065C21.5764 42.6373 21.7115 42.6417 21.8435 42.6193C21.9754 42.5969 22.1015 42.5483 22.2144 42.4762C22.3272 42.4042 22.4244 42.3103 22.5002 42.2L23.2302 41.2C24.2693 41.6957 25.3685 42.0537 26.5002 42.265V43.5C26.5002 43.7652 26.6056 44.0196 26.7931 44.2071C26.9806 44.3946 27.235 44.5 27.5002 44.5H30.5002C30.7654 44.5 31.0198 44.3946 31.2073 44.2071C31.3949 44.0196 31.5002 43.7652 31.5002 43.5V42.265C32.6321 42.0544 33.7314 41.6963 34.7702 41.2L35.4952 42.2C35.6513 42.4139 35.8857 42.5571 36.1472 42.5983C36.4087 42.6396 36.6759 42.5754 36.8902 42.42L39.3202 40.66C39.4268 40.5827 39.5171 40.4851 39.5859 40.3728C39.6547 40.2605 39.7006 40.1358 39.721 40.0057C39.7415 39.8756 39.736 39.7428 39.705 39.6148C39.674 39.4868 39.618 39.3663 39.5402 39.26L38.8202 38.26C39.6037 37.4214 40.2759 36.4854 40.8202 35.475L42.0002 35.86C42.1253 35.9005 42.2571 35.9159 42.3882 35.9054C42.5192 35.8949 42.6469 35.8587 42.764 35.7988C42.881 35.7389 42.9851 35.6565 43.0702 35.5563C43.1554 35.4561 43.2199 35.3402 43.2602 35.215L44.1852 32.365C44.2682 32.1156 44.2496 31.8437 44.1336 31.6079C44.0176 31.3721 43.8134 31.1914 43.5652 31.105ZM42.3252 34.905L41.1502 34.525C40.9254 34.4557 40.6834 34.4678 40.4667 34.5592C40.2499 34.6507 40.0724 34.8156 39.9652 35.025C39.4528 35.9587 38.8245 36.8238 38.0952 37.6C37.9392 37.7663 37.8448 37.9809 37.8275 38.2083C37.8102 38.4356 37.8712 38.662 38.0002 38.85L38.7252 39.85L36.3002 41.61L35.5752 40.61C35.437 40.4205 35.2366 40.2857 35.009 40.229C34.7814 40.1723 34.5411 40.1975 34.3302 40.3C33.3775 40.7613 32.3691 41.0974 31.3302 41.3C31.0973 41.3426 30.887 41.4665 30.7368 41.6496C30.5866 41.8327 30.5063 42.0632 30.5102 42.3V43.5H27.5002V42.265C27.5041 42.0282 27.4238 41.7977 27.2736 41.6146C27.1235 41.4315 26.9132 41.3076 26.6802 41.265C25.633 41.0633 24.6163 40.7272 23.6552 40.265C23.4454 40.1651 23.2074 40.1415 22.982 40.198C22.7566 40.2546 22.558 40.3879 22.4202 40.575L21.6902 41.575L19.2652 39.85L19.9902 38.85C20.127 38.661 20.1934 38.43 20.1779 38.1972C20.1624 37.9643 20.0659 37.7442 19.9052 37.575C19.1759 36.7988 18.5476 35.9337 18.0352 35C17.928 34.7906 17.7505 34.6257 17.5338 34.5342C17.317 34.4428 17.075 34.4307 16.8502 34.5L15.6752 34.885L14.7452 32.055L15.9202 31.67C16.1416 31.5974 16.3307 31.4498 16.4549 31.2526C16.5791 31.0554 16.6305 30.821 16.6002 30.59C16.4669 29.5342 16.4669 28.4658 16.6002 27.41C16.6305 27.179 16.5791 26.9446 16.4549 26.7474C16.3307 26.5502 16.1416 26.4026 15.9202 26.33L14.7452 25.945L15.6752 23.095L16.8502 23.5C17.075 23.5693 17.317 23.5572 17.5338 23.4658C17.7505 23.3743 17.928 23.2094 18.0352 23C18.5476 22.0663 19.1759 21.2012 19.9052 20.425C20.0674 20.257 20.1657 20.0375 20.1831 19.8047C20.2004 19.5718 20.1357 19.3402 20.0002 19.15L19.2752 18.15L21.7002 16.39L22.4252 17.39C22.5634 17.5795 22.7639 17.7143 22.9914 17.771C23.219 17.8276 23.4593 17.8025 23.6702 17.7C24.6229 17.2387 25.6313 16.9026 26.6702 16.7C26.9032 16.6574 27.1135 16.5335 27.2636 16.3504C27.4138 16.1673 27.4941 15.9368 27.4902 15.7V14.5H30.4902V15.735C30.4863 15.9718 30.5666 16.2023 30.7168 16.3854C30.867 16.5685 31.0773 16.6924 31.3102 16.735C32.3488 16.9387 33.3571 17.2748 34.3102 17.735C34.52 17.8349 34.7581 17.8585 34.9834 17.802C35.2088 17.7454 35.4074 17.6121 35.5452 17.425L36.2752 16.425L38.7002 18.19L38.0002 19.15C37.8634 19.339 37.797 19.57 37.8125 19.8028C37.828 20.0357 37.9245 20.2558 38.0852 20.425C38.818 21.2006 39.4497 22.0658 39.9652 23C40.0724 23.2094 40.2499 23.3743 40.4667 23.4658C40.6834 23.5572 40.9254 23.5693 41.1502 23.5L42.3252 23.115L43.2552 25.97L42.0802 26.355C41.8588 26.4276 41.6697 26.5752 41.5455 26.7724C41.4214 26.9696 41.37 27.204 41.4002 27.435C41.5336 28.4908 41.5336 29.5592 41.4002 30.615C41.37 30.846 41.4214 31.0804 41.5455 31.2776C41.6697 31.4748 41.8588 31.6224 42.0802 31.695L43.2552 32.08L42.3252 34.905Z" fill="#F29104"/>
<path d="M22.2801 22.28C23.8787 20.6964 25.985 19.7278 28.2278 19.5449C30.4706 19.3619 32.706 19.9764 34.5401 21.28H33.1501V22.28H36.2001C36.2804 22.28 36.3595 22.2606 36.4307 22.2236C36.5019 22.1865 36.5631 22.1329 36.6092 22.0672C36.6553 22.0015 36.6849 21.9256 36.6955 21.846C36.7061 21.7665 36.6974 21.6855 36.6701 21.61L35.6301 18.74L34.6901 19.085L35.1901 20.53C33.2313 19.0907 30.8337 18.3755 28.4064 18.5066C25.9791 18.6377 23.6725 19.6069 21.8801 21.2489C20.0877 22.8909 18.9205 25.1039 18.5776 27.5104C18.2348 29.9169 18.7375 32.3678 20.0001 34.445L20.8551 33.945C19.7496 32.1227 19.289 29.9815 19.5475 27.8658C19.8059 25.75 20.7684 23.7827 22.2801 22.28Z" fill="#F29104"/>
<path d="M37.1251 24.0751C38.2416 25.9436 38.6825 28.1389 38.3741 30.2937C38.0657 32.4484 37.0268 34.4319 35.431 35.9123C33.8352 37.3927 31.7795 38.2802 29.6077 38.4263C27.4359 38.5724 25.2798 37.9683 23.5001 36.7151H24.8851V35.7151H21.8351C21.7542 35.7148 21.6745 35.7342 21.6028 35.7715C21.531 35.8088 21.4694 35.863 21.4232 35.9293C21.377 35.9957 21.3475 36.0723 21.3374 36.1526C21.3273 36.2328 21.3368 36.3143 21.3651 36.3901L22.4051 39.2551L23.3451 38.9151L22.8151 37.4601C24.7736 38.8921 27.1677 39.6017 29.5902 39.4683C32.0128 39.3348 34.3144 38.3665 36.1037 36.728C37.8931 35.0895 39.0598 32.8818 39.4055 30.4803C39.7512 28.0789 39.2546 25.6318 38.0001 23.5551L37.1251 24.0751Z" fill="#F29104"/>
<path d="M22 30V32.5C22 32.6326 22.0527 32.7598 22.1464 32.8536C22.2402 32.9474 22.3674 33 22.5 33H26C26 33.1326 26.0527 33.2598 26.1464 33.3536C26.2402 33.4474 26.3674 33.5 26.5 33.5H31.5C31.6326 33.5 31.7598 33.4474 31.8536 33.3536C31.9473 33.2598 32 33.1326 32 33H35.5C35.6326 33 35.7598 32.9474 35.8536 32.8536C35.9473 32.7598 36 32.6326 36 32.5V30C35.9983 29.5758 35.8618 29.1631 35.6101 28.8215C35.3585 28.48 35.0047 28.2273 34.6 28.1C34.8815 27.8726 35.0855 27.5634 35.184 27.2152C35.2824 26.867 35.2705 26.4968 35.1499 26.1556C35.0293 25.8144 34.8058 25.519 34.5103 25.3101C34.2149 25.1012 33.8619 24.989 33.5 24.989C33.1381 24.989 32.7851 25.1012 32.4897 25.3101C32.1942 25.519 31.9707 25.8144 31.8501 26.1556C31.7295 26.4968 31.7176 26.867 31.816 27.2152C31.9145 27.5634 32.1185 27.8726 32.4 28.1C32.0865 28.1962 31.8015 28.3679 31.57 28.6C31.2388 28.1135 30.7466 27.7594 30.18 27.6C30.5206 27.3511 30.7738 27.0009 30.9034 26.5994C31.0329 26.1978 31.0322 25.7657 30.9013 25.3646C30.7703 24.9635 30.5159 24.6141 30.1745 24.3664C29.833 24.1186 29.4219 23.9852 29 23.9852C28.5781 23.9852 28.167 24.1186 27.8255 24.3664C27.4841 24.6141 27.2297 24.9635 27.0987 25.3646C26.9678 25.7657 26.9671 26.1978 27.0966 26.5994C27.2262 27.0009 27.4794 27.3511 27.82 27.6C27.2534 27.7594 26.7612 28.1135 26.43 28.6C26.1985 28.3679 25.9135 28.1962 25.6 28.1C25.8815 27.8726 26.0855 27.5634 26.184 27.2152C26.2824 26.867 26.2705 26.4968 26.1499 26.1556C26.0293 25.8144 25.8058 25.519 25.5103 25.3101C25.2149 25.1012 24.8619 24.989 24.5 24.989C24.1381 24.989 23.7851 25.1012 23.4897 25.3101C23.1942 25.519 22.9707 25.8144 22.8501 26.1556C22.7295 26.4968 22.7176 26.867 22.816 27.2152C22.9145 27.5634 23.1185 27.8726 23.4 28.1C22.9953 28.2273 22.6415 28.48 22.3899 28.8215C22.1382 29.1631 22.0017 29.5758 22 30ZM33.5 26C33.6483 26 33.7933 26.044 33.9167 26.1264C34.04 26.2088 34.1361 26.326 34.1929 26.463C34.2497 26.6001 34.2645 26.7509 34.2356 26.8964C34.2066 27.0418 34.1352 27.1755 34.0303 27.2804C33.9254 27.3853 33.7918 27.4567 33.6463 27.4856C33.5008 27.5146 33.35 27.4997 33.213 27.4429C33.0759 27.3862 32.9588 27.2901 32.8764 27.1667C32.794 27.0434 32.75 26.8984 32.75 26.75C32.75 26.5511 32.829 26.3604 32.9697 26.2197C33.1103 26.0791 33.3011 26 33.5 26ZM32 30C32 29.7348 32.1054 29.4805 32.2929 29.2929C32.4804 29.1054 32.7348 29 33 29H34C34.2652 29 34.5196 29.1054 34.7071 29.2929C34.8946 29.4805 35 29.7348 35 30V32H32V30ZM29 25C29.1978 25 29.3911 25.0587 29.5556 25.1686C29.72 25.2784 29.8482 25.4346 29.9239 25.6174C29.9996 25.8001 30.0194 26.0011 29.9808 26.1951C29.9422 26.3891 29.847 26.5673 29.7071 26.7071C29.5673 26.847 29.3891 26.9422 29.1951 26.9808C29.0011 27.0194 28.8 26.9996 28.6173 26.9239C28.4346 26.8482 28.2784 26.7201 28.1685 26.5556C28.0586 26.3912 28 26.1978 28 26C28 25.7348 28.1054 25.4805 28.2929 25.2929C28.4804 25.1054 28.7348 25 29 25ZM27 30C27 29.6022 27.158 29.2207 27.4393 28.9394C27.7206 28.6581 28.1022 28.5 28.5 28.5H29.5C29.8978 28.5 30.2794 28.6581 30.5607 28.9394C30.842 29.2207 31 29.6022 31 30V32.5H27V30ZM24.5 26C24.6483 26 24.7933 26.044 24.9167 26.1264C25.04 26.2088 25.1361 26.326 25.1929 26.463C25.2497 26.6001 25.2645 26.7509 25.2356 26.8964C25.2067 27.0418 25.1352 27.1755 25.0303 27.2804C24.9254 27.3853 24.7918 27.4567 24.6463 27.4856C24.5008 27.5146 24.35 27.4997 24.213 27.4429C24.0759 27.3862 23.9588 27.2901 23.8764 27.1667C23.794 27.0434 23.75 26.8984 23.75 26.75C23.75 26.5511 23.829 26.3604 23.9697 26.2197C24.1103 26.0791 24.3011 26 24.5 26ZM23 30C23 29.7348 23.1054 29.4805 23.2929 29.2929C23.4804 29.1054 23.7348 29 24 29H25C25.2652 29 25.5196 29.1054 25.7071 29.2929C25.8946 29.4805 26 29.7348 26 30V32H23V30Z" fill="#F29104"/>
</g>
<defs>
<clipPath id="clip0_199_153">
<rect width="32" height="32" fill="white" transform="translate(13 13)"/>
</clipPath>
</defs>
</svg>
