<svg width="33" height="33" viewBox="0 0 33 33" fill="none" xmlns="http://www.w3.org/2000/svg">
<g clip-path="url(#clip0_29_228)">
<path d="M28.3617 0H26.9429C26.3192 0 26.3192 0.966937 26.9429 0.966937H28.3617C29.8269 0.966937 31.0191 2.15472 31.0191 3.61467V14.8035C31.0191 16.2636 29.827 17.4513 28.3617 17.4513H26.7525C26.6464 17.4513 26.5432 17.4863 26.4588 17.5508L23.506 19.8094V17.9348C23.506 17.6678 23.2896 17.4513 23.0225 17.4513H17.1384C16.6566 17.4513 16.1935 17.3242 15.785 17.0824V11.6551C15.785 10.6386 15.2673 9.7404 14.481 9.20904V3.61467C14.481 2.15472 15.6731 0.966937 17.1384 0.966937H23.9132C24.5368 0.966937 24.5368 0 23.9132 0H17.1384C15.14 0 13.5141 1.62155 13.5141 3.61467V8.7841C13.2927 8.73125 13.0621 8.70243 12.8247 8.70243H3.97428C2.34203 8.70243 1.01404 10.027 1.01404 11.6551V12.6991C1.01404 13.3227 1.98097 13.3227 1.98097 12.6991V11.6551C1.98097 10.5602 2.87513 9.66937 3.97428 9.66937H12.8248C13.9239 9.66937 14.8182 10.5602 14.8182 11.6551V17.2748C14.8124 17.3175 14.8126 17.3605 14.8182 17.4029V20.4785C14.8182 20.5393 14.8145 20.5998 14.809 20.66H13.812C12.7133 20.66 11.7974 21.453 11.6075 22.4951C11.5636 22.5117 11.5214 22.5348 11.4822 22.565L9.31983 24.2347V22.9477C9.31983 22.6807 9.10343 22.4643 8.83636 22.4643H3.97428C2.87513 22.4643 1.98097 21.5735 1.98097 20.4785V15.5999C1.98097 14.9763 1.01404 14.9763 1.01404 15.5999V20.4786C1.01404 22.1067 2.34203 23.4313 3.97428 23.4313H8.35296V25.2188C8.35296 25.6066 8.82386 25.8393 9.13192 25.6015L11.5709 23.7184V29.1574C11.5709 30.3902 12.5763 31.3931 13.812 31.3931H16.7789V32.5213C16.7789 32.909 17.2498 33.1419 17.5578 32.904L19.5146 31.3931H20.0927C21.3285 31.3931 22.3339 30.3902 22.3339 29.1574V28.299C22.3339 27.6754 21.367 27.6754 21.367 28.299V29.1574C21.367 29.8571 20.7954 30.4262 20.0927 30.4262H19.3497C19.2427 30.4262 19.1388 30.4617 19.0542 30.527L17.7458 31.5372V30.9096C17.7458 30.6426 17.5294 30.4261 17.2623 30.4261H13.812C13.1094 30.4261 12.5377 29.8569 12.5377 29.1573V22.8958C12.5377 22.1962 13.1093 21.627 13.812 21.627H20.0927C20.7953 21.627 21.367 22.1962 21.367 22.8958V25.2693C21.367 25.8929 22.3339 25.8929 22.3339 25.2693V22.8959C22.3339 21.6631 21.3285 20.6601 20.0927 20.6601H15.7795C15.7832 20.5997 15.7851 18.1578 15.7851 18.1578C16.2114 18.3293 16.6684 18.4183 17.1385 18.4183H22.5391V20.788C22.5391 21.1748 23.008 21.4077 23.3164 21.172L26.9163 18.4183H28.3618C30.3602 18.4183 31.9861 16.7968 31.9861 14.8036V3.61467C31.986 1.62155 30.3601 0 28.3617 0V0Z" fill="#F29104"/>
<path d="M23.9581 3.57205C23.3442 3.41534 22.7187 3.90035 22.7187 4.53466C22.7187 5.2277 22.4661 5.89559 22.0078 6.41497L20.6758 7.92229C20.5895 7.78995 20.4405 7.70235 20.2708 7.70235H17.6704C17.4033 7.70235 17.1869 7.91881 17.1869 8.18582V14.0367C17.1869 14.3038 17.4033 14.5202 17.6704 14.5202H20.2708C20.4662 14.5202 20.634 14.4041 20.7103 14.2374C21.2367 14.5591 21.8468 14.733 22.4675 14.733H27.0632C27.7654 14.733 28.3448 14.1236 28.3118 13.4232C28.2972 13.113 28.3132 8.94789 28.3132 8.85539C28.3132 8.16615 27.7524 7.60533 27.0646 7.60533L24.6748 7.59818L24.7737 7.36386C25.2259 6.29294 25.1515 5.05114 24.5748 4.04185C24.4402 3.80604 24.2211 3.63928 23.9581 3.57205C24.2211 3.63928 23.695 3.50488 23.9581 3.57205C24.2211 3.63928 23.3443 3.41534 23.9581 3.57205ZM19.7873 13.5533H18.1538V8.66928H19.7873V13.5533ZM27.0632 8.5722C27.2193 8.5722 27.3463 8.6992 27.3463 8.85532C27.3463 8.94731 27.3453 9.19697 27.344 9.53547C27.3369 11.4044 27.3321 13.1744 27.3459 13.4686C27.3509 13.5747 27.2993 13.6455 27.2681 13.6783C27.2141 13.7349 27.1413 13.766 27.0632 13.766H22.4675C21.9197 13.766 21.3836 13.5762 20.9577 13.2315L20.7542 13.0667V9.29367L22.7327 7.05495C23.3472 6.3585 23.6856 5.46344 23.6856 4.5346C23.6856 4.50727 23.7229 4.50018 23.7353 4.52145C24.1635 5.2707 24.2186 6.19257 23.883 6.98759L23.5014 7.89129C23.4385 8.04039 23.4543 8.21102 23.5435 8.34601C23.6327 8.48099 23.7836 8.56234 23.9453 8.56286L27.0632 8.5722Z" fill="#F29104"/>
<path d="M5.15382 16.7923C4.88675 16.7923 4.67035 17.0088 4.67035 17.2758C4.67035 17.5428 4.88675 17.7593 5.15382 17.7593H6.57895L6.31272 19.3695C6.26915 19.6329 6.44745 19.8817 6.71084 19.9253C6.7376 19.9298 6.76409 19.9319 6.79026 19.9319C7.02258 19.9319 7.22751 19.764 7.2667 19.5272L7.55898 17.7593H8.72529L8.45907 19.3695C8.41549 19.6329 8.59379 19.8818 8.85719 19.9254C8.88394 19.9298 8.91043 19.932 8.9366 19.932C9.16893 19.932 9.37385 19.764 9.41304 19.5273L9.70532 17.7594H11.6452C11.9123 17.7594 12.1287 17.5429 12.1287 17.2759C12.1287 17.0089 11.9123 16.7924 11.6452 16.7924H9.86518L10.0602 15.613H11.6452C11.9123 15.613 12.1287 15.3966 12.1287 15.1296C12.1287 14.8626 11.9123 14.6461 11.6452 14.6461H10.2201L10.4863 13.0359C10.5299 12.7725 10.3516 12.5236 10.0882 12.48C9.82444 12.4363 9.57588 12.6148 9.5323 12.8782L9.24003 14.646H8.07371L8.33994 13.0358C8.38352 12.7724 8.20521 12.5236 7.94182 12.48C7.67778 12.4363 7.4296 12.6147 7.38596 12.8781L7.09369 14.646H5.15382C4.88675 14.646 4.67035 14.8624 4.67035 15.1294C4.67035 15.3964 4.88675 15.6129 5.15382 15.6129H6.93382L6.73882 16.7923H5.15382ZM7.91391 15.6129H9.08022L8.88523 16.7923H7.71891L7.91391 15.6129Z" fill="#F29104"/>
<path d="M16.9465 24.1216C16.5561 23.8002 16.0368 23.6734 15.5158 23.8C14.8481 23.9621 14.1744 24.5863 14.1744 25.615C14.1744 26.2553 14.4081 26.8111 14.8888 27.3142C15.2815 27.7251 15.8481 28.1159 16.7259 28.5813C16.7968 28.6189 16.8746 28.6377 16.9524 28.6377C17.0302 28.6377 17.108 28.6189 17.1788 28.5813C18.7103 27.7694 19.7303 26.9543 19.7303 25.615C19.7303 24.5807 19.0327 23.9629 18.3412 23.8096C17.8218 23.6943 17.3182 23.8167 16.9465 24.1216ZM18.7633 25.615C18.7633 26.3374 18.2841 26.8716 16.9523 27.6047C15.6205 26.8715 15.1413 26.3373 15.1413 25.615C15.1413 25.0775 15.4525 24.8104 15.7438 24.7396C15.7975 24.7266 15.855 24.7193 15.9142 24.7193C16.1333 24.7193 16.3742 24.8205 16.5227 25.1084C16.6073 25.2723 16.7784 25.3739 16.9619 25.3701C17.1462 25.3664 17.3125 25.2582 17.3904 25.0911C17.5469 24.7558 17.8759 24.6968 18.1317 24.7536C18.4371 24.8212 18.7633 25.0831 18.7633 25.615Z" fill="#F29104"/>
</g>
<defs>
<clipPath id="clip0_29_228">
<rect width="33" height="33" fill="white"/>
</clipPath>
</defs>
</svg>
