<svg width="58" height="58" viewBox="0 0 58 58" fill="none" xmlns="http://www.w3.org/2000/svg">
<circle cx="29" cy="29" r="28.5" fill="white" stroke="#E0ECF2"/>
<path d="M28.4356 22.3518C29.4101 22.3518 30.344 21.8606 31.0653 20.9693C31.724 20.1552 32.1017 19.1285 32.1017 18.1514C32.1017 16.183 30.5258 14.6986 28.4356 14.6986C26.3453 14.6986 24.7695 16.181 24.7695 18.1514C24.7695 19.1285 25.1472 20.1552 25.8059 20.9693C26.5271 21.8613 27.461 22.3518 28.4356 22.3518ZM28.4356 15.7621C29.9438 15.7621 31.0382 16.7669 31.0382 18.1514C31.0382 19.8916 29.6144 21.2883 28.4356 21.2883C26.9937 21.2883 25.8329 19.5719 25.8329 18.1514C25.8329 16.7695 26.9274 15.7621 28.4356 15.7621Z" fill="#F29104"/>
<path d="M24.0972 27.4553L23.724 32.7785C23.7191 32.8481 23.728 32.9181 23.7501 32.9843C23.7722 33.0505 23.8072 33.1118 23.853 33.1645C23.8987 33.2172 23.9545 33.2604 24.0169 33.2916C24.0794 33.3228 24.1474 33.3414 24.2171 33.3463H24.2545C24.389 33.3461 24.5185 33.2951 24.6169 33.2034C24.7153 33.1117 24.7753 32.9861 24.7849 32.8519L25.1581 27.5333C25.163 27.4636 25.1542 27.3937 25.132 27.3274C25.1099 27.2612 25.075 27.2 25.0292 27.1472C24.9834 27.0945 24.9277 27.0513 24.8652 27.0201C24.8027 26.9889 24.7347 26.9703 24.6651 26.9654C24.5954 26.9605 24.5254 26.9694 24.4592 26.9915C24.393 27.0136 24.3317 27.0486 24.279 27.0944C24.2263 27.1401 24.1831 27.1959 24.1519 27.2583C24.1207 27.3208 24.1021 27.3888 24.0972 27.4585V27.4553Z" fill="#F29104"/>
<path d="M35.6472 33.3455C35.7915 33.3328 35.9248 33.2633 36.018 33.1524C36.1111 33.0415 36.1565 32.8982 36.1442 32.7539C36.1442 32.7539 35.5821 28.7236 35.4996 27.3714C35.3469 24.9434 33.8638 22.9957 31.5467 22.6412C30.732 22.5161 29.2522 22.422 28.4787 22.4214C27.4229 22.4397 26.3688 22.5126 25.3205 22.6399C24.2338 22.7887 23.2384 23.3283 22.5207 24.1578C21.7666 25.0285 21.4295 26.1416 21.3605 27.374C21.2832 28.7275 20.7708 32.7597 20.7708 32.7597C20.7622 32.8296 20.7675 32.9005 20.7865 32.9683C20.8055 33.0361 20.8378 33.0995 20.8815 33.1547C20.9252 33.21 20.9794 33.256 21.0411 33.2901C21.1027 33.3242 21.1705 33.3457 21.2405 33.3534C21.3105 33.3611 21.3814 33.3548 21.4489 33.3349C21.5165 33.3149 21.5794 33.2818 21.6341 33.2373C21.6887 33.1929 21.734 33.138 21.7672 33.076C21.8005 33.0139 21.8211 32.9458 21.8278 32.8757C21.8278 32.8757 22.348 28.7997 22.4221 27.4326C22.5278 25.4952 23.6744 23.938 25.4656 23.6943C26.4653 23.5729 27.4706 23.5032 28.4775 23.4855C29.198 23.4855 30.6283 23.577 31.3849 23.693C32.2169 23.819 32.9775 24.2349 33.5325 24.8674C34.1229 25.5454 34.3788 26.4562 34.4349 27.4358C34.5167 28.8048 35.0878 32.8815 35.0878 32.8815C35.1084 33.0137 35.1767 33.1339 35.2797 33.2193C35.3827 33.3048 35.5134 33.3497 35.6472 33.3455Z" fill="#F29104"/>
<path d="M32.1906 26.9621C32.1206 26.9669 32.0522 26.9855 31.9894 27.0169C31.9266 27.0483 31.8707 27.0917 31.8248 27.1448C31.7789 27.1979 31.744 27.2596 31.722 27.3262C31.7001 27.3929 31.6915 27.4632 31.6969 27.5332L32.0707 32.8557C32.08 32.9899 32.1398 33.1156 32.2381 33.2075C32.3365 33.2994 32.4659 33.3505 32.6005 33.3507H32.6385C32.7791 33.3406 32.91 33.2752 33.0025 33.1687C33.0949 33.0623 33.1413 32.9235 33.1316 32.7829L32.7578 27.4597C32.7533 27.3897 32.735 27.3214 32.704 27.2585C32.6731 27.1956 32.63 27.1395 32.5774 27.0933C32.5247 27.0471 32.4634 27.0117 32.397 26.9892C32.3307 26.9667 32.2605 26.9575 32.1906 26.9621Z" fill="#F29104"/>
<path d="M31.8284 38.1602L34.3859 35.6672C34.4569 35.5979 34.5071 35.5102 34.5309 35.4139C34.5546 35.3176 34.551 35.2166 34.5204 35.1222C34.4897 35.0279 34.4333 34.944 34.3575 34.88C34.2817 34.8161 34.1895 34.7746 34.0913 34.7603L30.5574 34.2447L28.977 31.0446C28.9331 30.9555 28.8652 30.8806 28.7809 30.8281C28.6966 30.7757 28.5993 30.7479 28.5 30.7479C28.4008 30.7479 28.3035 30.7757 28.2192 30.8281C28.1349 30.8806 28.067 30.9555 28.0231 31.0446L26.4427 34.2466L22.9087 34.7622C22.8106 34.7766 22.7184 34.818 22.6426 34.882C22.5667 34.9459 22.5103 35.0298 22.4797 35.1242C22.449 35.2185 22.4454 35.3195 22.4692 35.4158C22.4929 35.5121 22.5431 35.5998 22.6142 35.6691L25.1717 38.1621L24.5684 41.6794C24.5513 41.7774 24.5621 41.8783 24.5995 41.9705C24.637 42.0628 24.6995 42.1426 24.7801 42.2011C24.8607 42.2595 24.9561 42.2941 25.0554 42.301C25.1547 42.3079 25.2539 42.2868 25.3418 42.2401L28.5 40.5785L31.6582 42.2401C31.7346 42.2801 31.8195 42.3011 31.9057 42.3013C31.9832 42.3012 32.0596 42.2842 32.1298 42.2515C32.2 42.2188 32.2622 42.1712 32.3121 42.112C32.362 42.0527 32.3983 41.9834 32.4187 41.9086C32.439 41.8339 32.4428 41.7557 32.4297 41.6794L31.8284 38.1602ZM28.2525 39.5073C27.6351 39.8218 25.7981 40.7963 25.7981 40.7963L26.2667 38.0629C26.2813 37.978 26.275 37.8908 26.2484 37.8088C26.2218 37.7268 26.1756 37.6526 26.114 37.5924L24.1282 35.6588L26.8726 35.2598C26.9578 35.2474 27.0388 35.2144 27.1085 35.1638C27.1782 35.1132 27.2346 35.0464 27.2728 34.9691L28.4974 32.4819L29.722 34.9691C29.7603 35.0464 29.8166 35.1132 29.8864 35.1638C29.9561 35.2144 30.037 35.2474 30.1223 35.2598L32.8667 35.6588L30.8809 37.5924C30.8192 37.6526 30.7731 37.7268 30.7465 37.8088C30.7199 37.8908 30.7136 37.978 30.7282 38.0629L31.1967 40.7963C31.1967 40.7963 29.3598 39.8205 28.7424 39.5073C28.6671 39.4667 28.5829 39.4454 28.4974 39.4454C28.4119 39.4454 28.3278 39.4667 28.2525 39.5073Z" fill="#F29104"/>
<path d="M43.107 36.3768L40.5231 36.001L39.3675 33.6601C39.3237 33.571 39.2558 33.496 39.1716 33.4436C39.0873 33.3911 38.9901 33.3633 38.8908 33.3633C38.7916 33.3633 38.6943 33.3911 38.6101 33.4436C38.5258 33.496 38.458 33.571 38.4142 33.6601L37.2586 36.001L34.6746 36.3768C34.5765 36.3911 34.4843 36.4326 34.4085 36.4965C34.3327 36.5605 34.2763 36.6444 34.2456 36.7387C34.215 36.8331 34.2113 36.9341 34.2351 37.0304C34.2589 37.1267 34.3091 37.2144 34.3801 37.2837L36.2492 39.1064L35.8077 41.6794C35.7907 41.7774 35.8014 41.8783 35.8389 41.9705C35.8763 42.0628 35.9389 42.1427 36.0195 42.2011C36.1001 42.2595 36.1954 42.2941 36.2947 42.301C36.394 42.3079 36.4933 42.2868 36.5812 42.2401L38.8918 41.0252L41.2031 42.2401C41.2795 42.2801 41.3644 42.3011 41.4506 42.3013C41.528 42.3012 41.6045 42.2842 41.6747 42.2515C41.7449 42.2188 41.8071 42.1712 41.857 42.112C41.9068 42.0528 41.9432 41.9834 41.9635 41.9087C41.9839 41.8339 41.9876 41.7557 41.9746 41.6794L41.5331 39.1064L43.4022 37.2837C43.4732 37.2144 43.5235 37.1267 43.5472 37.0304C43.571 36.9341 43.5674 36.8331 43.5367 36.7387C43.5061 36.6444 43.4497 36.5605 43.3738 36.4965C43.298 36.4326 43.2058 36.3911 43.1077 36.3768H43.107ZM38.6437 39.9539C38.2383 40.1576 37.0381 40.7976 37.0381 40.7976L37.3449 39.0104C37.3595 38.9254 37.3532 38.8382 37.3266 38.7563C37.3 38.6743 37.2539 38.6 37.1922 38.5398L35.8934 37.274L37.6878 37.0162C37.7732 37.0038 37.8543 36.9708 37.924 36.9201C37.9938 36.8693 38.0501 36.8023 38.0881 36.7248L38.8905 35.0993L39.693 36.7248C39.7312 36.8022 39.7877 36.8692 39.8575 36.9199C39.9273 36.9707 40.0084 37.0037 40.0939 37.0162L41.8876 37.274L40.5895 38.5398C40.5277 38.6 40.4815 38.6742 40.4549 38.7562C40.4283 38.8382 40.4221 38.9254 40.4367 39.0104L40.7461 40.7976C40.7461 40.7976 39.5467 40.1576 39.1412 39.9539C39.0648 39.9128 38.9793 39.8912 38.8925 39.8912C38.8056 39.8912 38.7201 39.9128 38.6437 39.9539Z" fill="#F29104"/>
<path d="M22.3254 36.3768L19.7414 36.001L18.5858 33.6601C18.542 33.571 18.4742 33.496 18.3899 33.4436C18.3057 33.3911 18.2084 33.3633 18.1092 33.3633C18.0099 33.3633 17.9127 33.3911 17.8284 33.4436C17.7442 33.496 17.6763 33.571 17.6325 33.6601L16.4769 36.001L13.893 36.3768C13.7948 36.3911 13.7026 36.4326 13.6268 36.4965C13.551 36.5605 13.4946 36.6444 13.4639 36.7387C13.4333 36.8331 13.4297 36.9341 13.4534 37.0304C13.4772 37.1267 13.5274 37.2144 13.5984 37.2837L15.4676 39.1064L15.0293 41.6794C15.0122 41.7774 15.023 41.8783 15.0604 41.9705C15.0979 42.0628 15.1604 42.1427 15.241 42.2011C15.3216 42.2595 15.417 42.2941 15.5163 42.301C15.6156 42.3079 15.7148 42.2868 15.8027 42.2401L18.114 41.0252L20.4246 42.2401C20.501 42.2801 20.5859 42.3011 20.6721 42.3013C20.7496 42.3012 20.826 42.2842 20.8962 42.2515C20.9664 42.2188 21.0286 42.1712 21.0785 42.112C21.1284 42.0528 21.1648 41.9834 21.1851 41.9087C21.2054 41.8339 21.2092 41.7557 21.1961 41.6794L20.7546 39.1064L22.6238 37.2837C22.6948 37.2144 22.745 37.1267 22.7688 37.0304C22.7925 36.9341 22.7889 36.8331 22.7583 36.7387C22.7276 36.6444 22.6712 36.5605 22.5954 36.4965C22.5196 36.4326 22.4274 36.3911 22.3292 36.3768H22.3254ZM17.8652 39.9539L16.2571 40.7976L16.5633 39.0104C16.5779 38.9254 16.5717 38.8382 16.5451 38.7562C16.5185 38.6742 16.4723 38.6 16.4105 38.5398L15.1124 37.274L16.9061 37.0162C16.9916 37.0037 17.0727 36.9707 17.1425 36.9199C17.2123 36.8692 17.2688 36.8022 17.307 36.7248L18.1095 35.0993L18.9119 36.7248C18.9499 36.8023 19.0062 36.8693 19.076 36.9201C19.1457 36.9708 19.2268 37.0038 19.3122 37.0162L21.1066 37.274L19.8078 38.5398C19.7461 38.6 19.7 38.6743 19.6734 38.7563C19.6468 38.8382 19.6405 38.9254 19.6551 39.0104L19.9619 40.7976L18.3563 39.9539C18.2824 39.9087 18.1974 39.8848 18.1108 39.8848C18.0241 39.8848 17.9391 39.9087 17.8652 39.9539Z" fill="#F29104"/>
</svg>
