<svg width="33" height="33" viewBox="0 0 33 33" fill="none" xmlns="http://www.w3.org/2000/svg">
<g clip-path="url(#clip0_135_1154)">
<path d="M31.5201 18.6708L30.3084 18.2686C30.3847 17.6822 30.4226 17.0914 30.4218 16.5C30.4224 15.9069 30.3845 15.3144 30.3084 14.7262L31.5201 14.3292C31.7798 14.2443 31.9952 14.0597 32.119 13.8161C32.2427 13.5725 32.2647 13.2897 32.1801 13.0298L31.2262 10.0908C31.1844 9.96115 31.1173 9.8411 31.0288 9.73755C30.9403 9.63401 30.8321 9.54902 30.7106 9.4875C30.5876 9.42366 30.4529 9.38527 30.3147 9.37464C30.1765 9.36401 30.0376 9.38135 29.9062 9.42563L28.71 9.79688C28.1488 8.75642 27.4556 7.79282 26.6475 6.93L27.3951 5.89875C27.4753 5.78916 27.5331 5.66481 27.5651 5.53285C27.597 5.40088 27.6027 5.26389 27.5816 5.12975C27.5605 4.9956 27.5131 4.86694 27.4422 4.75115C27.3713 4.63536 27.2782 4.53472 27.1683 4.455L24.6417 2.66062C24.4207 2.50032 24.1452 2.43418 23.8755 2.47671C23.6058 2.51924 23.364 2.66696 23.2031 2.8875L22.4503 3.91875C21.3788 3.40755 20.2451 3.03834 19.0781 2.82047V1.54688C19.0781 1.27337 18.9694 1.01107 18.7761 0.817671C18.5827 0.624274 18.3204 0.515625 18.0468 0.515625H14.9531C14.6796 0.515625 14.4173 0.624274 14.2239 0.817671C14.0305 1.01107 13.9218 1.27337 13.9218 1.54688V2.82047C12.7529 3.03722 11.6174 3.40647 10.5445 3.91875L9.79685 2.8875C9.63593 2.66696 9.39412 2.51924 9.12445 2.47671C8.85477 2.43418 8.57924 2.50032 8.35826 2.66062L5.85232 4.47563C5.74239 4.55534 5.64929 4.65599 5.57836 4.77178C5.50743 4.88757 5.46006 5.01623 5.43898 5.15037C5.4179 5.28452 5.42352 5.4215 5.45552 5.55347C5.48752 5.68544 5.54526 5.80978 5.62544 5.91937L6.36794 6.95062C5.55998 7.81544 4.86678 8.78073 4.30544 9.82266L3.09372 9.42563C2.96474 9.38385 2.82878 9.36793 2.69363 9.37876C2.55848 9.38959 2.42679 9.42697 2.3061 9.48875C2.18541 9.55053 2.07809 9.6355 1.99028 9.73881C1.90247 9.84211 1.83589 9.96172 1.79435 10.0908L0.840443 13.0298C0.755857 13.2897 0.777853 13.5725 0.9016 13.8161C1.02535 14.0597 1.24073 14.2443 1.50044 14.3292L2.71216 14.7314C2.62897 15.3174 2.58419 15.9082 2.5781 16.5C2.57752 17.0931 2.61541 17.6856 2.69154 18.2737L1.47982 18.6708C1.2201 18.7557 1.00472 18.9403 0.880975 19.1839C0.757228 19.4275 0.735232 19.7103 0.819818 19.9702L1.77372 22.9092C1.81557 23.0388 1.88268 23.1589 1.97118 23.2624C2.05968 23.366 2.16782 23.451 2.28935 23.5125C2.41239 23.5763 2.54703 23.6147 2.68524 23.6254C2.82344 23.636 2.96237 23.6187 3.09372 23.5744L4.28997 23.2031C4.85115 24.2436 5.54439 25.2072 6.35247 26.07L5.60482 27.1013C5.52464 27.2108 5.46689 27.3352 5.4349 27.4672C5.4029 27.5991 5.39728 27.7361 5.41836 27.8703C5.43944 28.0044 5.4868 28.1331 5.55773 28.2488C5.62866 28.3646 5.72177 28.4653 5.83169 28.545L8.33763 30.36C8.44897 30.4416 8.57554 30.5 8.70986 30.5317C8.84418 30.5635 8.98351 30.568 9.11959 30.5449C9.25567 30.5218 9.38573 30.4716 9.50206 30.3974C9.6184 30.3231 9.71864 30.2262 9.79685 30.1125L10.5497 29.0813C11.6212 29.5924 12.7548 29.9617 13.9218 30.1795V31.4531C13.9218 31.7266 14.0305 31.9889 14.2239 32.1823C14.4173 32.3757 14.6796 32.4844 14.9531 32.4844H18.0468C18.3204 32.4844 18.5827 32.3757 18.7761 32.1823C18.9694 31.9889 19.0781 31.7266 19.0781 31.4531V30.1795C20.2453 29.9623 21.379 29.5931 22.4503 29.0813L23.1979 30.1125C23.3589 30.333 23.6007 30.4808 23.8703 30.5233C24.14 30.5658 24.4156 30.4997 24.6365 30.3394L27.1425 28.5244C27.2524 28.4447 27.3455 28.344 27.4164 28.2282C27.4874 28.1124 27.5347 27.9838 27.5558 27.8496C27.5769 27.7155 27.5713 27.5785 27.5393 27.4465C27.5073 27.3146 27.4495 27.1902 27.3694 27.0806L26.6268 26.0494C27.4348 25.1846 28.128 24.2193 28.6893 23.1773L29.9062 23.5744C30.0352 23.6161 30.1712 23.6321 30.3063 23.6212C30.4415 23.6104 30.5732 23.573 30.6938 23.5113C30.8145 23.4495 30.9219 23.3645 31.0097 23.2612C31.0975 23.1579 31.1641 23.0383 31.2056 22.9092L32.1595 19.9702C32.245 19.713 32.2259 19.4325 32.1063 19.1894C31.9866 18.9462 31.7761 18.7599 31.5201 18.6708ZM30.2414 22.5895L29.0297 22.1977C28.7979 22.1261 28.5483 22.1386 28.3248 22.2329C28.1012 22.3272 27.9181 22.4973 27.8076 22.7133C27.2792 23.6761 26.6313 24.5683 25.8792 25.3687C25.7184 25.5403 25.621 25.7616 25.6031 25.996C25.5853 26.2305 25.6482 26.464 25.7812 26.6578L26.5289 27.6891L24.0281 29.5041L23.2804 28.4728C23.1379 28.2774 22.9312 28.1384 22.6965 28.0799C22.4618 28.0215 22.2141 28.0474 21.9965 28.1531C21.0141 28.6288 19.9742 28.9755 18.9028 29.1844C18.6625 29.2283 18.4457 29.3561 18.2908 29.5449C18.136 29.7338 18.0532 29.9714 18.0572 30.2156V31.4531H14.9531V30.1795C14.9571 29.9353 14.8743 29.6977 14.7194 29.5088C14.5646 29.32 14.3477 29.1922 14.1075 29.1483C13.0276 28.9403 11.979 28.5937 10.9879 28.117C10.7716 28.0141 10.5261 27.9896 10.2937 28.048C10.0613 28.1063 9.85643 28.2438 9.71435 28.4367L8.96154 29.468L6.46076 27.6891L7.20841 26.6578C7.34952 26.4629 7.418 26.2247 7.40199 25.9846C7.38598 25.7444 7.28649 25.5175 7.12076 25.343C6.36868 24.5426 5.72074 23.6503 5.19232 22.6875C5.08181 22.4715 4.8987 22.3015 4.6752 22.2072C4.45169 22.1129 4.20209 22.1004 3.97029 22.1719L2.75857 22.5689L1.79951 19.6505L3.01122 19.2534C3.23956 19.1786 3.43459 19.0263 3.56262 18.823C3.69066 18.6196 3.74366 18.378 3.71247 18.1397C3.57497 17.0509 3.57497 15.9491 3.71247 14.8603C3.74366 14.622 3.69066 14.3804 3.56262 14.177C3.43459 13.9737 3.23956 13.8214 3.01122 13.7466L1.79951 13.3495L2.75857 10.4105L3.97029 10.8281C4.20209 10.8996 4.45169 10.8871 4.6752 10.7928C4.8987 10.6985 5.08181 10.5285 5.19232 10.3125C5.72074 9.34966 6.36868 8.45744 7.12076 7.65703C7.28804 7.48379 7.38942 7.25747 7.40732 7.01731C7.42521 6.77715 7.35849 6.5383 7.21872 6.34219L6.47107 5.31094L8.97185 3.49594L9.71951 4.52719C9.86205 4.72257 10.0687 4.86164 10.3034 4.92008C10.5381 4.97851 10.7859 4.9526 11.0034 4.84687C11.9859 4.37117 13.0258 4.02455 14.0972 3.81562C14.3374 3.7717 14.5543 3.64394 14.7091 3.45509C14.864 3.26624 14.9468 3.02856 14.9428 2.78437V1.54688H18.0365V2.82047C18.0326 3.06466 18.1154 3.30233 18.2702 3.49118C18.4251 3.68003 18.6419 3.80779 18.8822 3.85172C19.9533 4.06181 20.993 4.40838 21.9759 4.88297C22.1923 4.98595 22.4378 5.01037 22.6702 4.95203C22.9026 4.89369 23.1074 4.75624 23.2495 4.56328L24.0023 3.53203L26.5031 5.35219L25.7812 6.34219C25.6401 6.53714 25.5716 6.77531 25.5876 7.01544C25.6037 7.25557 25.7031 7.48253 25.8689 7.65703C26.6246 8.45684 27.276 9.34909 27.8076 10.3125C27.9181 10.5285 28.1012 10.6985 28.3248 10.7928C28.5483 10.8871 28.7979 10.8996 29.0297 10.8281L30.2414 10.4311L31.2004 13.3753L29.9887 13.7723C29.7604 13.8472 29.5654 13.9995 29.4373 14.2028C29.3093 14.4062 29.2563 14.6478 29.2875 14.8861C29.425 15.9749 29.425 17.0767 29.2875 18.1655C29.2563 18.4037 29.3093 18.6454 29.4373 18.8488C29.5654 19.0521 29.7604 19.2044 29.9887 19.2792L31.2004 19.6763L30.2414 22.5895Z" fill="#F29104"/>
<path d="M9.56997 9.56994C11.2186 7.93682 13.3907 6.93794 15.7035 6.74928C18.0164 6.56063 20.3216 7.19432 22.2131 8.53869H20.7797V9.56994H23.925C24.0078 9.5699 24.0893 9.54994 24.1627 9.51173C24.2362 9.47352 24.2993 9.4182 24.3469 9.35043C24.3944 9.28266 24.4249 9.20444 24.4359 9.12239C24.4468 9.04033 24.4378 8.95685 24.4097 8.879L23.3372 5.91931L22.3678 6.2751L22.8834 7.76525C20.8634 6.2809 18.3909 5.54342 15.8877 5.67861C13.3846 5.8138 11.0059 6.81329 9.15749 8.50658C7.30905 10.1999 6.10538 12.482 5.75182 14.9637C5.39826 17.4455 5.91671 19.973 7.21872 22.1151L8.10044 21.5995C6.96038 19.7202 6.48543 17.5121 6.75197 15.3302C7.0185 13.1484 8.01104 11.1195 9.56997 9.56994Z" fill="#F29104"/>
<path d="M24.8789 11.4211C26.0303 13.3481 26.485 15.612 26.167 17.8341C25.8489 20.0562 24.7775 22.1016 23.1319 23.6283C21.4862 25.155 19.3663 26.0702 17.1266 26.2209C14.8869 26.3716 12.6635 25.7486 10.8281 24.4561H12.2564V23.4249H9.11111C9.02771 23.4246 8.94548 23.4446 8.87149 23.4831C8.7975 23.5216 8.73394 23.5774 8.68628 23.6459C8.63863 23.7143 8.60828 23.7933 8.59786 23.8761C8.58743 23.9588 8.59723 24.0429 8.62643 24.121L9.69893 27.0755L10.6683 26.7249L10.1217 25.2244C12.1415 26.7012 14.6103 27.433 17.1086 27.2954C19.6068 27.1578 21.9803 26.1592 23.8256 24.4695C25.6709 22.7797 26.874 20.5031 27.2306 18.0266C27.5871 15.5501 27.075 13.0265 25.7813 10.8849L24.8789 11.4211Z" fill="#F29104"/>
<path d="M9.28125 17.5313V20.1094C9.28125 20.2461 9.33557 20.3773 9.43227 20.474C9.52897 20.5707 9.66012 20.625 9.79688 20.625H13.4062C13.4062 20.7618 13.4606 20.8929 13.5573 20.9896C13.654 21.0863 13.7851 21.1406 13.9219 21.1406H19.0781C19.2149 21.1406 19.346 21.0863 19.4427 20.9896C19.5394 20.8929 19.5938 20.7618 19.5938 20.625H23.2031C23.3399 20.625 23.471 20.5707 23.5677 20.474C23.6644 20.3773 23.7188 20.2461 23.7188 20.1094V17.5313C23.717 17.0938 23.5762 16.6681 23.3167 16.3159C23.0572 15.9637 22.6924 15.7031 22.275 15.5719C22.5653 15.3373 22.7756 15.0185 22.8772 14.6594C22.9788 14.3003 22.9665 13.9185 22.8421 13.5667C22.7177 13.2148 22.4873 12.9102 22.1825 12.6948C21.8778 12.4793 21.5138 12.3636 21.1406 12.3636C20.7674 12.3636 20.4034 12.4793 20.0987 12.6948C19.794 12.9102 19.5636 13.2148 19.4392 13.5667C19.3148 13.9185 19.3025 14.3003 19.404 14.6594C19.5056 15.0185 19.716 15.3373 20.0062 15.5719C19.683 15.671 19.389 15.8481 19.1503 16.0875C18.8088 15.5857 18.3012 15.2206 17.7169 15.0563C18.0682 14.7996 18.3293 14.4384 18.4629 14.0243C18.5965 13.6102 18.5957 13.1646 18.4607 12.751C18.3257 12.3374 18.0633 11.9771 17.7112 11.7216C17.359 11.4661 16.9351 11.3285 16.5 11.3285C16.0649 11.3285 15.641 11.4661 15.2888 11.7216C14.9367 11.9771 14.6743 12.3374 14.5393 12.751C14.4043 13.1646 14.4035 13.6102 14.5371 14.0243C14.6707 14.4384 14.9318 14.7996 15.2831 15.0563C14.6988 15.2206 14.1912 15.5857 13.8497 16.0875C13.611 15.8481 13.317 15.671 12.9938 15.5719C13.284 15.3373 13.4944 15.0185 13.596 14.6594C13.6975 14.3003 13.6852 13.9185 13.5608 13.5667C13.4364 13.2148 13.206 12.9102 12.9013 12.6948C12.5966 12.4793 12.2326 12.3636 11.8594 12.3636C11.4862 12.3636 11.1222 12.4793 10.8175 12.6948C10.5127 12.9102 10.2823 13.2148 10.1579 13.5667C10.0335 13.9185 10.0212 14.3003 10.1228 14.6594C10.2244 15.0185 10.4347 15.3373 10.725 15.5719C10.3076 15.7031 9.94283 15.9637 9.68331 16.3159C9.42378 16.6681 9.28297 17.0938 9.28125 17.5313ZM21.1406 13.4063C21.2936 13.4063 21.4431 13.4516 21.5703 13.5366C21.6975 13.6216 21.7966 13.7424 21.8552 13.8837C21.9137 14.025 21.929 14.1806 21.8992 14.3306C21.8694 14.4806 21.7957 14.6184 21.6875 14.7266C21.5794 14.8348 21.4415 14.9084 21.2915 14.9383C21.1415 14.9681 20.986 14.9528 20.8446 14.8943C20.7033 14.8357 20.5825 14.7366 20.4975 14.6094C20.4125 14.4822 20.3672 14.3327 20.3672 14.1797C20.3672 13.9746 20.4487 13.7778 20.5937 13.6328C20.7388 13.4877 20.9355 13.4063 21.1406 13.4063ZM19.5938 17.5313C19.5938 17.2578 19.7024 16.9955 19.8958 16.8021C20.0892 16.6087 20.3515 16.5 20.625 16.5H21.6562C21.9298 16.5 22.1921 16.6087 22.3855 16.8021C22.5789 16.9955 22.6875 17.2578 22.6875 17.5313V19.5938H19.5938V17.5313ZM16.5 12.375C16.704 12.375 16.9033 12.4355 17.0729 12.5488C17.2425 12.6621 17.3747 12.8232 17.4528 13.0116C17.5308 13.2001 17.5512 13.4074 17.5114 13.6074C17.4716 13.8075 17.3734 13.9912 17.2292 14.1355C17.085 14.2797 16.9012 14.3779 16.7012 14.4177C16.5011 14.4575 16.2938 14.4371 16.1054 14.359C15.9169 14.281 15.7559 14.1488 15.6425 13.9792C15.5292 13.8096 15.4688 13.6102 15.4688 13.4063C15.4688 13.1328 15.5774 12.8705 15.7708 12.6771C15.9642 12.4837 16.2265 12.375 16.5 12.375ZM14.4375 17.5313C14.4375 17.121 14.6005 16.7276 14.8906 16.4375C15.1807 16.1474 15.5741 15.9844 15.9844 15.9844H17.0156C17.4259 15.9844 17.8193 16.1474 18.1094 16.4375C18.3995 16.7276 18.5625 17.121 18.5625 17.5313V20.1094H14.4375V17.5313ZM11.8594 13.4063C12.0123 13.4063 12.1619 13.4516 12.2891 13.5366C12.4163 13.6216 12.5154 13.7424 12.5739 13.8837C12.6325 14.025 12.6478 14.1806 12.618 14.3306C12.5881 14.4806 12.5144 14.6184 12.4063 14.7266C12.2981 14.8348 12.1603 14.9084 12.0103 14.9383C11.8602 14.9681 11.7047 14.9528 11.5634 14.8943C11.4221 14.8357 11.3013 14.7366 11.2163 14.6094C11.1313 14.4822 11.0859 14.3327 11.0859 14.1797C11.0859 13.9746 11.1674 13.7778 11.3125 13.6328C11.4575 13.4877 11.6542 13.4063 11.8594 13.4063ZM10.3125 17.5313C10.3125 17.2578 10.4211 16.9955 10.6145 16.8021C10.8079 16.6087 11.0702 16.5 11.3438 16.5H12.375C12.6485 16.5 12.9108 16.6087 13.1042 16.8021C13.2976 16.9955 13.4062 17.2578 13.4062 17.5313V19.5938H10.3125V17.5313Z" fill="#F29104"/>
</g>
<defs>
<clipPath id="clip0_135_1154">
<rect width="33" height="33" fill="white"/>
</clipPath>
</defs>
</svg>
