<svg viewBox="0 0 145.1 33.6" width="180" xmlns="http://www.w3.org/2000/svg" class="margin-right-md" title="MY YARD TECH Europe"><g fill="#606060"><path d="m58.1 30.3c-.4-.1-.7-.3-.9-.6l.2-.3c.2.2.5.4.9.5s.7.2 1.1.2c.6 0 1-.1 1.3-.3s.4-.5.4-.8 0-.5-.2-.6-.3-.3-.6-.4c-.2 0-.5-.2-.9-.3-.5 0-.8-.2-1.1-.3-.3 0-.5-.3-.7-.5s-.3-.5-.3-.8 0-.5.2-.8c.2-.2.4-.4.7-.6s.7-.2 1.2-.2.7 0 1 .1c.3 0 .6.2.8.4l-.2.3c-.2-.2-.5-.3-.8-.4-.3 0-.6-.1-.9-.1-.6 0-1 .1-1.3.3s-.4.5-.4.8 0 .5.2.6.3.3.6.4c.2 0 .5.2.9.3.5 0 .8.2 1.1.3.3 0 .5.2.7.5.2.2.3.5.3.8s0 .5-.2.8c-.2.2-.4.4-.7.6-.3.1-.7.2-1.2.2-.4 0-.8 0-1.2-.2z"></path><path d="m65.6 30.2c-.1 0-.2.2-.4.2s-.3 0-.5 0c-.4 0-.7 0-.9-.3-.2-.2-.3-.5-.3-.9v-2.9h-.8v-.4h.8v-1h.4v1h1.4v.4h-1.4v2.8c0 .3 0 .5.2.6.1.1.3.2.6.2s.5 0 .7-.2l.2.3z"></path><path d="m70 26.4c.3.3.5.7.5 1.2v2.8h-.4v-.8c-.1.3-.3.5-.6.6s-.6.2-1 .2-.9-.1-1.2-.3-.4-.5-.4-.9.1-.7.4-.9.7-.3 1.3-.3h1.5v-.3c0-.4-.1-.7-.3-.9s-.6-.3-1-.3-.6 0-.9.1c-.3 0-.5.2-.7.4l-.2-.3c.2-.2.5-.3.8-.5.3-.1.6-.2 1-.2.6 0 1 .1 1.3.4zm-.6 3.5c.3-.2.5-.4.6-.7v-.8h-1.5c-.5 0-.8 0-1 .2-.2.1-.3.4-.3.6s.1.5.3.7.5.2.9.2.7 0 1-.2z"></path><path d="m73.7 26.3c.3-.2.7-.3 1.1-.3v.4h-.1c-.5 0-.9.1-1.2.4s-.4.7-.4 1.3v2.3h-.4v-4.4h.4v1c.1-.3.3-.6.6-.7z"></path><path d="m78.9 30.2c-.1 0-.2.2-.4.2s-.3 0-.5 0c-.4 0-.7 0-.9-.3-.2-.2-.3-.5-.3-.9v-2.9h-.8v-.4h.8v-1h.4v1h1.4v.4h-1.4v2.8c0 .3 0 .5.2.6.1.1.3.2.6.2s.5 0 .7-.2l.2.3z"></path><path d="m84.4 26.1v4.4h-.4v-.9c-.2.3-.4.5-.7.7s-.6.3-1 .3c-.6 0-1-.2-1.4-.5-.3-.3-.5-.8-.5-1.4v-2.6h.4v2.5c0 .5.1.9.4 1.1.3.3.6.4 1.1.4s.9-.1 1.2-.5c.3-.3.5-.7.5-1.2v-2.3z"></path><path d="m90.1 26.3c.3.2.6.4.8.8.2.3.3.7.3 1.2s-.1.8-.3 1.2c-.2.3-.5.6-.8.8s-.7.3-1.1.3-.8 0-1.1-.3c-.3-.2-.6-.4-.7-.8v2.6h-.4v-6.1h.4v1c.2-.3.4-.6.8-.8.3-.2.7-.3 1.1-.3s.8 0 1.1.3zm-.2 3.6c.3-.1.5-.4.7-.7s.2-.6.2-1 0-.7-.2-1-.4-.5-.7-.7c-.3-.1-.6-.2-.9-.2s-.7 0-.9.2c-.3.2-.5.4-.6.7-.2.3-.2.6-.2 1s0 .7.2 1 .4.5.6.7c.3.2.6.2.9.2s.7 0 .9-.2z"></path><path d="m96.1 25.4v.6h1.4v.4h-1.4v4.1h-.4v-4.1h-.8v-.4h.8v-.7c0-.4.1-.7.3-.9s.5-.3.9-.3.3 0 .5 0 .3.1.4.2l-.2.3c-.2-.2-.4-.2-.7-.2-.6 0-.8.3-.8.9z"></path><path d="m100.6 26.3c.3-.2.7-.3 1.1-.3v.4h-.1c-.5 0-.9.1-1.2.4s-.4.7-.4 1.3v2.3h-.4v-4.4h.4v1c.1-.3.3-.6.6-.7z"></path><path d="m103.9 30.2c-.3-.2-.6-.5-.8-.8s-.3-.7-.3-1.1.1-.8.3-1.1.5-.6.8-.8.7-.3 1.2-.3.8 0 1.2.3c.3.2.6.5.8.8s.3.7.3 1.1-.1.8-.3 1.1-.5.6-.8.8-.7.3-1.2.3-.8 0-1.2-.3zm2.1-.3c.3-.1.5-.4.6-.7.2-.3.2-.6.2-1s0-.7-.2-1-.4-.5-.6-.7c-.3-.1-.6-.2-.9-.2s-.7 0-.9.2c-.3.2-.5.4-.6.7-.2.3-.2.6-.2 1s0 .7.2 1 .4.5.6.7c.3.2.6.2.9.2s.7 0 .9-.2z"></path><path d="m116 26.5c.3.3.5.8.5 1.4v2.6h-.4v-2.5c0-.5-.1-.9-.4-1.1-.2-.3-.6-.4-1-.4s-.9.1-1.2.5c-.3.3-.5.7-.5 1.2v2.3h-.4v-2.5c0-.5-.1-.9-.4-1.1-.2-.3-.6-.4-1-.4s-.9.1-1.2.5c-.3.3-.4.7-.4 1.2v2.3h-.4v-4.4h.4v.9c.2-.3.4-.5.7-.7s.6-.3 1.1-.3.8 0 1 .3c.3.2.5.4.6.8.2-.3.4-.6.7-.8s.7-.3 1.1-.3c.6 0 1 .2 1.3.5z"></path><path d="m121.5 24.5h2.4c.6 0 1.2.1 1.7.4.5.2.9.6 1.1 1 .3.4.4 1 .4 1.5s-.1 1.1-.4 1.5-.6.8-1.1 1-1 .4-1.7.4h-2.4v-5.9zm2.3 5.6c.6 0 1.1-.1 1.5-.3s.8-.5 1-.9.3-.8.3-1.3-.1-.9-.3-1.3-.6-.7-1-.9-.9-.3-1.5-.3h-1.9v5.1h1.9z"></path><path d="m132.7 28.4h-3.9c0 .3.1.6.3.9s.4.5.7.6.6.2 1 .2.6 0 .8-.1c.2 0 .5-.3.6-.5l.2.3c-.2.2-.5.4-.7.5-.3.1-.6.2-1 .2s-.8 0-1.2-.3c-.3-.2-.6-.4-.8-.8-.2-.3-.3-.7-.3-1.2s0-.8.3-1.1c.2-.3.4-.6.8-.8.3-.2.7-.3 1.1-.3s.8 0 1.1.3c.3.2.6.4.8.8.2.3.3.7.3 1.1zm-3-1.8c-.3.1-.5.3-.6.6-.2.2-.2.5-.3.8h3.5c0-.3-.1-.6-.3-.8s-.4-.4-.6-.6c-.3-.1-.5-.2-.8-.2s-.6 0-.9.2z"></path><path d="m134.6 30.3c-.3 0-.6-.2-.8-.4l.2-.3c.2.1.4.3.7.4.3 0 .6.1.9.1s.8 0 1-.2c.2-.1.3-.3.3-.6s0-.3-.2-.4c-.1 0-.3-.2-.4-.2-.2 0-.4 0-.7-.2-.4 0-.6-.1-.9-.2-.2 0-.4-.2-.6-.3-.2-.2-.2-.4-.2-.7s.2-.6.5-.9c.3-.2.7-.3 1.3-.3s.6 0 .8.1c.3 0 .5.2.7.3l-.2.3c-.2-.1-.4-.2-.6-.3-.2 0-.5 0-.7 0-.4 0-.7 0-1 .2-.2.1-.3.3-.3.6s0 .3.2.5c.1.1.3.2.4.2.2 0 .4.1.7.2.3 0 .6.1.8.2.2 0 .4.2.6.3.2.2.2.4.2.6s-.2.7-.5.9-.7.3-1.3.3c-.4 0-.8 0-1.1-.2z"></path><path d="m140.7 28.1-1.2 1v1.3h-.4v-6.3h.4v4.4l2.9-2.6h.6l-1.9 1.8 2.1 2.6h-.5l-1.9-2.4z"></path></g><path d="m65.4 14.1-5.9-10.9h-2.3v16.1h2.4v-11.3l4.8 8.8h1.9l4.7-8.8v11.3h2.4v-16h-2.3l-5.8 10.9z"></path><path d="m97.2 3.3-4.2 7.3-1.2 2.2v6.6h2.4v-6.6l5.6-9.5h-2.7z"></path><path d="m77.6 3.3h-2.6l5.7 9.5v6.6h2.4v-6.6l-1.2-2.2-4.2-7.3z"></path><path d="m106.8 3.3h-2l-7 16.1h2.6l1.5-3.5h7.8l1.5 3.5h2.6l-6.9-16zm-4.1 10.6 3.2-7.5 3.1 7.5z"></path><path d="m128.5 7.8c0-2.7-2.3-4.6-5.7-4.6h-7.3v16.1h2.4v-7h4.1l4.2 7h2.8l-4.4-7.2c2.5-.5 3.9-2.1 3.9-4.3zm-10.6 2.7v-5.3h4.7c2.2 0 3.5 1 3.5 2.7s-1.3 2.6-3.5 2.6z"></path><path d="m145.1 10.8c0-2.1 0-4.4-1.9-6-1.2-1-2.8-1.5-4.8-1.5h-6.6v16.1h6.6c2 0 3.7-.5 4.8-1.5 1.9-1.6 1.9-4.3 1.9-6.4v-.6zm-2.4.5c0 1.9 0 4-1.1 5-.8.7-2 1.1-3.5 1.1h-3.8v-12.2h3.8c1.5 0 2.7.3 3.5 1.1 1.2 1 1.2 2.9 1.1 4.6z"></path><g fill="#3daca2"><path d="m88.7 3.3h-2.6l-4.2 7.3 1.2 2.2 4.3-7.2 4.4 7.2 1.2-2.2-4.2-7.3z"></path><path d="m2.7 3.2v-3l20.3 11.1 20.3-11.1v3l-20.3 11.1z"></path><path d="m24.4 12.7h-2.7v21h2.7z"></path></g><path d="m46 31.2h-2.7v-31l2.7 1.6v29.3z"></path><path d="m0 31.2h2.7v-31l-2.7 1.6v29.3z"></path></svg>